<?xml version="1.0" standalone="no"?>
<!DOCTYPE svg PUBLIC "-//W3C//DTD SVG 1.1//EN" "http://www.w3.org/Graphics/SVG/1.1/DTD/svg11.dtd" >
<svg xmlns="http://www.w3.org/2000/svg" xmlns:xlink="http://www.w3.org/1999/xlink" version="1.1">
<metadata>
Created by FontForge 20170731 at Mon Nov  6 22:47:08 2017
 By Aleksey,,,
Copyright 2014 The Heebo Project Authors.
</metadata>
<defs>
<font id="Heebo-Regular" horiz-adv-x="752" >
  <font-face 
    font-family="Heebo"
    font-weight="400"
    font-stretch="normal"
    units-per-em="2048"
    panose-1="0 0 5 0 0 0 0 0 0 0"
    ascent="1638"
    descent="-410"
    x-height="1082"
    cap-height="1456"
    bbox="-886 -687 1881 2146"
    underline-thickness="100"
    underline-position="-350"
    unicode-range="U+0020-FB4F"
  />
<missing-glyph horiz-adv-x="1351" 
d="M1107 2146v-2701h-856v2701h856zM899 1965h-445v-89h175v-100h-178v-89h448v89h-178v100h178v89zM721 1617h-270v-281h448v92h-178v189zM629 1525v-97h-89v97h89zM899 1263h-448v-89h178v-100h-178v-89h270v189h178v89zM899 1101h-89v-179h-359v-91h448v270zM899 771
h-270v-151h92v62h89v-127h-270v216h-89v-305h448v305zM899 304h-448v-305h448v305zM810 215v-127h-270v127h270zM899 -63h-448v-90h189l-189 -126v-90h448v90h-275l189 126h86v90z" />
    <glyph glyph-name=".notdef" horiz-adv-x="1351" 
d="M1107 2146v-2701h-856v2701h856zM899 1965h-445v-89h175v-100h-178v-89h448v89h-178v100h178v89zM721 1617h-270v-281h448v92h-178v189zM629 1525v-97h-89v97h89zM899 1263h-448v-89h178v-100h-178v-89h270v189h178v89zM899 1101h-89v-179h-359v-91h448v270zM899 771
h-270v-151h92v62h89v-127h-270v216h-89v-305h448v305zM899 304h-448v-305h448v305zM810 215v-127h-270v127h270zM899 -63h-448v-90h189l-189 -126v-90h448v90h-275l189 126h86v90z" />
    <glyph glyph-name=".null" horiz-adv-x="0" 
 />
    <glyph glyph-name="nonmarkingreturn" horiz-adv-x="682" 
 />
    <glyph glyph-name="space" unicode=" " horiz-adv-x="508" 
 />
    <glyph glyph-name="exclam" unicode="!" horiz-adv-x="529" 
d="M349 411h-168l-14 1045h196zM270 199q52 0 81.5 -30t29.5 -76t-29.5 -75t-81.5 -29t-80.5 29t-28.5 75t28.5 76t80.5 30z" />
    <glyph glyph-name="quotedbl" unicode="&#x22;" horiz-adv-x="658" 
d="M278 1400l-30 -356h-112l1 347v145h141v-136zM549 1400l-30 -356h-112l1 354v138h141v-136z" />
    <glyph glyph-name="numbersign" unicode="#" horiz-adv-x="1263" 
d="M1236 902h-229l-70 -355h224v-137h-251l-80 -410h-144l80 410h-263l-80 -410h-144l80 410h-239v137h266l69 355h-259v138h286l81 416h144l-81 -416h263l81 416h145l-81 -416h202v-138zM793 547l69 355h-263l-69 -355h263z" />
    <glyph glyph-name="dollar" unicode="$" horiz-adv-x="1151" 
d="M1042 377q0 -171 -102.5 -273t-283.5 -121v-191h-149v190q-81 8 -149.5 36.5t-125.5 80t-89.5 136t-32.5 194.5h187q0 -81 24.5 -140.5t66 -90.5t88 -45t99.5 -14q132 0 206 63.5t74 172.5q0 92 -64.5 156t-216.5 115q-201 61 -304.5 163t-103.5 271q0 165 96 269
t262 124v219h151v-220q169 -23 261.5 -142t92.5 -321h-186q0 138 -64.5 223t-181.5 85q-121 0 -182.5 -63t-61.5 -171q0 -98 62 -159t224 -115q205 -66 304 -164.5t99 -267.5z" />
    <glyph glyph-name="percent" unicode="%" horiz-adv-x="1500" 
d="M105 1176q0 128 81.5 214.5t216.5 86.5q137 0 218.5 -86.5t81.5 -214.5v-77q0 -127 -81.5 -213t-216.5 -86q-136 0 -218 86.5t-82 212.5v77zM245 1099q0 -75 41.5 -127t118.5 -52q76 0 117 52t41 127v77q0 76 -41.5 128.5t-118.5 52.5q-75 0 -116.5 -52.5t-41.5 -128.5
v-77zM447 111l-105 66l711 1138l105 -66zM814 357q0 127 81.5 213.5t216.5 86.5q136 0 217.5 -86.5t81.5 -213.5v-78q0 -127 -81 -213.5t-216 -86.5q-136 0 -218 86.5t-82 213.5v78zM953 279q0 -75 42 -127.5t119 -52.5q76 0 117 52t41 128v78q0 76 -41.5 128t-118.5 52
q-76 0 -117.5 -52t-41.5 -128v-78z" />
    <glyph glyph-name="ampersand" unicode="&#x26;" horiz-adv-x="1274" 
d="M1268 0h-224l-96 115q-73 -66 -173 -100.5t-202 -34.5q-216 0 -344 114.5t-128 296.5q0 63 19.5 117.5t61 104t87 88.5t115.5 89q-83 100 -123.5 176.5t-40.5 156.5q0 168 98.5 260.5t266.5 92.5q156 0 251.5 -89.5t95.5 -217.5q0 -98 -50 -171t-148 -146l-109 -81
l323 -387q67 129 67 288h168q0 -255 -123 -423zM584 1326q-84 0 -130.5 -56.5t-46.5 -140.5q0 -93 118 -239l103 73q69 47 100 91.5t31 114.5q0 63 -47.5 110t-127.5 47zM573 130q147 0 269 113l-355 426l-42 -31q-157 -117 -157 -247q0 -113 73.5 -187t211.5 -74z" />
    <glyph glyph-name="quotesingle" unicode="'" horiz-adv-x="358" 
d="M255 1425l-22 -367h-130l1 351v127h151v-111z" />
    <glyph glyph-name="parenleft" unicode="(" horiz-adv-x="702" 
d="M133 591q0 167 33 322t85 270t118.5 211t130.5 156t124 93l39 -121q-63 -48 -120.5 -126.5t-109 -191t-82.5 -271t-31 -339.5v-15q0 -181 31 -339.5t83 -272.5t109 -194t120 -132l-39 -111q-60 34 -123.5 93.5t-130.5 155.5t-119 210.5t-85 269.5t-33 322v10z" />
    <glyph glyph-name="parenright" unicode=")" horiz-adv-x="714" 
d="M568 581q0 -167 -33 -322t-84.5 -269.5t-118.5 -210.5t-130.5 -155.5t-123.5 -93.5l-39 111q62 48 120 128t109.5 194.5t82.5 274.5t31 341v15q0 145 -22.5 279.5t-57.5 235t-81.5 187t-91 142t-90.5 93.5l39 112q60 -33 123.5 -93t130 -156t118.5 -211t85 -270t33 -322
v-10z" />
    <glyph glyph-name="asterisk" unicode="*" horiz-adv-x="882" 
d="M329 984l-301 91l47 149l301 -112l-9 345h154l-10 -350l296 111l47 -152l-306 -91l197 -272l-126 -93l-184 289l-180 -282l-126 91z" />
    <glyph glyph-name="plus" unicode="+" horiz-adv-x="1162" 
d="M1076 780v-173h-405v-461h-187v461h-406v173h406v426h187v-426h405z" />
    <glyph glyph-name="comma" unicode="," horiz-adv-x="403" 
d="M310 71q0 -95 -47 -195t-129 -166l-106 72q99 138 99 286v151h183v-148z" />
    <glyph glyph-name="hyphen" unicode="-" horiz-adv-x="565" 
d="M526 544h-489v151h489v-151z" />
    <glyph glyph-name="period" unicode="." horiz-adv-x="541" 
d="M259 209q55 0 85.5 -31.5t30.5 -80.5q0 -48 -30.5 -78t-85.5 -30t-85 30.5t-30 77.5q0 49 30.5 80.5t84.5 31.5z" />
    <glyph glyph-name="slash" unicode="/" horiz-adv-x="846" 
d="M178 -125h-160l608 1581h159z" />
    <glyph glyph-name="zero" unicode="0" horiz-adv-x="1151" 
d="M1035 621q0 -175 -31.5 -300t-92.5 -199t-143 -108t-191 -34q-108 0 -190.5 34t-144.5 108t-94.5 199.5t-32.5 299.5v223q0 174 32 298.5t94 196.5t143.5 104.5t190.5 32.5t191 -32.5t144 -104.5t93.5 -196t31.5 -299v-223zM848 875q0 240 -67.5 345.5t-205.5 105.5
q-136 0 -204.5 -106t-68.5 -345v-283q0 -239 70 -350.5t205 -111.5q137 0 204 110.5t67 351.5v283z" />
    <glyph glyph-name="one" unicode="1" horiz-adv-x="1151" 
d="M730 0h-187v1235l-372 -137v167l530 199h29v-1464z" />
    <glyph glyph-name="two" unicode="2" horiz-adv-x="1151" 
d="M1076 0h-955v132l477 531q131 145 177.5 230t46.5 172q0 112 -67.5 186.5t-184.5 74.5q-142 0 -216 -81t-74 -217h-187q0 193 126 320.5t351 127.5q204 0 321.5 -106t117.5 -283q0 -215 -273 -512l-390 -425h730v-150z" />
    <glyph glyph-name="three" unicode="3" horiz-adv-x="1151" 
d="M768 748q70 -22 120 -60t77.5 -85t40 -95.5t12.5 -101.5q0 -199 -129.5 -312.5t-331.5 -113.5q-129 0 -232.5 46.5t-166.5 139.5t-63 219h187q0 -116 74 -185.5t201 -69.5q129 0 201.5 69t72.5 203q0 133 -81.5 199.5t-226.5 66.5h-132v150h132q139 0 212.5 69t73.5 182
q0 126 -63.5 191.5t-189.5 65.5q-118 0 -190 -68.5t-72 -182.5h-187q0 170 125 285.5t324 115.5q202 0 321 -106.5t119 -304.5q0 -90 -58.5 -179.5t-169.5 -137.5z" />
    <glyph glyph-name="four" unicode="4" horiz-adv-x="1151" 
d="M1105 489v-150h-202v-339h-187v339h-663v108l651 1009h199v-967h202zM264 489h452v716l-22 -40z" />
    <glyph glyph-name="five" unicode="5" horiz-adv-x="1151" 
d="M206 731l74 725h747v-169h-589l-43 -399q106 63 242 63q200 0 316.5 -131.5t116.5 -355.5q0 -218 -118 -351t-343 -133q-186 0 -311.5 103.5t-143.5 299.5h177q17 -124 88.5 -188.5t189.5 -64.5q129 0 201.5 89t72.5 243q0 142 -77 233t-213 91q-85 0 -132 -21t-105 -72z
" />
    <glyph glyph-name="six" unicode="6" horiz-adv-x="1151" 
d="M636 955q105 0 187 -41t131 -109.5t74 -152.5t25 -177q0 -140 -50 -250.5t-154 -177.5t-248 -67q-92 0 -169.5 32t-131.5 86.5t-92.5 126t-56.5 151t-18 162.5v88q0 133 18 246t66 224t124 188.5t201.5 125.5t288.5 48h16v-156h-16q-103 0 -186.5 -26t-139.5 -70.5
t-95.5 -106.5t-59.5 -129.5t-27 -145.5q115 131 313 131zM601 132q126 0 197 92t71 242q0 90 -28 164.5t-89 123.5t-147 49q-96 0 -175 -57t-110 -144v-69q0 -186 82.5 -293.5t198.5 -107.5z" />
    <glyph glyph-name="seven" unicode="7" horiz-adv-x="1151" 
d="M1063 1353l-603 -1353h-196l601 1306h-787v150h985v-103z" />
    <glyph glyph-name="eight" unicode="8" horiz-adv-x="1151" 
d="M791 750q115 -49 181.5 -143t66.5 -213q0 -194 -130.5 -304t-332.5 -110q-203 0 -333 110t-130 304q0 120 65 214.5t179 142.5q-98 47 -154.5 133t-56.5 193q0 186 119.5 292.5t310.5 106.5t310 -106.5t119 -292.5q0 -107 -57.5 -193t-156.5 -134zM576 1326
q-109 0 -176 -68.5t-67 -183.5q0 -113 66.5 -181t176.5 -68q109 0 175.5 68t66.5 181q0 110 -67.5 181t-174.5 71zM576 130q129 0 202.5 71t73.5 197q0 122 -77.5 199t-200.5 77q-125 0 -199.5 -76.5t-74.5 -199.5q0 -126 73.5 -197t202.5 -71z" />
    <glyph glyph-name="nine" unicode="9" horiz-adv-x="1151" 
d="M552 1476q97 0 176 -33t132 -89t89 -132t52 -159.5t16 -174.5v-69q0 -89 -6.5 -165.5t-25.5 -162.5t-50 -155t-84 -134t-124 -108.5t-174 -69.5t-229 -26h-19v156h19q116 0 205 27t143.5 71t90 109t50 131.5t17.5 147.5q-60 -71 -141 -112t-173 -41q-104 0 -186 42
t-131 112.5t-74 155t-25 176.5q0 141 50 253.5t154 181t248 68.5zM546 639q93 0 170.5 57t114.5 144v72q0 191 -81.5 301.5t-197.5 110.5q-125 0 -197 -95.5t-72 -245.5q0 -90 27.5 -166t89 -127t146.5 -51z" />
    <glyph glyph-name="colon" unicode=":" horiz-adv-x="498" 
d="M249 1093q55 0 85.5 -31.5t30.5 -80.5q0 -48 -30.5 -78t-85.5 -30t-85 30.5t-30 77.5q0 49 30.5 80.5t84.5 31.5zM248 209q55 0 85.5 -31.5t30.5 -80.5q0 -48 -30.5 -78t-85.5 -30q-54 0 -84.5 30.5t-30.5 77.5q0 49 30.5 80.5t84.5 31.5z" />
    <glyph glyph-name="semicolon" unicode=";" horiz-adv-x="434" 
d="M225 1093q55 0 85.5 -31.5t30.5 -80.5q0 -48 -30.5 -78t-85.5 -30t-85 30.5t-30 77.5q0 49 30.5 80.5t84.5 31.5zM323 71q0 -95 -47 -195t-129 -166l-106 72q99 138 99 286v151h183v-148z" />
    <glyph glyph-name="less" unicode="&#x3c;" horiz-adv-x="1041" 
d="M890 1098v-194l-624 -259l624 -254v-195l-818 379v145z" />
    <glyph glyph-name="equal" unicode="=" horiz-adv-x="1124" 
d="M986 815h-834v159h834v-159zM986 400h-834v159h834v-159z" />
    <glyph glyph-name="greater" unicode="&#x3e;" horiz-adv-x="1071" 
d="M135 1099l854 -378v-144l-854 -379v190l661 264l-661 258v189z" />
    <glyph glyph-name="question" unicode="?" horiz-adv-x="969" 
d="M357 410q1 95 19 158.5t50.5 110t102.5 117.5q10 11 33 34l33 33t28 31t26.5 34t20.5 34t17.5 39t9.5 41.5t4 48.5q0 106 -55.5 165.5t-158.5 59.5q-95 0 -160 -51.5t-65 -149.5h-187q2 166 118 263.5t294 97.5q190 0 295 -101.5t105 -278.5q0 -64 -20 -124.5t-59 -116
t-77 -97.5t-94 -95q-93 -85 -93 -253h-187zM459 199q52 0 81 -30t29 -76t-29 -75t-81 -29t-81 29t-29 75t29 76t81 30z" />
    <glyph glyph-name="at" unicode="@" horiz-adv-x="1838" 
d="M968 1431q381 0 582.5 -249t184.5 -679q-3 -77 -18 -149t-47 -141.5t-77.5 -120.5t-114 -82t-152.5 -31q-92 0 -153.5 44t-86.5 125q-52 -82 -122 -125.5t-145 -43.5q-146 0 -216.5 119.5t-52.5 319.5q23 256 148 414t284 158q98 0 158.5 -26.5t130.5 -80.5l-51 -554
q-20 -231 127 -231q116 0 183.5 114t74.5 291q9 189 -25.5 335t-112 250t-204.5 158t-299 54q-206 0 -362.5 -103.5t-243.5 -289t-97 -429.5q-17 -376 150.5 -591.5t484.5 -215.5q89 0 179 21t152 57l38 -113q-66 -43 -169.5 -66t-203.5 -23q-379 0 -586.5 249.5
t-190.5 681.5q9 205 73.5 380t173.5 302t265 199t341 72zM865 122q57 0 113 49t93 150q0 1 0.5 3.5t0.5 4.5l46 504q-56 29 -120 29q-112 0 -190.5 -115t-97.5 -329q-14 -142 26.5 -219t128.5 -77z" />
    <glyph glyph-name="A" unicode="A" horiz-adv-x="1338" 
d="M1112 0l-139 381h-607l-138 -381h-200l556 1456h170l557 -1456h-199zM423 538h493l-247 680z" />
    <glyph glyph-name="B" unicode="B" horiz-adv-x="1276" 
d="M905 766q120 -32 187.5 -126t67.5 -220q0 -201 -129.5 -310.5t-351.5 -109.5h-510v1456h478q475 0 475 -388q0 -100 -57.5 -179.5t-159.5 -122.5zM647 1299h-284v-464h289q125 0 200.5 62.5t75.5 172.5q0 119 -69 174t-212 55zM679 156q135 0 211 70.5t76 191.5
q0 126 -68 195t-210 69h-325v-526h316z" />
    <glyph glyph-name="C" unicode="C" horiz-adv-x="1333" 
d="M1241 462q-12 -106 -51 -192t-105 -152t-167.5 -102t-229.5 -36q-257 0 -413 184.5t-156 489.5v147q0 307 159 491t428 184q240 0 376 -131.5t159 -355.5h-194q-23 163 -102 246.5t-239 83.5q-189 0 -290.5 -139.5t-101.5 -376.5v-149q0 -109 22.5 -201.5t67 -164
t117.5 -112t167 -40.5q90 0 154.5 21.5t105 65.5t63.5 101t36 138h194z" />
    <glyph glyph-name="D" unicode="D" horiz-adv-x="1344" 
d="M580 1456q289 0 466 -185.5t177 -498.5v-88q0 -315 -178.5 -499.5t-481.5 -184.5h-394v1456h411zM1031 684v90q0 250 -117.5 387.5t-333.5 137.5h-217v-1143h200q228 0 348 141t120 387z" />
    <glyph glyph-name="E" unicode="E" horiz-adv-x="1164" 
d="M363 156h731v-156h-925v1456h915v-157h-721v-469h629v-156h-629v-518z" />
    <glyph glyph-name="F" unicode="F" horiz-adv-x="1132" 
d="M1071 1299h-708v-499h609v-156h-609v-644h-194v1456h902v-157z" />
    <glyph glyph-name="G" unicode="G" horiz-adv-x="1395" 
d="M1245 191q-147 -211 -515 -211q-133 0 -245 47.5t-192.5 134.5t-125.5 218t-45 291v115q0 327 152 508.5t433 181.5q240 0 374.5 -121t163.5 -325h-194q-11 62 -34.5 112t-63.5 91t-102.5 63.5t-142.5 22.5q-197 0 -294 -139t-97 -392v-117q0 -249 113 -392t301 -143
q227 0 321 106v328h-336v155h529v-534z" />
    <glyph glyph-name="H" unicode="H" horiz-adv-x="1461" 
d="M1095 1456h194v-1456h-194v674h-732v-674h-194v1456h194v-626h732v626z" />
    <glyph glyph-name="I" unicode="I" horiz-adv-x="558" 
d="M377 0h-194v1456h194v-1456z" />
    <glyph glyph-name="J" unicode="J" horiz-adv-x="1130" 
d="M779 1456h194v-1030q0 -212 -126.5 -329t-333.5 -117q-209 0 -334.5 107.5t-125.5 315.5h194q0 -133 72 -200t194 -67q118 0 192 76t74 214v1030z" />
    <glyph glyph-name="K" unicode="K" horiz-adv-x="1285" 
d="M1054 0l-513 677l-178 -184v-493h-194v1456h194v-718l645 718h234l-572 -643l616 -813h-232z" />
    <glyph glyph-name="L" unicode="L" horiz-adv-x="1103" 
d="M363 156h690v-156h-884v1456h194v-1300z" />
    <glyph glyph-name="M" unicode="M" horiz-adv-x="1789" 
d="M1619 1456v-1456h-193v569l18 607l-477 -1176h-147l-476 1176l18 -607v-569h-193v1456h250l475 -1190l475 1190h250z" />
    <glyph glyph-name="N" unicode="N" horiz-adv-x="1461" 
d="M1289 0h-195l-731 1126v-1126h-194v1456h194l734 -1129v1129h192v-1456z" />
    <glyph glyph-name="O" unicode="O" horiz-adv-x="1410" 
d="M1290 681q0 -325 -158 -513t-426 -188q-172 0 -305 83.5t-208 243.5t-75 374v93q0 323 162 512.5t424 189.5q268 0 427 -188.5t159 -513.5v-93zM1098 776q0 259 -103.5 398t-290.5 139q-181 0 -287 -140.5t-106 -396.5v-95q0 -257 106.5 -398t288.5 -141q188 0 290 139
t102 400v95z" />
    <glyph glyph-name="P" unicode="P" horiz-adv-x="1293" 
d="M707 1456q242 0 376.5 -122.5t134.5 -321.5q0 -211 -132 -326t-379 -115h-344v-571h-194v1456h538zM707 727q162 0 239.5 76t77.5 207q0 58 -18.5 108.5t-55.5 92t-99.5 65t-143.5 23.5h-344v-572h344z" />
    <glyph glyph-name="Q" unicode="Q" horiz-adv-x="1410" 
d="M1287 -127l-131 -120l-308 245q-70 -18 -151 -18q-172 0 -305 83.5t-208 243.5t-75 374v93q0 323 162 512.5t424 189.5q269 0 428 -188.5t159 -513.5v-93q0 -207 -66.5 -361.5t-188.5 -241.5zM303 681q0 -257 106.5 -398t287.5 -141q188 0 290 139t102 400v95
q0 259 -103 398t-291 139q-181 0 -286.5 -140.5t-105.5 -396.5v-95z" />
    <glyph glyph-name="R" unicode="R" horiz-adv-x="1261" 
d="M884 630l342 -618v-12h-208l-316 590h-339v-590h-194v1456h482q247 0 379 -112.5t132 -324.5q0 -134 -73.5 -236.5t-204.5 -152.5zM363 746h293q149 0 230 77t81 196q0 132 -78 206t-238 74h-288v-553z" />
    <glyph glyph-name="S" unicode="S" horiz-adv-x="1216" 
d="M598 651q-231 67 -351 167.5t-120 261.5q0 172 136.5 284t357.5 112q120 0 219 -36.5t163 -98t98.5 -140.5t34.5 -165h-195q0 128 -81 205.5t-239 77.5q-147 0 -223 -65t-76 -171q0 -92 79.5 -153.5t259.5 -112.5q251 -71 364.5 -175t113.5 -272q0 -178 -138.5 -284
t-369.5 -106q-103 0 -200 29t-175.5 82.5t-126.5 139.5t-48 191h194q0 -96 51 -162t129 -95t176 -29q149 0 231 62t82 170q0 71 -29.5 117.5t-103.5 86t-213 79.5z" />
    <glyph glyph-name="T" unicode="T" horiz-adv-x="1222" 
d="M1175 1456v-157h-467v-1299h-192v1299h-466v157h1125z" />
    <glyph glyph-name="U" unicode="U" horiz-adv-x="1328" 
d="M1195 1456v-985q0 -96 -28 -176.5t-77 -138t-116 -97.5t-145 -59.5t-163 -19.5q-113 0 -208 31t-166.5 91t-111.5 154.5t-40 214.5v985h192v-985q0 -166 89.5 -250.5t244.5 -84.5q156 0 245 84.5t89 250.5v985h195z" />
    <glyph glyph-name="V" unicode="V" horiz-adv-x="1305" 
d="M1067 1456h211l-539 -1456h-172l-538 1456h211l412 -1200z" />
    <glyph glyph-name="W" unicode="W" horiz-adv-x="1817" 
d="M1578 1456h195l-352 -1456h-177l-299 1063l-22 108l-23 -108l-310 -1063h-177l-352 1456h194l229 -998l28 -189l40 170l288 1017h163l280 -1017l41 -174l30 194z" />
    <glyph glyph-name="X" unicode="X" horiz-adv-x="1285" 
d="M645 897l348 559h227l-459 -721l470 -735h-229l-357 570l-359 -570h-228l471 735l-461 721h228z" />
    <glyph glyph-name="Y" unicode="Y" horiz-adv-x="1230" 
d="M614 724l378 732h220l-501 -912v-544h-195v544l-501 912h222z" />
    <glyph glyph-name="Z" unicode="Z" horiz-adv-x="1227" 
d="M314 156h832v-156h-1059v143l798 1156h-786v157h1015v-139z" />
    <glyph glyph-name="bracketleft" unicode="[" horiz-adv-x="545" 
d="M524 1514h-191v-1676h191v-150h-378v1976h378v-150z" />
    <glyph glyph-name="backslash" unicode="\" horiz-adv-x="841" 
d="M41 1456h177l608 -1581h-177z" />
    <glyph glyph-name="bracketright" unicode="]" horiz-adv-x="545" 
d="M10 1664h379v-1976h-379v150h192v1676h-192v150z" />
    <glyph glyph-name="asciicircum" unicode="^" horiz-adv-x="856" 
d="M789 729h-173l-189 484l-190 -484h-173l299 727h128z" />
    <glyph glyph-name="underscore" unicode="_" horiz-adv-x="925" 
d="M921 -150h-917v150h917v-150z" />
    <glyph glyph-name="grave" unicode="`" horiz-adv-x="634" 
d="M475 1243h-160l-259 293h225z" />
    <glyph glyph-name="a" unicode="a" horiz-adv-x="1115" 
d="M965 236q0 -132 38 -220v-16h-195q-17 39 -26 113q-126 -133 -307 -133q-163 0 -264.5 91.5t-101.5 228.5q0 172 130 264t357 92h182v86q0 99 -58.5 155.5t-168.5 56.5q-101 0 -166.5 -51t-65.5 -121h-187q0 58 31 115t85.5 103t136.5 74t177 28q183 0 293 -93t110 -269
v-504zM502 140q95 0 169 48t107 115v223h-152q-160 0 -245 -50.5t-85 -149.5q0 -81 54 -133.5t152 -52.5z" />
    <glyph glyph-name="b" unicode="b" horiz-adv-x="1150" 
d="M635 1102q200 0 311 -150t111 -402v-21q0 -243 -112 -396t-308 -153q-206 0 -317 144l-9 -124h-171v1536h187v-570q110 136 308 136zM870 529v21q0 84 -15 153.5t-47 125.5t-88 87t-132 31q-180 0 -261 -168v-474q84 -169 263 -169q141 0 210.5 109.5t69.5 283.5z" />
    <glyph glyph-name="c" unicode="c" horiz-adv-x="1073" 
d="M829 342h177q-8 -146 -134.5 -254t-297.5 -108q-119 0 -212.5 43t-151.5 118t-88 171.5t-30 207.5v42q0 111 30 207.5t88.5 171.5t152 118t211.5 43q187 0 305.5 -111t126.5 -281h-177q-8 104 -77.5 173t-177.5 69q-81 0 -141 -33.5t-92 -91.5t-47 -123.5t-15 -141.5v-42
q0 -61 8.5 -114.5t29.5 -105t54 -88.5t85 -59.5t118 -22.5q100 0 173.5 60.5t81.5 151.5z" />
    <glyph glyph-name="d" unicode="d" horiz-adv-x="1156" 
d="M822 1536h187v-1536h-171l-9 115q-110 -135 -308 -135q-189 0 -307.5 155t-118.5 394v21q0 248 117.5 400t310.5 152q189 0 299 -127v561zM567 136q171 0 255 156v503q-83 152 -253 152q-97 0 -163.5 -55.5t-95 -142.5t-28.5 -199v-21q0 -83 17 -153t50.5 -124.5t89 -85
t128.5 -30.5z" />
    <glyph glyph-name="e" unicode="e" horiz-adv-x="1087" 
d="M1012 573v-83h-732q4 -155 90 -257.5t230 -102.5q173 0 285 147l113 -88q-137 -209 -408 -209q-224 0 -360.5 146.5t-136.5 376.5v43q0 128 39.5 235t106 176t151 107t176.5 38q114 0 200.5 -40t139.5 -112t79.5 -166.5t26.5 -210.5zM825 640v14q-4 58 -18.5 108
t-43 94.5t-79 70t-118.5 25.5q-111 0 -186 -82t-94 -230h539z" />
    <glyph glyph-name="f" unicode="f" horiz-adv-x="712" 
d="M605 1400q-89 0 -138 -52.5t-49 -150.5v-115h230v-141h-230v-941h-187v941h-170v141h170v115q0 173 94.5 266.5t262.5 93.5q61 0 127 -16l-10 -149q-45 8 -100 8z" />
    <glyph glyph-name="g" unicode="g" horiz-adv-x="1150" 
d="M841 1082h170v-1059q0 -211 -126 -330.5t-333 -119.5q-63 0 -132.5 16.5t-146.5 61t-122 110.5l97 109q120 -147 290 -147q133 0 209.5 75.5t76.5 215.5v93q-110 -127 -302 -127t-309 154.5t-117 394.5v21q0 249 115.5 400.5t312.5 151.5t309 -138zM568 136
q173 0 256 159v497q-82 155 -254 155q-97 0 -163.5 -55.5t-95 -142.5t-28.5 -199v-21q0 -83 17 -153t50.5 -124.5t89 -85t128.5 -30.5z" />
    <glyph glyph-name="h" unicode="h" horiz-adv-x="1128" 
d="M645 1102q347 0 347 -393v-709h-187v711q0 124 -53.5 180t-161.5 56q-86 0 -154.5 -47t-108.5 -126v-774h-187v1536h187v-582q123 148 318 148z" />
    <glyph glyph-name="i" unicode="i" horiz-adv-x="498" 
d="M251 1476q52 0 81.5 -30t29.5 -76q0 -45 -29.5 -74.5t-81.5 -29.5t-80.5 29.5t-28.5 74.5q0 46 28.5 76t80.5 30zM343 0h-187v1082h187v-1082z" />
    <glyph glyph-name="j" unicode="j" horiz-adv-x="491" 
d="M236 1476q52 0 81.5 -30t29.5 -76q0 -45 -29.5 -74.5t-81.5 -29.5t-80.5 29.5t-28.5 74.5q0 46 28.5 76t80.5 30zM333 1082v-1211q0 -151 -71 -229.5t-212 -78.5q-62 0 -115 17l1 148q37 -9 85 -9q62 0 93.5 35.5t31.5 116.5v1211h187z" />
    <glyph glyph-name="k" unicode="k" horiz-adv-x="1039" 
d="M818 0l-374 502l-116 -120v-382h-187v1536h187v-928l99 117l334 357h227l-421 -451l471 -631h-220z" />
    <glyph glyph-name="l" unicode="l" horiz-adv-x="498" 
d="M343 0h-187v1536h187v-1536z" />
    <glyph glyph-name="m" unicode="m" horiz-adv-x="1795" 
d="M1294 1102q362 0 362 -391v-711h-187v713q0 129 -58.5 181.5t-171.5 52.5q-107 0 -172 -64.5t-76 -163.5v-719h-187v712q0 235 -231 235q-180 0 -247 -153v-794h-187v1082h177l5 -117q118 137 320 137q227 0 309 -172q56 80 143.5 126t200.5 46z" />
    <glyph glyph-name="n" unicode="n" horiz-adv-x="1131" 
d="M645 1102q347 0 347 -393v-709h-187v711q0 124 -53.5 180t-161.5 56q-86 0 -154.5 -47t-108.5 -126v-774h-187v1082h177l6 -133q123 153 322 153z" />
    <glyph glyph-name="o" unicode="o" horiz-adv-x="1169" 
d="M92 552q0 157 59 281t171.5 196.5t260.5 72.5q150 0 263 -72.5t172 -196.5t59 -281v-23q0 -239 -134 -394t-358 -155t-358.5 155t-134.5 394v23zM279 529q0 -110 33 -199t103.5 -144.5t169.5 -55.5q98 0 168.5 55.5t103.5 144.5t33 199v23q0 110 -33 198.5t-104 145
t-170 56.5q-98 0 -168 -56.5t-103 -145t-33 -198.5v-23z" />
    <glyph glyph-name="p" unicode="p" horiz-adv-x="1150" 
d="M633 1102q200 0 311 -150t111 -402v-21q0 -243 -111.5 -396t-307.5 -153t-309 124v-520h-187v1498h170l10 -118q113 138 313 138zM868 529v21q0 83 -17.5 153.5t-52 125.5t-91 86.5t-130.5 31.5q-167 0 -250 -149v-521q83 -147 252 -147q96 0 163 55.5t96.5 143.5
t29.5 200z" />
    <glyph glyph-name="q" unicode="q" horiz-adv-x="1165" 
d="M837 1082h171v-1498h-187v514q-112 -118 -297 -118q-131 0 -229 71.5t-149 195.5t-51 282v21q0 251 115 401.5t316 150.5q191 0 303 -127zM571 130q163 0 250 145v536q-87 141 -248 141q-97 0 -164.5 -56.5t-97 -145t-29.5 -200.5v-21q0 -112 29.5 -200t96.5 -143.5
t163 -55.5z" />
    <glyph glyph-name="r" unicode="r" horiz-adv-x="694" 
d="M582 1102q52 0 82 -14v-171q-43 8 -91 8q-180 0 -246 -157v-768h-187v1082h182l4 -123q88 143 256 143z" />
    <glyph glyph-name="s" unicode="s" horiz-adv-x="1057" 
d="M522 475q-193 40 -291.5 112t-98.5 199q0 132 111.5 224t289.5 92q189 0 301 -96.5t112 -240.5h-187q0 72 -61.5 129.5t-164.5 57.5q-107 0 -160.5 -47t-53.5 -113q0 -63 50.5 -99t198.5 -69q204 -47 296.5 -121.5t92.5 -202.5q0 -143 -115 -231.5t-304 -88.5
q-104 0 -189.5 30t-140 79.5t-84 112.5t-29.5 131h187q3 -55 27 -96t61.5 -63.5t79.5 -33t88 -10.5q110 0 171 44t61 113q0 33 -9 57.5t-34.5 49.5t-76.5 45t-128 36z" />
    <glyph glyph-name="t" unicode="t" horiz-adv-x="670" 
d="M598 149l1 -149q-64 -20 -143 -20q-113 0 -181.5 68t-68.5 221v672h-197v141h197v263h187v-263h202v-141h-202v-673q0 -77 32 -103.5t87 -26.5q42 0 86 11z" />
    <glyph glyph-name="u" unicode="u" horiz-adv-x="1129" 
d="M802 1082h187v-1082h-178l-4 106q-107 -126 -316 -126q-167 0 -261 98t-94 306v698h187v-700q0 -246 198 -246q210 0 281 156v790z" />
    <glyph glyph-name="v" unicode="v" horiz-adv-x="993" 
d="M764 1082h191l-388 -1082h-142l-392 1082h191l274 -829z" />
    <glyph glyph-name="w" unicode="w" horiz-adv-x="1539" 
d="M1306 1082h185l-314 -1082h-151l-262 817l-256 -817h-151l-314 1082h186l212 -802l251 802h151l255 -820z" />
    <glyph glyph-name="x" unicode="x" horiz-adv-x="1016" 
d="M504 687l238 395h218l-353 -534l364 -548h-215l-249 407l-248 -407h-218l365 548l-354 534h216z" />
    <glyph glyph-name="y" unicode="y" horiz-adv-x="969" 
d="M745 1082h199l-434 -1249q-98 -270 -321 -270q-52 0 -105 16v149q27 -5 50 -5q95 0 147.5 39.5t85.5 138.5l40 110l-385 1071h204l268 -808z" />
    <glyph glyph-name="z" unicode="z" horiz-adv-x="1016" 
d="M316 150h631v-150h-858v135l598 796h-590v151h821v-130z" />
    <glyph glyph-name="braceleft" unicode="{" horiz-adv-x="694" 
d="M463 98q0 -285 208 -351l-39 -114q-99 28 -170 75t-110.5 108.5t-57.5 130.5t-18 151v207q0 113 -51.5 175.5t-160.5 62.5v144q212 0 212 238v207q0 82 18 151t57.5 130.5t110.5 108.5t170 75l39 -113q-208 -67 -208 -352v-207q0 -221 -169 -310q169 -89 169 -310v-207z
" />
    <glyph glyph-name="bar" unicode="|" horiz-adv-x="501" 
d="M326 -270h-150v1726h150v-1726z" />
    <glyph glyph-name="braceright" unicode="}" horiz-adv-x="694" 
d="M415 925q0 -113 52 -175.5t160 -62.5v-144q-108 0 -160 -63t-52 -175v-207q0 -83 -17.5 -151.5t-57.5 -130t-110.5 -108.5t-170.5 -75l-39 114q208 66 208 351v207q0 228 184 310q-184 82 -184 310v207q0 285 -208 352l39 113q100 -28 170.5 -75t110.5 -108.5t57.5 -130
t17.5 -151.5v-207z" />
    <glyph glyph-name="asciitilde" unicode="~" horiz-adv-x="1393" 
d="M1263 777q0 -156 -92 -265t-232 -109q-83 0 -149 32.5t-149 106.5q-55 51 -97.5 75t-89.5 24q-76 0 -118.5 -54t-42.5 -149l-162 -1q0 157 91 261t232 104q83 0 151 -33.5t148 -105.5q57 -53 98 -76t88 -23q76 0 123.5 59.5t47.5 153.5h153z" />
    <glyph glyph-name="exclamdown" unicode="&#xa1;" horiz-adv-x="501" 
d="M250 891q-52 0 -81.5 30t-29.5 76q0 45 29.5 74.5t81.5 29.5t80.5 -29.5t28.5 -74.5q0 -46 -28.5 -76t-80.5 -30zM171 684h168l14 -1045h-196z" />
    <glyph glyph-name="cent" unicode="&#xa2;" horiz-adv-x="1121" 
d="M586 130q100 0 173.5 60.5t81.5 151.5h177q-8 -127 -106.5 -227.5t-241.5 -126.5v-233h-187v234q-184 34 -281.5 180.5t-97.5 350.5v42q0 132 40.5 242t128 188t210.5 101v225h187v-223q154 -24 247.5 -130t100.5 -255h-177q-8 104 -77.5 173t-177.5 69q-81 0 -141 -33.5
t-92 -91.5t-47 -123.5t-15 -141.5v-42q0 -61 8.5 -114.5t29.5 -105t54 -88.5t85 -59.5t118 -22.5z" />
    <glyph glyph-name="sterling" unicode="&#xa3;" horiz-adv-x="1191" 
d="M396 156h733l-1 -156h-1033v156h77q47 12 69.5 87.5t22.5 157.5l-8 222h-165v156h160l-9 260q0 203 124.5 320t320.5 117q193 0 303.5 -106.5t110.5 -282.5h-194q0 118 -67.5 175.5t-168.5 57.5q-102 0 -168.5 -74.5t-66.5 -206.5l9 -260h318v-156h-313l8 -221
q2 -152 -62 -246z" />
    <glyph glyph-name="currency" unicode="&#xa4;" horiz-adv-x="1460" 
d="M1330 608q0 -197 -102 -354l143 -145l-133 -136l-136 138q-161 -131 -367 -131q-205 0 -365 130l-133 -136l-132 135l139 141q-104 159 -104 358q0 208 113 370l-148 151l132 135l146 -149q157 119 352 119q199 0 355 -120l148 151l133 -136l-151 -154q110 -163 110 -367
zM735 150q115 0 212 61.5t153 167t56 229.5t-56 229t-153 166t-212 61q-175 0 -298.5 -133.5t-123.5 -322.5q0 -124 56.5 -229.5t153.5 -167t212 -61.5z" />
    <glyph glyph-name="yen" unicode="&#xa5;" horiz-adv-x="1076" 
d="M1061 1456l-366 -720h260v-124h-323l-1 -2v-164h324v-124h-324v-322h-194v322h-317v124h317v166h-317v124h262l-367 720h218l307 -660l306 660h215z" />
    <glyph glyph-name="brokenbar" unicode="&#xa6;" horiz-adv-x="493" 
d="M334 698h-187v758h187v-758zM147 -270v791h187v-791h-187z" />
    <glyph glyph-name="section" unicode="&#xa7;" horiz-adv-x="1257" 
d="M959 158q142 -99 142 -287q0 -172 -132 -269t-356 -97q-81 0 -153.5 13.5t-141 45.5t-118.5 80t-80 123t-30 169l187 2q0 -76 30 -133.5t80 -88.5t106.5 -46t119.5 -15q140 0 220.5 60t80.5 154q0 92 -72.5 144t-278.5 114q-118 31 -197.5 64.5t-144 82.5t-95 117.5
t-30.5 159.5q0 92 47.5 162.5t135.5 111.5q-138 102 -138 286q0 166 133.5 266t356.5 100q231 0 361.5 -112t130.5 -319h-187q0 121 -81 200.5t-224 79.5q-149 0 -226 -60t-77 -153q0 -100 68.5 -150t280.5 -109q96 -26 164 -51.5t129 -61t97.5 -78t57.5 -100.5t21 -132
q0 -93 -48.5 -163t-138.5 -110zM283 553q0 -52 14.5 -87t56.5 -66t107 -55.5t176 -55.5q90 -24 161 -51q77 20 119 70.5t42 119.5q0 93 -74.5 147.5t-281.5 116.5q-94 25 -165 52q-77 -18 -116 -68.5t-39 -122.5z" />
    <glyph glyph-name="dieresis" unicode="&#xa8;" horiz-adv-x="856" 
d="M210 1478q52 0 81 -30t29 -76q0 -45 -29 -74.5t-81 -29.5t-81 29.5t-29 74.5q0 46 29 76t81 30zM640 1476q52 0 81.5 -30t29.5 -76q0 -45 -29.5 -74.5t-81.5 -29.5t-80.5 29.5t-28.5 74.5q0 46 28.5 76t80.5 30z" />
    <glyph glyph-name="copyright" unicode="&#xa9;" horiz-adv-x="1609" 
d="M801 1476q145 0 275.5 -57.5t226 -156.5t151.5 -238t56 -295t-56 -295.5t-151.5 -239t-226.5 -157.5t-275 -58q-145 0 -276 58t-226.5 157.5t-151.5 239t-56 295.5t56 295t151.5 238t226.5 156.5t276 57.5zM801 98q161 0 297.5 83t216 228t79.5 320q0 131 -47 248
t-126.5 200t-189 131.5t-230.5 48.5t-231 -48.5t-189.5 -131.5t-126.5 -200t-47 -248q0 -175 79.5 -320t216 -228t298.5 -83zM1119 598q0 -155 -87.5 -234.5t-243.5 -79.5q-159 0 -253 106.5t-94 280.5v115q0 173 94.5 280t252.5 107q156 0 244 -79.5t88 -233.5h-146
q0 97 -46.5 141.5t-139.5 44.5q-96 0 -149 -71t-53 -188v-116q0 -118 52.5 -188.5t149.5 -70.5q93 0 139 43.5t46 142.5h146z" />
    <glyph glyph-name="ordfeminine" unicode="&#xaa;" horiz-adv-x="916" 
d="M784 706h-166q-12 38 -17 72q-79 -86 -205 -86q-118 0 -183.5 61t-65.5 165q0 112 85.5 171.5t253.5 59.5h108v53q0 135 -123 135q-70 0 -108.5 -27.5t-38.5 -78.5l-162 13q0 102 85 167.5t224 65.5q132 0 209.5 -71t77.5 -205v-314q0 -97 26 -181zM435 828
q42 0 86.5 19.5t72.5 47.5v143h-107q-87 0 -131.5 -32.5t-44.5 -83.5q0 -94 124 -94z" />
    <glyph glyph-name="guillemotleft" unicode="&#xab;" horiz-adv-x="961" 
d="M538 946l-258 -397l258 -398h-143l-295 388v19l295 388h143zM870 946l-258 -397l258 -398h-143l-295 388v19l295 388h143z" />
    <glyph glyph-name="logicalnot" unicode="&#xac;" horiz-adv-x="1135" 
d="M127 800h832v-424h-187v264h-645v160z" />
    <glyph glyph-name="uni00AD" unicode="&#xad;" horiz-adv-x="600" 
d="M526 544h-489v151h489v-151z" />
    <glyph glyph-name="registered" unicode="&#xae;" horiz-adv-x="1609" 
d="M800 1476q145 0 276 -57.5t226.5 -156.5t151.5 -238t56 -295t-56 -295.5t-151.5 -239t-226.5 -157.5t-276 -58t-276 58t-226.5 157.5t-151.5 239t-56 295.5t56 295t151.5 238t226.5 156.5t276 57.5zM800 98q161 0 297.5 83t216 228t79.5 320q0 131 -47 248t-126.5 200
t-189 131.5t-230.5 48.5t-231 -48.5t-189.5 -131.5t-126.5 -200t-47 -248q0 -175 79.5 -320t216 -228t298.5 -83zM1105 514v-54q0 -84 17 -127v-16h-146q-13 34 -13 144v52q0 74 -34 108t-113 34h-163v-338h-142v848h277q152 0 237 -64.5t85 -190.5q0 -124 -129 -188
q124 -49 124 -208zM809 782q67 2 113.5 34t46.5 88q0 75 -40 105t-141 30h-135v-257h156z" />
    <glyph glyph-name="macron" unicode="&#xaf;" horiz-adv-x="940" 
d="M815 1304h-672v141h672v-141z" />
    <glyph glyph-name="degree" unicode="&#xb0;" horiz-adv-x="765" 
d="M386 1477q103 0 177 -76.5t74 -183.5t-73.5 -181.5t-177.5 -74.5q-105 0 -180 74.5t-75 181.5q0 106 75.5 183t179.5 77zM386 1088q54 0 90 37t36 92q0 57 -36 95t-90 38t-92 -38t-38 -95q0 -55 38 -92t92 -37z" />
    <glyph glyph-name="plusminus" unicode="&#xb1;" horiz-adv-x="1095" 
d="M651 854h362v-150h-362v-415h-169v415h-385v150h385v413h169v-413zM135 1v150h835v-150h-835z" />
    <glyph glyph-name="uni00B2" unicode="&#xb2;" 
d="M684 667h-600v108l289 271q120 112 120 183q0 50 -32.5 80.5t-90.5 30.5q-72 0 -108.5 -37t-36.5 -97h-159q0 111 81.5 186t218.5 75q134 0 210 -63.5t76 -172.5q0 -73 -45 -136t-146 -154l-175 -147h398v-127z" />
    <glyph glyph-name="uni00B3" unicode="&#xb3;" 
d="M517 1072q150 -41 150 -185q0 -108 -86 -169.5t-220 -61.5q-124 0 -211 59.5t-87 173.5h158q0 -46 40.5 -76t104.5 -30q68 0 105 30.5t37 81.5q0 116 -158 116h-85v115h85q71 0 108 30t37 80q0 47 -33 75.5t-99 28.5q-57 0 -94 -25.5t-37 -68.5h-159q0 100 82 160.5
t205 60.5q134 0 213.5 -58.5t79.5 -165.5q0 -56 -35.5 -101.5t-100.5 -69.5z" />
    <glyph glyph-name="acute" unicode="&#xb4;" horiz-adv-x="644" 
d="M317 1536h225l-269 -293h-150z" />
    <glyph glyph-name="paragraph" unicode="&#xb6;" horiz-adv-x="1002" 
d="M646 0v520h-87q-233 0 -362.5 130t-129.5 338q0 207 130 337.5t362 130.5h275v-1456h-188z" />
    <glyph glyph-name="periodcentered" unicode="&#xb7;" horiz-adv-x="536" 
d="M262 840q55 0 85.5 -31t30.5 -80q0 -48 -30.5 -78.5t-85.5 -30.5q-54 0 -84.5 30.5t-30.5 78.5q0 49 30 80t85 31z" />
    <glyph glyph-name="cedilla" unicode="&#xb8;" horiz-adv-x="508" 
d="M286 0l-12 -53q153 -26 153 -173q0 -96 -79 -152.5t-225 -56.5l-7 106q74 0 120 24.5t46 74.5q0 49 -36 68.5t-125 26.5l31 135h134z" />
    <glyph glyph-name="uni00B9" unicode="&#xb9;" 
d="M496 667h-158v603l-215 -58v128l355 116h18v-789z" />
    <glyph glyph-name="ordmasculine" unicode="&#xba;" horiz-adv-x="932" 
d="M123 1124q0 156 93 254.5t249 98.5q157 0 250 -98t93 -255v-81q0 -156 -92.5 -254t-248.5 -98q-157 0 -250.5 98t-93.5 254v81zM287 1043q0 -96 45.5 -155t134.5 -59q86 0 131.5 59t45.5 155v81q0 95 -46 154t-133 59t-132.5 -59.5t-45.5 -153.5v-81z" />
    <glyph glyph-name="guillemotright" unicode="&#xbb;" horiz-adv-x="961" 
d="M540 541l-295 -388h-142l257 398l-257 398h142l295 -389v-19zM595 949l295 -389v-19l-295 -388h-142l257 398l-257 398h142z" />
    <glyph glyph-name="questiondown" unicode="&#xbf;" horiz-adv-x="970" 
d="M488 892q-52 0 -81.5 30t-29.5 76q0 45 29.5 74.5t81.5 29.5t80.5 -29.5t28.5 -74.5q0 -46 -28.5 -76t-80.5 -30zM590 680q-1 -71 -9 -119.5t-32 -94t-49.5 -77t-79.5 -90.5q-5 -5 -30.5 -32.5t-31.5 -34t-26.5 -31t-26.5 -35.5t-19.5 -34t-17.5 -41t-8.5 -42.5
t-4.5 -49.5q0 -109 57.5 -166.5t165.5 -57.5q94 0 159 53t66 152h187q-2 -168 -118 -267t-294 -99q-195 0 -302.5 100t-107.5 280q0 65 20 126.5t59 118t75.5 98.5t90.5 94q90 87 90 249h187z" />
    <glyph glyph-name="Agrave" unicode="&#xc0;" horiz-adv-x="1338" 
d="M762 1554h-160l-259 293h226zM1112 0l-139 381h-607l-138 -381h-200l556 1456h170l557 -1456h-199zM423 538h493l-247 680z" />
    <glyph glyph-name="Aacute" unicode="&#xc1;" horiz-adv-x="1338" 
d="M999 1847l-269 -293h-150l194 293h225zM1112 0l-139 381h-607l-138 -381h-200l556 1456h170l557 -1456h-199zM423 538h493l-247 680z" />
    <glyph glyph-name="Acircumflex" unicode="&#xc2;" horiz-adv-x="1338" 
d="M673 1734l-149 -170h-153v11l246 272h112l248 -273v-10h-154zM1112 0l-139 381h-607l-138 -381h-200l556 1456h170l557 -1456h-199zM423 538h493l-247 680z" />
    <glyph glyph-name="Atilde" unicode="&#xc3;" horiz-adv-x="1338" 
d="M544 1669q-42 0 -70.5 -32.5t-28.5 -79.5l-125 7q0 108 61.5 177t153.5 69q47 0 92 -24t88.5 -48t87.5 -24q42 0 71 32.5t29 80.5l125 -12q0 -108 -61.5 -174.5t-154.5 -66.5q-46 0 -84 15t-59.5 32.5t-54.5 32.5t-70 15zM1112 0l-139 381h-607l-138 -381h-200l556 1456
h170l557 -1456h-199zM423 538h493l-247 680z" />
    <glyph glyph-name="Adieresis" unicode="&#xc4;" horiz-adv-x="1338" 
d="M460 1579q-52 0 -81 29.5t-29 74.5q0 46 29 76t81 30t81 -30t29 -76q0 -45 -29 -74.5t-81 -29.5zM890 1577q-52 0 -80.5 29.5t-28.5 74.5q0 46 28.5 76t80.5 30t81.5 -30t29.5 -76q0 -45 -29.5 -74.5t-81.5 -29.5zM1112 0l-139 381h-607l-138 -381h-200l556 1456h170
l557 -1456h-199zM423 538h493l-247 680z" />
    <glyph glyph-name="Aring" unicode="&#xc5;" horiz-adv-x="1338" 
d="M673 1527q-92 0 -154 58t-62 145t62 147.5t154 60.5q91 0 153 -60.5t62 -147.5t-62 -145t-153 -58zM673 1849q-50 0 -83 -35.5t-33 -83.5q0 -46 33 -80.5t83 -34.5t83 34.5t33 80.5q0 48 -33 83.5t-83 35.5zM1112 0l-139 381h-607l-138 -381h-200l556 1456h170l557 -1456
h-199zM423 538h493l-247 680z" />
    <glyph glyph-name="AE" unicode="&#xc6;" horiz-adv-x="1915" 
d="M1177 150h704v-150h-885l-15 354h-563l-205 -354h-229l881 1456h954v-150h-691l20 -473h590v-150h-584zM518 527h456l-31 735z" />
    <glyph glyph-name="Ccedilla" unicode="&#xc7;" horiz-adv-x="1333" 
d="M688 136q90 0 154.5 21.5t105 65.5t63.5 101t36 138h194q-23 -204 -146 -333.5t-345 -146.5l-10 -45q153 -26 153 -173q0 -96 -79 -152.5t-225 -56.5l-7 106q74 0 120 24.5t46 74.5q0 49 -36 68.5t-125 26.5l30 129q-227 26 -362.5 207t-135.5 463v147q0 307 159 491
t428 184q240 0 376 -131.5t159 -355.5h-194q-23 163 -102 246.5t-239 83.5q-189 0 -290.5 -139.5t-101.5 -376.5v-149q0 -109 22.5 -201.5t67 -164t117.5 -112t167 -40.5z" />
    <glyph glyph-name="Egrave" unicode="&#xc8;" horiz-adv-x="1164" 
d="M708 1565h-160l-259 293h226zM363 156h731v-156h-925v1456h915v-157h-721v-469h629v-156h-629v-518z" />
    <glyph glyph-name="Eacute" unicode="&#xc9;" horiz-adv-x="1164" 
d="M945 1858l-269 -293h-150l194 293h225zM363 156h731v-156h-925v1456h915v-157h-721v-469h629v-156h-629v-518z" />
    <glyph glyph-name="Ecircumflex" unicode="&#xca;" horiz-adv-x="1164" 
d="M619 1745l-149 -170h-153v11l246 272h112l248 -273v-10h-154zM363 156h731v-156h-925v1456h915v-157h-721v-469h629v-156h-629v-518z" />
    <glyph glyph-name="Edieresis" unicode="&#xcb;" horiz-adv-x="1164" 
d="M406 1590q-52 0 -81 29.5t-29 74.5q0 46 29 76t81 30t81 -30t29 -76q0 -45 -29 -74.5t-81 -29.5zM836 1588q-52 0 -80.5 29.5t-28.5 74.5q0 46 28.5 76t80.5 30t81.5 -30t29.5 -76q0 -45 -29.5 -74.5t-81.5 -29.5zM363 156h731v-156h-925v1456h915v-157h-721v-469h629
v-156h-629v-518z" />
    <glyph glyph-name="Igrave" unicode="&#xcc;" horiz-adv-x="558" 
d="M368 1565h-160l-259 293h226zM377 0h-194v1456h194v-1456z" />
    <glyph glyph-name="Iacute" unicode="&#xcd;" horiz-adv-x="558" 
d="M380 1858h225l-269 -293h-150zM377 0h-194v1456h194v-1456z" />
    <glyph glyph-name="Icircumflex" unicode="&#xce;" horiz-adv-x="558" 
d="M583 1585v-10h-154l-150 170l-149 -170h-153v11l246 272h112zM377 0h-194v1456h194v-1456z" />
    <glyph glyph-name="Idieresis" unicode="&#xcf;" horiz-adv-x="558" 
d="M66 1800q52 0 81 -30t29 -76q0 -45 -29 -74.5t-81 -29.5t-81 29.5t-29 74.5q0 46 29 76t81 30zM496 1798q52 0 81.5 -30t29.5 -76q0 -45 -29.5 -74.5t-81.5 -29.5t-80.5 29.5t-28.5 74.5q0 46 28.5 76t80.5 30zM377 0h-194v1456h194v-1456z" />
    <glyph glyph-name="Eth" unicode="&#xd0;" horiz-adv-x="1344" 
d="M580 1456q289 0 466 -185.5t177 -498.5v-88q0 -315 -178.5 -499.5t-481.5 -184.5h-394v666h-163v150h163v640h411zM1031 684v90q0 250 -117.5 387.5t-333.5 137.5h-217v-483h281v-150h-281v-510h200q228 0 348 141t120 387z" />
    <glyph glyph-name="Ntilde" unicode="&#xd1;" horiz-adv-x="1461" 
d="M1081 1815q0 -108 -61.5 -174.5t-154.5 -66.5q-46 0 -84 15t-59.5 32.5t-54.5 32.5t-70 15q-42 0 -70.5 -32.5t-28.5 -79.5l-125 7q0 108 61.5 177t153.5 69q47 0 92 -24t88.5 -48t87.5 -24q42 0 71 32.5t29 80.5zM1289 0h-195l-731 1126v-1126h-194v1456h194l734 -1129
v1129h192v-1456z" />
    <glyph glyph-name="Ograve" unicode="&#xd2;" horiz-adv-x="1410" 
d="M796 1556h-160l-259 293h226zM1290 681q0 -325 -158 -513t-426 -188q-172 0 -305 83.5t-208 243.5t-75 374v93q0 323 162 512.5t424 189.5q268 0 427 -188.5t159 -513.5v-93zM1098 776q0 259 -103.5 398t-290.5 139q-181 0 -287 -140.5t-106 -396.5v-95
q0 -257 106.5 -398t288.5 -141q188 0 290 139t102 400v95z" />
    <glyph glyph-name="Oacute" unicode="&#xd3;" horiz-adv-x="1410" 
d="M808 1849h225l-269 -293h-150zM1290 681q0 -325 -158 -513t-426 -188q-172 0 -305 83.5t-208 243.5t-75 374v93q0 323 162 512.5t424 189.5q268 0 427 -188.5t159 -513.5v-93zM1098 776q0 259 -103.5 398t-290.5 139q-181 0 -287 -140.5t-106 -396.5v-95
q0 -257 106.5 -398t288.5 -141q188 0 290 139t102 400v95z" />
    <glyph glyph-name="Ocircumflex" unicode="&#xd4;" horiz-adv-x="1410" 
d="M1011 1576v-10h-154l-150 170l-149 -170h-153v11l246 272h112zM1290 681q0 -325 -158 -513t-426 -188q-172 0 -305 83.5t-208 243.5t-75 374v93q0 323 162 512.5t424 189.5q268 0 427 -188.5t159 -513.5v-93zM1098 776q0 259 -103.5 398t-290.5 139q-181 0 -287 -140.5
t-106 -396.5v-95q0 -257 106.5 -398t288.5 -141q188 0 290 139t102 400v95z" />
    <glyph glyph-name="Otilde" unicode="&#xd5;" horiz-adv-x="1410" 
d="M1062 1817q0 -108 -61.5 -174.5t-154.5 -66.5q-46 0 -84 15t-59.5 32.5t-54.5 32.5t-70 15q-42 0 -70.5 -32.5t-28.5 -79.5l-125 7q0 108 61.5 177t153.5 69q47 0 92 -24t88.5 -48t87.5 -24q42 0 71 32.5t29 80.5zM1290 681q0 -325 -158 -513t-426 -188q-172 0 -305 83.5
t-208 243.5t-75 374v93q0 323 162 512.5t424 189.5q268 0 427 -188.5t159 -513.5v-93zM1098 776q0 259 -103.5 398t-290.5 139q-181 0 -287 -140.5t-106 -396.5v-95q0 -257 106.5 -398t288.5 -141q188 0 290 139t102 400v95z" />
    <glyph glyph-name="Odieresis" unicode="&#xd6;" horiz-adv-x="1410" 
d="M494 1791q52 0 81 -30t29 -76q0 -45 -29 -74.5t-81 -29.5t-81 29.5t-29 74.5q0 46 29 76t81 30zM924 1789q52 0 81.5 -30t29.5 -76q0 -45 -29.5 -74.5t-81.5 -29.5t-80.5 29.5t-28.5 74.5q0 46 28.5 76t80.5 30zM1290 681q0 -325 -158 -513t-426 -188q-172 0 -305 83.5
t-208 243.5t-75 374v93q0 323 162 512.5t424 189.5q268 0 427 -188.5t159 -513.5v-93zM1098 776q0 259 -103.5 398t-290.5 139q-181 0 -287 -140.5t-106 -396.5v-95q0 -257 106.5 -398t288.5 -141q188 0 290 139t102 400v95z" />
    <glyph glyph-name="multiply" unicode="&#xd7;" horiz-adv-x="1093" 
d="M990 326l-120 -122l-330 337l-331 -337l-120 122l331 337l-329 335l120 122l329 -335l328 335l120 -122l-329 -335z" />
    <glyph glyph-name="Oslash" unicode="&#xd8;" horiz-adv-x="1410" 
d="M1310 1516l-158 -255q138 -187 138 -487v-93q0 -325 -158 -513t-426 -188q-170 0 -301 82l-97 -155h-144l145 232q-191 193 -191 542v93q0 323 162 512.5t424 189.5q216 0 363 -124l102 164h141zM311 681q0 -242 97 -384l564 904q-100 112 -268 112q-181 0 -287 -140.5
t-106 -396.5v-95zM1098 776q0 185 -55 312l-548 -881q89 -65 211 -65q188 0 290 139t102 400v95z" />
    <glyph glyph-name="Ugrave" unicode="&#xd9;" horiz-adv-x="1328" 
d="M756 1554h-160l-259 293h226zM1195 1456v-985q0 -96 -28 -176.5t-77 -138t-116 -97.5t-145 -59.5t-163 -19.5q-113 0 -208 31t-166.5 91t-111.5 154.5t-40 214.5v985h192v-985q0 -166 89.5 -250.5t244.5 -84.5q156 0 245 84.5t89 250.5v985h195z" />
    <glyph glyph-name="Uacute" unicode="&#xda;" horiz-adv-x="1328" 
d="M768 1847h225l-269 -293h-150zM1195 1456v-985q0 -96 -28 -176.5t-77 -138t-116 -97.5t-145 -59.5t-163 -19.5q-113 0 -208 31t-166.5 91t-111.5 154.5t-40 214.5v985h192v-985q0 -166 89.5 -250.5t244.5 -84.5q156 0 245 84.5t89 250.5v985h195z" />
    <glyph glyph-name="Ucircumflex" unicode="&#xdb;" horiz-adv-x="1328" 
d="M971 1574v-10h-154l-150 170l-149 -170h-153v11l246 272h112zM1195 1456v-985q0 -96 -28 -176.5t-77 -138t-116 -97.5t-145 -59.5t-163 -19.5q-113 0 -208 31t-166.5 91t-111.5 154.5t-40 214.5v985h192v-985q0 -166 89.5 -250.5t244.5 -84.5q156 0 245 84.5t89 250.5
v985h195z" />
    <glyph glyph-name="Udieresis" unicode="&#xdc;" horiz-adv-x="1328" 
d="M454 1789q52 0 81 -30t29 -76q0 -45 -29 -74.5t-81 -29.5t-81 29.5t-29 74.5q0 46 29 76t81 30zM884 1787q52 0 81.5 -30t29.5 -76q0 -45 -29.5 -74.5t-81.5 -29.5t-80.5 29.5t-28.5 74.5q0 46 28.5 76t80.5 30zM1195 1456v-985q0 -96 -28 -176.5t-77 -138t-116 -97.5
t-145 -59.5t-163 -19.5q-113 0 -208 31t-166.5 91t-111.5 154.5t-40 214.5v985h192v-985q0 -166 89.5 -250.5t244.5 -84.5q156 0 245 84.5t89 250.5v985h195z" />
    <glyph glyph-name="Yacute" unicode="&#xdd;" horiz-adv-x="1230" 
d="M719 1846h225l-269 -293h-150zM614 724l378 732h220l-501 -912v-544h-195v544l-501 912h222z" />
    <glyph glyph-name="Thorn" unicode="&#xde;" horiz-adv-x="1210" 
d="M630 1163q230 0 359 -118t129 -307q0 -188 -129 -306t-359 -118h-277v-314h-187v1456h187v-293h277zM630 464q77 0 136.5 23t94.5 62.5t52.5 86.5t17.5 100q0 116 -75.5 196.5t-225.5 80.5h-277v-549h277z" />
    <glyph glyph-name="germandbls" unicode="&#xdf;" horiz-adv-x="1218" 
d="M325 0h-186v1112q0 214 107 328t287 114q171 0 274 -85t103 -252q0 -59 -13 -109t-32 -84.5t-38 -65t-32 -65.5t-13 -73q0 -43 26 -83.5t64.5 -71.5t84 -69t84 -74.5t64.5 -90.5t26 -114q0 -165 -105 -251t-280 -86q-82 0 -171 22t-128 51l42 153q45 -28 110 -52t127 -24
q111 0 164.5 49t53.5 129q0 52 -36 99t-87 87t-102 83.5t-87 106.5t-36 138q0 54 21.5 105.5t47.5 87t47.5 86t21.5 101.5q0 97 -53 149.5t-138 52.5q-105 0 -161.5 -72t-56.5 -220v-1112z" />
    <glyph glyph-name="agrave" unicode="&#xe0;" horiz-adv-x="1115" 
d="M671 1243h-160l-259 293h226zM965 236q0 -132 38 -220v-16h-195q-17 39 -26 113q-126 -133 -307 -133q-163 0 -264.5 91.5t-101.5 228.5q0 172 130 264t357 92h182v86q0 99 -58.5 155.5t-168.5 56.5q-101 0 -166.5 -51t-65.5 -121h-187q0 58 31 115t85.5 103t136.5 74
t177 28q183 0 293 -93t110 -269v-504zM502 140q95 0 169 48t107 115v223h-152q-160 0 -245 -50.5t-85 -149.5q0 -81 54 -133.5t152 -52.5z" />
    <glyph glyph-name="aacute" unicode="&#xe1;" horiz-adv-x="1115" 
d="M908 1536l-269 -293h-150l194 293h225zM965 236q0 -132 38 -220v-16h-195q-17 39 -26 113q-126 -133 -307 -133q-163 0 -264.5 91.5t-101.5 228.5q0 172 130 264t357 92h182v86q0 99 -58.5 155.5t-168.5 56.5q-101 0 -166.5 -51t-65.5 -121h-187q0 58 31 115t85.5 103
t136.5 74t177 28q183 0 293 -93t110 -269v-504zM502 140q95 0 169 48t107 115v223h-152q-160 0 -245 -50.5t-85 -149.5q0 -81 54 -133.5t152 -52.5z" />
    <glyph glyph-name="acircumflex" unicode="&#xe2;" horiz-adv-x="1115" 
d="M582 1423l-149 -170h-153v11l246 272h112l248 -273v-10h-154zM965 236q0 -132 38 -220v-16h-195q-17 39 -26 113q-126 -133 -307 -133q-163 0 -264.5 91.5t-101.5 228.5q0 172 130 264t357 92h182v86q0 99 -58.5 155.5t-168.5 56.5q-101 0 -166.5 -51t-65.5 -121h-187
q0 58 31 115t85.5 103t136.5 74t177 28q183 0 293 -93t110 -269v-504zM502 140q95 0 169 48t107 115v223h-152q-160 0 -245 -50.5t-85 -149.5q0 -81 54 -133.5t152 -52.5z" />
    <glyph glyph-name="atilde" unicode="&#xe3;" horiz-adv-x="1115" 
d="M453 1358q-42 0 -70.5 -32.5t-28.5 -79.5l-125 7q0 108 61.5 177t153.5 69q47 0 92 -24t88.5 -48t87.5 -24q42 0 71 32.5t29 80.5l125 -12q0 -108 -61.5 -174.5t-154.5 -66.5q-46 0 -84 15t-59.5 32.5t-54.5 32.5t-70 15zM965 236q0 -132 38 -220v-16h-195
q-17 39 -26 113q-126 -133 -307 -133q-163 0 -264.5 91.5t-101.5 228.5q0 172 130 264t357 92h182v86q0 99 -58.5 155.5t-168.5 56.5q-101 0 -166.5 -51t-65.5 -121h-187q0 58 31 115t85.5 103t136.5 74t177 28q183 0 293 -93t110 -269v-504zM502 140q95 0 169 48t107 115
v223h-152q-160 0 -245 -50.5t-85 -149.5q0 -81 54 -133.5t152 -52.5z" />
    <glyph glyph-name="adieresis" unicode="&#xe4;" horiz-adv-x="1115" 
d="M369 1268q-52 0 -81 29.5t-29 74.5q0 46 29 76t81 30t81 -30t29 -76q0 -45 -29 -74.5t-81 -29.5zM799 1266q-52 0 -80.5 29.5t-28.5 74.5q0 46 28.5 76t80.5 30t81.5 -30t29.5 -76q0 -45 -29.5 -74.5t-81.5 -29.5zM965 236q0 -132 38 -220v-16h-195q-17 39 -26 113
q-126 -133 -307 -133q-163 0 -264.5 91.5t-101.5 228.5q0 172 130 264t357 92h182v86q0 99 -58.5 155.5t-168.5 56.5q-101 0 -166.5 -51t-65.5 -121h-187q0 58 31 115t85.5 103t136.5 74t177 28q183 0 293 -93t110 -269v-504zM502 140q95 0 169 48t107 115v223h-152
q-160 0 -245 -50.5t-85 -149.5q0 -81 54 -133.5t152 -52.5z" />
    <glyph glyph-name="aring" unicode="&#xe5;" horiz-adv-x="1115" 
d="M582 1216q-92 0 -154 58t-62 145t62 147.5t154 60.5q91 0 153 -60.5t62 -147.5t-62 -145t-153 -58zM582 1538q-50 0 -83 -35.5t-33 -83.5q0 -46 33 -80.5t83 -34.5t83 34.5t33 80.5q0 48 -33 83.5t-83 35.5zM965 236q0 -132 38 -220v-16h-195q-17 39 -26 113
q-126 -133 -307 -133q-163 0 -264.5 91.5t-101.5 228.5q0 172 130 264t357 92h182v86q0 99 -58.5 155.5t-168.5 56.5q-101 0 -166.5 -51t-65.5 -121h-187q0 58 31 115t85.5 103t136.5 74t177 28q183 0 293 -93t110 -269v-504zM502 140q95 0 169 48t107 115v223h-152
q-160 0 -245 -50.5t-85 -149.5q0 -81 54 -133.5t152 -52.5z" />
    <glyph glyph-name="ae" unicode="&#xe6;" horiz-adv-x="1730" 
d="M1661 616v-117h-727q3 -79 23.5 -144.5t60 -116.5t102 -79.5t143.5 -28.5q56 0 104 9t90 28.5t63.5 32.5t57.5 37l65 -135q-150 -123 -380 -123q-261 0 -398 180q-58 -76 -167.5 -128t-264.5 -52q-169 0 -262 87.5t-93 237.5q0 159 115 245t334 86h221v85
q0 109 -55 170.5t-157 61.5q-109 0 -176.5 -56t-67.5 -136l-186 18q0 141 119.5 232.5t310.5 91.5q242 0 340 -165q63 79 151 122.5t191 42.5q213 0 328 -129.5t115 -356.5zM1474 640v31q0 124 -62 202.5t-194 78.5q-116 0 -189.5 -86.5t-90.5 -225.5h536zM470 129
q72 0 151 37.5t127 89.5v241h-219q-125 0 -194.5 -57t-69.5 -140q0 -76 52 -123.5t153 -47.5z" />
    <glyph glyph-name="ccedilla" unicode="&#xe7;" horiz-adv-x="1073" 
d="M574 130q100 0 173.5 60.5t81.5 151.5h177q-8 -140 -125 -245.5t-279 -115.5l-10 -44q153 -26 153 -173q0 -96 -79 -152.5t-225 -56.5l-7 106q74 0 120 24.5t46 74.5q0 49 -36 68.5t-125 26.5l31 134q-184 35 -281 181.5t-97 349.5v42q0 111 30 207.5t88.5 171.5t152 118
t211.5 43q187 0 305.5 -111t126.5 -281h-177q-8 104 -77.5 173t-177.5 69q-81 0 -141 -33.5t-92 -91.5t-47 -123.5t-15 -141.5v-42q0 -61 8.5 -114.5t29.5 -105t54 -88.5t85 -59.5t118 -22.5z" />
    <glyph glyph-name="egrave" unicode="&#xe8;" horiz-adv-x="1087" 
d="M654 1243h-160l-259 293h226zM1012 573v-83h-732q4 -155 90 -257.5t230 -102.5q173 0 285 147l113 -88q-137 -209 -408 -209q-224 0 -360.5 146.5t-136.5 376.5v43q0 128 39.5 235t106 176t151 107t176.5 38q114 0 200.5 -40t139.5 -112t79.5 -166.5t26.5 -210.5z
M825 640v14q-4 58 -18.5 108t-43 94.5t-79 70t-118.5 25.5q-111 0 -186 -82t-94 -230h539z" />
    <glyph glyph-name="eacute" unicode="&#xe9;" horiz-adv-x="1087" 
d="M891 1536l-269 -293h-150l194 293h225zM1012 573v-83h-732q4 -155 90 -257.5t230 -102.5q173 0 285 147l113 -88q-137 -209 -408 -209q-224 0 -360.5 146.5t-136.5 376.5v43q0 128 39.5 235t106 176t151 107t176.5 38q114 0 200.5 -40t139.5 -112t79.5 -166.5
t26.5 -210.5zM825 640v14q-4 58 -18.5 108t-43 94.5t-79 70t-118.5 25.5q-111 0 -186 -82t-94 -230h539z" />
    <glyph glyph-name="ecircumflex" unicode="&#xea;" horiz-adv-x="1087" 
d="M565 1423l-149 -170h-153v11l246 272h112l248 -273v-10h-154zM1012 573v-83h-732q4 -155 90 -257.5t230 -102.5q173 0 285 147l113 -88q-137 -209 -408 -209q-224 0 -360.5 146.5t-136.5 376.5v43q0 128 39.5 235t106 176t151 107t176.5 38q114 0 200.5 -40t139.5 -112
t79.5 -166.5t26.5 -210.5zM825 640v14q-4 58 -18.5 108t-43 94.5t-79 70t-118.5 25.5q-111 0 -186 -82t-94 -230h539z" />
    <glyph glyph-name="edieresis" unicode="&#xeb;" horiz-adv-x="1087" 
d="M352 1268q-52 0 -81 29.5t-29 74.5q0 46 29 76t81 30t81 -30t29 -76q0 -45 -29 -74.5t-81 -29.5zM782 1266q-52 0 -80.5 29.5t-28.5 74.5q0 46 28.5 76t80.5 30t81.5 -30t29.5 -76q0 -45 -29.5 -74.5t-81.5 -29.5zM1012 573v-83h-732q4 -155 90 -257.5t230 -102.5
q173 0 285 147l113 -88q-137 -209 -408 -209q-224 0 -360.5 146.5t-136.5 376.5v43q0 128 39.5 235t106 176t151 107t176.5 38q114 0 200.5 -40t139.5 -112t79.5 -166.5t26.5 -210.5zM825 640v14q-4 58 -18.5 108t-43 94.5t-79 70t-118.5 25.5q-111 0 -186 -82t-94 -230h539
z" />
    <glyph glyph-name="igrave" unicode="&#xec;" horiz-adv-x="508" 
d="M342 1241h-160l-259 293h226zM342 0h-186v1082h186v-1082z" />
    <glyph glyph-name="iacute" unicode="&#xed;" horiz-adv-x="508" 
d="M354 1534h225l-269 -293h-150zM342 0h-186v1082h186v-1082z" />
    <glyph glyph-name="icircumflex" unicode="&#xee;" horiz-adv-x="508" 
d="M557 1261v-10h-154l-150 170l-149 -170h-153v11l246 272h112zM342 0h-186v1082h186v-1082z" />
    <glyph glyph-name="idieresis" unicode="&#xef;" horiz-adv-x="508" 
d="M40 1476q52 0 81 -30t29 -76q0 -45 -29 -74.5t-81 -29.5t-81 29.5t-29 74.5q0 46 29 76t81 30zM470 1474q52 0 81.5 -30t29.5 -76q0 -45 -29.5 -74.5t-81.5 -29.5t-80.5 29.5t-28.5 74.5q0 46 28.5 76t80.5 30zM342 0h-186v1082h186v-1082z" />
    <glyph glyph-name="eth" unicode="&#xf0;" horiz-adv-x="1201" 
d="M820 1303q250 -264 250 -670v-98q0 -245 -132 -400t-336 -155q-208 0 -342 140.5t-134 347.5q0 228 126 369t322 141q164 0 282 -113q-48 197 -188 335l-217 -147l-74 99l192 130q-131 92 -315 140l58 159q239 -55 414 -193l189 128l73 -99zM883 535v100q0 10 -0.5 29
t-0.5 28q-31 58 -99 96.5t-165 38.5q-144 0 -224.5 -96t-80.5 -263q0 -85 33 -160.5t101.5 -126t158.5 -50.5q126 0 201.5 113.5t75.5 290.5z" />
    <glyph glyph-name="ntilde" unicode="&#xf1;" horiz-adv-x="1131" 
d="M444 1358q-42 0 -70.5 -32.5t-28.5 -79.5l-125 7q0 108 61.5 177t153.5 69q47 0 92 -24t88.5 -48t87.5 -24q42 0 71 32.5t29 80.5l125 -12q0 -108 -61.5 -174.5t-154.5 -66.5q-46 0 -84 15t-59.5 32.5t-54.5 32.5t-70 15zM645 1102q347 0 347 -393v-709h-187v711
q0 124 -53.5 180t-161.5 56q-86 0 -154.5 -47t-108.5 -126v-774h-187v1082h177l6 -133q123 153 322 153z" />
    <glyph glyph-name="ograve" unicode="&#xf2;" horiz-adv-x="1169" 
d="M664 1243h-160l-259 293h226zM92 552q0 157 59 281t171.5 196.5t260.5 72.5q150 0 263 -72.5t172 -196.5t59 -281v-23q0 -239 -134 -394t-358 -155t-358.5 155t-134.5 394v23zM279 529q0 -110 33 -199t103.5 -144.5t169.5 -55.5q98 0 168.5 55.5t103.5 144.5t33 199v23
q0 110 -33 198.5t-104 145t-170 56.5q-98 0 -168 -56.5t-103 -145t-33 -198.5v-23z" />
    <glyph glyph-name="oacute" unicode="&#xf3;" horiz-adv-x="1169" 
d="M676 1536h225l-269 -293h-150zM92 552q0 157 59 281t171.5 196.5t260.5 72.5q150 0 263 -72.5t172 -196.5t59 -281v-23q0 -239 -134 -394t-358 -155t-358.5 155t-134.5 394v23zM279 529q0 -110 33 -199t103.5 -144.5t169.5 -55.5q98 0 168.5 55.5t103.5 144.5t33 199v23
q0 110 -33 198.5t-104 145t-170 56.5q-98 0 -168 -56.5t-103 -145t-33 -198.5v-23z" />
    <glyph glyph-name="ocircumflex" unicode="&#xf4;" horiz-adv-x="1169" 
d="M879 1263v-10h-154l-150 170l-149 -170h-153v11l246 272h112zM92 552q0 157 59 281t171.5 196.5t260.5 72.5q150 0 263 -72.5t172 -196.5t59 -281v-23q0 -239 -134 -394t-358 -155t-358.5 155t-134.5 394v23zM279 529q0 -110 33 -199t103.5 -144.5t169.5 -55.5
q98 0 168.5 55.5t103.5 144.5t33 199v23q0 110 -33 198.5t-104 145t-170 56.5q-98 0 -168 -56.5t-103 -145t-33 -198.5v-23z" />
    <glyph glyph-name="otilde" unicode="&#xf5;" horiz-adv-x="1169" 
d="M930 1504q0 -108 -61.5 -174.5t-154.5 -66.5q-46 0 -84 15t-59.5 32.5t-54.5 32.5t-70 15q-42 0 -70.5 -32.5t-28.5 -79.5l-125 7q0 108 61.5 177t153.5 69q47 0 92 -24t88.5 -48t87.5 -24q42 0 71 32.5t29 80.5zM92 552q0 157 59 281t171.5 196.5t260.5 72.5
q150 0 263 -72.5t172 -196.5t59 -281v-23q0 -239 -134 -394t-358 -155t-358.5 155t-134.5 394v23zM279 529q0 -110 33 -199t103.5 -144.5t169.5 -55.5q98 0 168.5 55.5t103.5 144.5t33 199v23q0 110 -33 198.5t-104 145t-170 56.5q-98 0 -168 -56.5t-103 -145t-33 -198.5
v-23z" />
    <glyph glyph-name="odieresis" unicode="&#xf6;" horiz-adv-x="1169" 
d="M362 1478q52 0 81 -30t29 -76q0 -45 -29 -74.5t-81 -29.5t-81 29.5t-29 74.5q0 46 29 76t81 30zM792 1476q52 0 81.5 -30t29.5 -76q0 -45 -29.5 -74.5t-81.5 -29.5t-80.5 29.5t-28.5 74.5q0 46 28.5 76t80.5 30zM92 552q0 157 59 281t171.5 196.5t260.5 72.5
q150 0 263 -72.5t172 -196.5t59 -281v-23q0 -239 -134 -394t-358 -155t-358.5 155t-134.5 394v23zM279 529q0 -110 33 -199t103.5 -144.5t169.5 -55.5q98 0 168.5 55.5t103.5 144.5t33 199v23q0 110 -33 198.5t-104 145t-170 56.5q-98 0 -168 -56.5t-103 -145t-33 -198.5
v-23z" />
    <glyph glyph-name="divide" unicode="&#xf7;" horiz-adv-x="1170" 
d="M576 1210q55 0 85.5 -31.5t30.5 -80.5q0 -48 -31 -78.5t-85 -30.5q-55 0 -85 30.5t-30 78.5q0 49 30 80.5t85 31.5zM1069 601h-998v183h998v-183zM576 393q55 0 85.5 -31t30.5 -80q0 -48 -31 -78.5t-85 -30.5q-55 0 -85 30.5t-30 78.5q0 49 30 80t85 31z" />
    <glyph glyph-name="oslash" unicode="&#xf8;" horiz-adv-x="1161" 
d="M883 1004q93 -74 143.5 -191.5t50.5 -260.5v-23q0 -239 -134 -394t-358 -155q-103 0 -190 35l-74 -150h-124l101 204q-98 73 -152 193t-54 267v23q0 157 59 281t171.5 196.5t260.5 72.5q113 0 204 -41l73 148h124zM279 529q0 -193 95 -305l343 696q-61 32 -134 32
q-98 0 -168 -56.5t-103 -145t-33 -198.5v-23zM890 529v23q0 180 -86 292l-340 -689q55 -25 121 -25q98 0 168.5 55.5t103.5 144.5t33 199z" />
    <glyph glyph-name="ugrave" unicode="&#xf9;" horiz-adv-x="1129" 
d="M656 1243h-160l-259 293h226zM802 1082h187v-1082h-178l-4 106q-107 -126 -316 -126q-167 0 -261 98t-94 306v698h187v-700q0 -246 198 -246q210 0 281 156v790z" />
    <glyph glyph-name="uacute" unicode="&#xfa;" horiz-adv-x="1129" 
d="M893 1536l-269 -293h-150l194 293h225zM802 1082h187v-1082h-178l-4 106q-107 -126 -316 -126q-167 0 -261 98t-94 306v698h187v-700q0 -246 198 -246q210 0 281 156v790z" />
    <glyph glyph-name="ucircumflex" unicode="&#xfb;" horiz-adv-x="1129" 
d="M567 1423l-149 -170h-153v11l246 272h112l248 -273v-10h-154zM802 1082h187v-1082h-178l-4 106q-107 -126 -316 -126q-167 0 -261 98t-94 306v698h187v-700q0 -246 198 -246q210 0 281 156v790z" />
    <glyph glyph-name="udieresis" unicode="&#xfc;" horiz-adv-x="1129" 
d="M354 1268q-52 0 -81 29.5t-29 74.5q0 46 29 76t81 30t81 -30t29 -76q0 -45 -29 -74.5t-81 -29.5zM784 1266q-52 0 -80.5 29.5t-28.5 74.5q0 46 28.5 76t80.5 30t81.5 -30t29.5 -76q0 -45 -29.5 -74.5t-81.5 -29.5zM802 1082h187v-1082h-178l-4 106q-107 -126 -316 -126
q-167 0 -261 98t-94 306v698h187v-700q0 -246 198 -246q210 0 281 156v790z" />
    <glyph glyph-name="yacute" unicode="&#xfd;" horiz-adv-x="969" 
d="M834 1536l-269 -293h-150l194 293h225zM745 1082h199l-434 -1249q-98 -270 -321 -270q-52 0 -105 16v149q27 -5 50 -5q95 0 147.5 39.5t85.5 138.5l40 110l-385 1071h204l268 -808z" />
    <glyph glyph-name="thorn" unicode="&#xfe;" horiz-adv-x="1181" 
d="M642 1102q201 0 312 -150t111 -402v-21q0 -243 -112 -396t-308 -153t-309 124v-520h-187v1952h187v-563q113 129 306 129zM878 529v21q0 173 -74 285t-217 112q-168 0 -251 -149v-521q85 -147 253 -147q96 0 162.5 55.5t96.5 143.5t30 200z" />
    <glyph glyph-name="ydieresis" unicode="&#xff;" horiz-adv-x="969" 
d="M295 1268q-52 0 -81 29.5t-29 74.5q0 46 29 76t81 30t81 -30t29 -76q0 -45 -29 -74.5t-81 -29.5zM725 1266q-52 0 -80.5 29.5t-28.5 74.5q0 46 28.5 76t80.5 30t81.5 -30t29.5 -76q0 -45 -29.5 -74.5t-81.5 -29.5zM745 1082h199l-434 -1249q-98 -270 -321 -270
q-52 0 -105 16v149q27 -5 50 -5q95 0 147.5 39.5t85.5 138.5l40 110l-385 1071h204l268 -808z" />
    <glyph glyph-name="dotlessi" unicode="&#x131;" horiz-adv-x="508" 
d="M342 0h-186v1082h186v-1082z" />
    <glyph glyph-name="OE" unicode="&#x152;" horiz-adv-x="1954" 
d="M1070 156h731v-156h-847q-189 -21 -292 -21q-248 0 -402.5 166t-154.5 431v304q0 265 153.5 431t401.5 166q122 0 294 -21h837v-157h-721v-469h629v-156h-629v-518zM292 576q0 -215 99 -331t271 -116q102 0 214 15v1167q-113 15 -216 15q-172 0 -270 -115t-98 -329v-306z
" />
    <glyph glyph-name="oe" unicode="&#x153;" horiz-adv-x="1859" 
d="M1791 620v-121h-716q6 -161 85 -265t218 -104q190 0 309 108l73 -125q-134 -134 -382 -134q-132 0 -235 55.5t-167 156.5q-62 -101 -162.5 -156.5t-231.5 -55.5q-148 0 -259.5 72.5t-168.5 196.5t-57 281v23q0 157 57 281t167.5 196.5t258.5 72.5q132 0 234 -56.5
t164 -158.5q65 102 163 159t209 56q216 0 328.5 -131t112.5 -351zM878 529v23q0 65 -11 123.5t-35 109.5t-58.5 88t-84 58t-109.5 21q-98 0 -166.5 -56.5t-99 -145t-30.5 -198.5v-23q0 -111 31 -199t99.5 -144t167.5 -56q98 0 166.5 56t99 144t30.5 199zM1604 649v26
q0 118 -64.5 197.5t-189.5 79.5q-102 0 -175.5 -85t-93.5 -218h523z" />
    <glyph glyph-name="longs" unicode="&#x17f;" horiz-adv-x="509" 
d="M160 0v1197q0 172 90 266t250 94q59 0 143 -21l-23 -141q-41 12 -91 12q-88 0 -135 -55.5t-47 -154.5v-1197h-187z" />
    <glyph glyph-name="circumflex" unicode="&#x2c6;" horiz-adv-x="966" 
d="M776 1263v-10h-154l-150 170l-149 -170h-153v11l246 272h112z" />
    <glyph glyph-name="ring" unicode="&#x2da;" horiz-adv-x="687" 
d="M337 1616q91 0 153 -60.5t62 -147.5t-62 -145t-153 -58q-92 0 -154 58t-62 145t62 147.5t154 60.5zM337 1293q50 0 83 34.5t33 80.5q0 48 -33 83.5t-83 35.5t-83 -35.5t-33 -83.5q0 -46 33 -80.5t83 -34.5z" />
    <glyph glyph-name="tilde" unicode="&#x2dc;" horiz-adv-x="968" 
d="M832 1500q0 -108 -61.5 -174.5t-154.5 -66.5q-46 0 -84 15t-59.5 32.5t-54.5 32.5t-70 15q-42 0 -70.5 -32.5t-28.5 -79.5l-125 7q0 108 61.5 177t153.5 69q47 0 92 -24t88.5 -48t87.5 -24q42 0 71 32.5t29 80.5z" />
    <glyph glyph-name="gravecomb" unicode="&#x300;" horiz-adv-x="0" 
d="M-440 1243h-160l-259 293h226z" />
    <glyph glyph-name="acutecomb" unicode="&#x301;" horiz-adv-x="0" 
d="M-465 1536h225l-269 -293h-150z" />
    <glyph glyph-name="tildecomb" unicode="&#x303;" horiz-adv-x="0" 
d="M-178 1500q0 -108 -61.5 -174.5t-154.5 -66.5q-46 0 -84 15t-59.5 32.5t-54.5 32.5t-70 15q-42 0 -70.5 -32.5t-28.5 -79.5l-125 7q0 108 61.5 177t153.5 69q47 0 92 -24t88.5 -48t87.5 -24q42 0 71 32.5t29 80.5z" />
    <glyph glyph-name="alpha" unicode="&#x3b1;" horiz-adv-x="1158" 
d="M1121 149l23 -136q-49 -34 -124 -34q-146 0 -185 163q-107 -163 -314 -163q-197 0 -309 144t-112 378v21q0 172 48.5 302t145 204t229.5 74q201 0 309 -159l17 139h158v-787q0 -151 80 -151q11 0 34 5zM567 129q169 0 253 184v453q-85 186 -251 186q-73 0 -128.5 -34
t-88.5 -94t-49 -136t-16 -166v-21q0 -166 69 -269t211 -103z" />
    <glyph glyph-name="uni05B0" unicode="&#x5b0;" horiz-adv-x="0" 
d="M597 -316q-33 0 -55.5 21t-22.5 52t22.5 52t55.5 21q34 0 56 -20.5t22 -52.5q0 -31 -22 -52t-56 -21zM597 -547q-33 0 -55.5 21t-22.5 52t22.5 52t55.5 21q34 0 56 -20.5t22 -52.5q0 -31 -22 -52t-56 -21z" />
    <glyph glyph-name="uni05B1" unicode="&#x5b1;" horiz-adv-x="0" 
d="M369 -316q-33 0 -55.5 21t-22.5 52t22.5 52t55.5 21q34 0 56 -20.5t22 -52.5q0 -31 -22 -52t-56 -21zM597 -316q-33 0 -55.5 21t-22.5 52t22.5 52t55.5 21q34 0 56 -20.5t22 -52.5q0 -31 -22 -52t-56 -21zM828 -316q-34 0 -56.5 21t-22.5 52t22.5 52t56.5 21q33 0 55 -21
t22 -52t-22 -52t-55 -21zM484 -512q-34 0 -56.5 20.5t-22.5 51.5q0 32 22.5 53t56.5 21q33 0 55.5 -21.5t22.5 -52.5t-22.5 -51.5t-55.5 -20.5zM828 -547q-34 0 -56.5 21t-22.5 52t22.5 52t56.5 21q33 0 55 -21t22 -52t-22 -52t-55 -21z" />
    <glyph glyph-name="uni05B2" unicode="&#x5b2;" horiz-adv-x="0" 
d="M818 -316q-34 0 -56.5 21t-22.5 52t22.5 52t56.5 21q33 0 55.5 -21t22.5 -52t-22.5 -52t-55.5 -21zM301 -289v94h367v-94h-367zM818 -547q-34 0 -56.5 21t-22.5 52t22.5 52t56.5 21q33 0 55.5 -21t22.5 -52t-22.5 -52t-55.5 -21z" />
    <glyph glyph-name="uni05B3" unicode="&#x5b3;" horiz-adv-x="0" 
d="M818 -316q-34 0 -56.5 21t-22.5 52t22.5 52t56.5 21q33 0 55.5 -21t22.5 -52t-22.5 -52t-55.5 -21zM488 -530q-33 0 -55.5 21.5t-22.5 51.5q0 19 10 37.5t21.5 50t14.5 80.5h-156v94h371v-94h-152q3 -49 14.5 -80.5t21.5 -50t10 -37.5q0 -31 -22 -52t-55 -21zM818 -547
q-34 0 -56.5 21t-22.5 52t22.5 52t56.5 21q33 0 55.5 -21t22.5 -52t-22.5 -52t-55.5 -21z" />
    <glyph glyph-name="uni05B4" unicode="&#x5b4;" horiz-adv-x="0" 
d="M597 -316q-32 0 -55 22t-23 51q0 31 22.5 52t55.5 21q34 0 56 -20.5t22 -52.5q0 -31 -22 -52t-56 -21z" />
    <glyph glyph-name="uni05B5" unicode="&#x5b5;" horiz-adv-x="0" 
d="M484 -316q-33 0 -56 22t-23 51q0 31 22.5 52t56.5 21q33 0 55.5 -21t22.5 -52t-22.5 -52t-55.5 -21zM711 -316q-33 0 -56 22t-23 51q0 31 23 52t56 21q34 0 56 -20.5t22 -52.5q0 -31 -22 -52t-56 -21z" />
    <glyph glyph-name="uni05B6" unicode="&#x5b6;" horiz-adv-x="0" 
d="M484 -316q-33 0 -56 22t-23 51q0 31 22.5 52t56.5 21q33 0 55.5 -21t22.5 -52t-22.5 -52t-55.5 -21zM711 -316q-33 0 -56 22t-23 51q0 31 23 52t56 21q34 0 56 -20.5t22 -52.5q0 -31 -22 -52t-56 -21zM597 -512q-33 0 -55.5 20.5t-22.5 51.5t22.5 52.5t55.5 21.5
q34 0 56 -21t22 -53q0 -31 -22 -51.5t-56 -20.5z" />
    <glyph glyph-name="uni05B7" unicode="&#x5b7;" horiz-adv-x="0" 
d="M395 -289v94h404v-94h-404z" />
    <glyph glyph-name="uni05B8" unicode="&#x5b8;" horiz-adv-x="0" 
d="M600 -535q-33 0 -56 22t-23 51q0 19 10 37.5t22 51.5t15 84h-159v94h377v-94h-155q3 -51 15 -84t22 -51.5t10 -37.5q0 -31 -22.5 -52t-55.5 -21z" />
    <glyph glyph-name="uni05B9" unicode="&#x5b9;" horiz-adv-x="0" 
d="M261 1331q-33 0 -56 21.5t-23 50.5q0 31 22.5 52t56.5 21t56.5 -21t22.5 -52t-22.5 -51.5t-56.5 -20.5z" />
    <glyph glyph-name="uni05BA" unicode="&#x5ba;" horiz-adv-x="0" 
d="M261 1331q-33 0 -56 21.5t-23 50.5q0 31 22.5 52t56.5 21t56.5 -21t22.5 -52t-22.5 -51.5t-56.5 -20.5z" />
    <glyph glyph-name="uni05BB" unicode="&#x5bb;" horiz-adv-x="0" 
d="M598 -316q-32 0 -55 22t-23 51q0 31 22.5 52t55.5 21q34 0 56 -20.5t22 -52.5q0 -31 -22 -52t-56 -21zM724 -501q-33 0 -56 21.5t-23 50.5q0 32 22.5 53t56.5 21q33 0 55.5 -21.5t22.5 -52.5t-22.5 -51.5t-55.5 -20.5zM849 -687q-32 0 -55 22t-23 51q0 31 22.5 52.5
t55.5 21.5q34 0 56 -21t22 -53q0 -31 -22 -52t-56 -21z" />
    <glyph glyph-name="uni05BC" unicode="&#x5bc;" horiz-adv-x="0" 
d="M316 525q-33 0 -55.5 22t-22.5 52q0 31 22.5 52t55.5 21q34 0 56.5 -21t22.5 -52q0 -32 -22.5 -53t-56.5 -21z" />
    <glyph glyph-name="uni05BE" unicode="&#x5be;" horiz-adv-x="517" 
d="M457 1029h-397v149h397v-149z" />
    <glyph glyph-name="uni05BF" unicode="&#x5bf;" horiz-adv-x="0" 
d="M240 1357v107h487v-107h-487z" />
    <glyph glyph-name="uni05C1" unicode="&#x5c1;" horiz-adv-x="0" 
d="M1328 1331q-33 0 -56 21.5t-23 50.5q0 31 22.5 52t56.5 21q33 0 55.5 -21t22.5 -52t-22.5 -51.5t-55.5 -20.5z" />
    <glyph glyph-name="uni05C2" unicode="&#x5c2;" horiz-adv-x="0" 
d="M238 1331q-33 0 -55.5 21.5t-22.5 50.5q0 31 22.5 52t55.5 21q34 0 56.5 -21t22.5 -52t-22.5 -51.5t-56.5 -20.5z" />
    <glyph glyph-name="uni05D0" unicode="&#x5d0;" horiz-adv-x="1314" 
d="M1218 1178l-378 -662l373 -516h-207l-525 725q-107 -69 -107 -231v-494h-180v427q0 153 52 250.5t162 148.5l-256 352h208l365 -504l284 504h209z" />
    <glyph glyph-name="uni05D1" unicode="&#x5d1;" horiz-adv-x="1079" 
d="M886 157l143 -15v-142h-968v150h640v589q0 153 -68.5 221.5t-222.5 68.5h-285v149h295q231 0 348.5 -112t117.5 -332v-577z" />
    <glyph glyph-name="uni05D2" unicode="&#x5d2;" horiz-adv-x="792" 
d="M67 -8q-32 0 -47 3v171q27 -4 58 -4q144 4 234 87.5t115 214.5v565h-266v149h449v-608q0 -93 19 -180l82 -390h-175l-69 330h-7q-19 -137 -130.5 -237.5t-262.5 -100.5z" />
    <glyph glyph-name="uni05D3" unicode="&#x5d3;" horiz-adv-x="1067" 
d="M60 1178h943v-149h-197v-1029h-186v1029h-560v149z" />
    <glyph glyph-name="uni05D4" unicode="&#x5d4;" horiz-adv-x="1204" 
d="M866 0v739q0 153 -69 221.5t-222 68.5h-427v149h436q231 0 349.5 -112t118.5 -332v-734h-186zM150 0v402q0 64 9 115.5t18 75.5t25 58h152q-24 -90 -24 -237v-414h-180z" />
    <glyph glyph-name="uni05D5" unicode="&#x5d5;" horiz-adv-x="604" 
d="M237 0v1029h-137v149h323v-1178h-186z" />
    <glyph glyph-name="uni05D6" unicode="&#x5d6;" horiz-adv-x="724" 
d="M319 0l-160 1021l-83 14v143h572l-1 -149h-304l167 -1029h-191z" />
    <glyph glyph-name="uni05D7" unicode="&#x5d7;" horiz-adv-x="1243" 
d="M181 0l1 1178h443q234 0 349 -111.5t116 -339.5v-727h-185v738q0 153 -66 222t-212 69h-260l-1 -1029h-185z" />
    <glyph glyph-name="uni05D8" unicode="&#x5d8;" horiz-adv-x="1263" 
d="M652 -22q-212 0 -341.5 130t-129.5 343v727h185v-740q0 -140 78.5 -226t206.5 -86t206 86t78 226v395q0 96 -42.5 148.5t-120.5 52.5q-65 0 -144 -38l-29 124q108 69 227 69q137 0 216 -91.5t79 -249.5v-397q0 -213 -129 -343t-340 -130z" />
    <glyph glyph-name="uni05D9" unicode="&#x5d9;" horiz-adv-x="618" 
d="M271 521v508h-216v149h402v-657h-186z" />
    <glyph glyph-name="uni05DA" unicode="&#x5da;" horiz-adv-x="1014" 
d="M651 -416v1445h-586v149h769v-1594h-183z" />
    <glyph glyph-name="uni05DB" unicode="&#x5db;" horiz-adv-x="1101" 
d="M414 -17q-150 0 -333 53l30 139q165 -45 290 -43q163 3 248.5 84t85.5 231v582h-613v149h798v-691q0 -251 -133.5 -378t-372.5 -126z" />
    <glyph glyph-name="uni05DC" unicode="&#x5dc;" horiz-adv-x="1052" 
d="M978 1178v-117l-432 -1061h-199l427 1029h-691v507h185v-358h710z" />
    <glyph glyph-name="uni05DD" unicode="&#x5dd;" horiz-adv-x="1301" 
d="M180 0v1178h940v-1178h-940zM365 150h570v879h-570v-879z" />
    <glyph glyph-name="uni05DE" unicode="&#x5de;" horiz-adv-x="1299" 
d="M171 0l90 749q10 82 46.5 154.5t85.5 111.5q4 3 20 14l-2 3q-109 -18 -236 -62l-43 140q116 40 260 65t265 25q238 0 363.5 -126.5t126.5 -371.5v-702h-485v149h300v574q0 157 -71 239t-206 82q-97 0 -162 -74.5t-80 -202.5l-89 -767h-183z" />
    <glyph glyph-name="uni05DF" unicode="&#x5df;" horiz-adv-x="589" 
d="M225 -416v1445h-139v149h322v-1594h-183z" />
    <glyph glyph-name="uni05E0" unicode="&#x5e0;" horiz-adv-x="742" 
d="M251 -20q-92 0 -191 22l5 145q65 -13 146 -13q164 0 164 192v703h-231v149h417v-867q0 -162 -80 -246.5t-230 -84.5z" />
    <glyph glyph-name="uni05E1" unicode="&#x5e1;" horiz-adv-x="1305" 
d="M668 -22q-221 0 -358.5 148.5t-139.5 392.5v120q-1 116 47 224.5t120 157.5q8 6 14 8l-1 3q-53 -6 -211 -49l-36 140q117 35 264 56t271 21q247 0 387.5 -143t140.5 -397v-141q0 -244 -137 -392.5t-361 -148.5zM668 135q141 0 227.5 105.5t86.5 277.5v140
q0 179 -87.5 282.5t-237.5 103.5q-135 0 -216 -106t-85 -289v-131q0 -172 86 -277.5t226 -105.5z" />
    <glyph glyph-name="uni05E2" unicode="&#x5e2;" horiz-adv-x="1185" 
d="M819 1178h185v-706q0 -238 -143 -367.5t-381 -129.5q-201 0 -419 83l45 138q167 -66 313 -77q-74 88 -99 200l-195 859h186l191 -869q25 -118 61 -180q120 26 188 112t68 224v713z" />
    <glyph glyph-name="uni05E3" unicode="&#x5e3;" horiz-adv-x="1215" 
d="M1034 1178v-1594h-183v1445h-404q-32 -55 -52 -142t-20 -170v-136q43 -18 157 -18v-160q-124 0 -195 14.5t-143 52.5l-3 197q-2 100 24 199t71 163h-143v149h891z" />
    <glyph glyph-name="uni05E4" unicode="&#x5e4;" horiz-adv-x="1284" 
d="M583 -20q-189 0 -384 67l36 139q180 -54 341 -54q164 2 253 83t89 232v582h-472q-32 -55 -51.5 -139.5t-19.5 -168.5v-90q42 -18 156 -18v-160q-124 0 -195 14.5t-142 52.5l-4 152q0 101 25.5 197.5t69.5 159.5h-143v149h961v-696q0 -248 -142 -376t-378 -126z" />
    <glyph glyph-name="uni05E5" unicode="&#x5e5;" horiz-adv-x="1096" 
d="M689 540l24 -34q57 -83 57 -209v-713h-175v730q0 79 -38 135l-498 729h209l312 -477l263 477h209z" />
    <glyph glyph-name="uni05E6" unicode="&#x5e6;" horiz-adv-x="1119" 
d="M1052 1178l-361 -635l311 -449v-94h-872v150h633l-704 1028h209l314 -474l261 474h209z" />
    <glyph glyph-name="uni05E7" unicode="&#x5e7;" horiz-adv-x="1273" 
d="M577 0v146q150 5 239.5 94t89.5 242v547h-727v149h913v-692q0 -222 -140 -351.5t-375 -134.5zM202 -416v858q0 63 9 114t18 75t25 58h152q-24 -85 -24 -236v-869h-180z" />
    <glyph glyph-name="uni05E8" unicode="&#x5e8;" horiz-adv-x="1005" 
d="M667 0v822q0 96 -56.5 151.5t-154.5 55.5h-396v149h402q183 0 286.5 -98t103.5 -272v-808h-185z" />
    <glyph glyph-name="uni05E9" unicode="&#x5e9;" horiz-adv-x="1626" 
d="M361 1178v-969q205 -87 404 -87q107 0 197 23t158 68t106.5 118t38.5 167v680h180v-697q0 -101 -35 -185t-96.5 -143t-146 -100.5t-183.5 -61t-210 -19.5q-309 0 -593 136v1070h180zM644 325q75 79 75 267v586h181v-553q0 -203 -102 -306z" />
    <glyph glyph-name="uni05EA" unicode="&#x5ea;" horiz-adv-x="1279" 
d="M662 1178q234 0 349.5 -111.5t115.5 -339.5v-727h-185l-1 738q0 153 -65.5 222t-211.5 69h-167q-33 -54 -52.5 -138.5t-19.5 -173.5v-397q0 -162 -77 -246t-224 -84q-43 0 -115 9v149q32 -4 69 -4q87 0 126.5 45t39.5 142v372q0 91 24 181.5t66 144.5h-221v149h549z" />
    <glyph glyph-name="uni05F0" unicode="&#x5f0;" horiz-adv-x="1208" 
d="M237 0v1029h-137v149h323v-1178h-186zM841 0v1029h-137v149h323v-1178h-186z" />
    <glyph glyph-name="uni05F1" unicode="&#x5f1;" horiz-adv-x="1222" 
d="M237 0v1029h-137v149h323v-1178h-186zM875 521v508h-216v149h402v-657h-186z" />
    <glyph glyph-name="uni05F2" unicode="&#x5f2;" horiz-adv-x="1236" 
d="M271 521v508h-216v149h402v-657h-186zM889 521v508h-216v149h402v-657h-186z" />
    <glyph glyph-name="uni05F3" unicode="&#x5f3;" horiz-adv-x="343" 
d="M127 899l-112 53q94 126 94 278v195h169l-1 -181q0 -99 -41 -191t-109 -154z" />
    <glyph glyph-name="uni05F4" unicode="&#x5f4;" horiz-adv-x="672" 
d="M140 899l-113 53q94 124 94 278v195h169v-181q0 -98 -41.5 -190t-108.5 -155zM442 899l-113 53q94 124 94 278v195h169l-1 -181q0 -99 -41 -190.5t-108 -154.5z" />
    <glyph glyph-name="uni1E9E" unicode="&#x1e9e;" horiz-adv-x="1323" 
d="M764 846q224 -11 345.5 -124t121.5 -314t-135.5 -315t-356.5 -114q-147 0 -281 50l54 152q108 -51 227 -51q142 0 224 75.5t82 198.5q0 153 -82 225t-248 72h-147v150l307 373q-126 102 -282 102q-64 0 -111.5 -19.5t-76 -51.5t-46 -81t-24 -99.5t-6.5 -114.5v-960h-186
v962q2 514 450 514q151 0 272 -59.5t231 -164.5z" />
    <glyph glyph-name="uni200C" unicode="&#x200c;" horiz-adv-x="0" 
d="M-644 1275h117v-1475h-117v1475z" />
    <glyph glyph-name="uni200D" unicode="&#x200d;" horiz-adv-x="0" 
d="M-316 1413l-182 -186l182 -185l-87 -87l-127 130v-1285h-116v1276l-118 -121l-88 87l182 185l-182 186l87 87l181 -185l182 185z" />
    <glyph glyph-name="uni200E" unicode="&#x200e;" horiz-adv-x="0" 
d="M-445 1456l238 -240l-248 -222h-165l190 164h-268v-1358h-117v1475h396l-192 181h166z" />
    <glyph glyph-name="uni200F" unicode="&#x200f;" horiz-adv-x="0" 
d="M-268 1275v-1475h-117v1358h-268l190 -164h-165l-248 222l238 240h166l-192 -181h396z" />
    <glyph glyph-name="endash" unicode="&#x2013;" horiz-adv-x="1344" 
d="M1164 652h-1002v150h1002v-150z" />
    <glyph glyph-name="emdash" unicode="&#x2014;" horiz-adv-x="1599" 
d="M1480 652h-1336v150h1336v-150z" />
    <glyph glyph-name="quoteleft" unicode="&#x2018;" horiz-adv-x="411" 
d="M96 1195q0 94 47 194.5t129 166.5l106 -72q-97 -135 -97 -286v-124h-185v121z" />
    <glyph glyph-name="quoteright" unicode="&#x2019;" horiz-adv-x="411" 
d="M329 1408q0 -94 -47 -194.5t-128 -166.5l-106 72q96 134 96 287v130h185v-128z" />
    <glyph glyph-name="quotesinglbase" unicode="&#x201a;" horiz-adv-x="409" 
d="M317 79q0 -94 -47 -194.5t-128 -166.5l-106 72q95 133 95 286v107h186v-104z" />
    <glyph glyph-name="quotedblleft" unicode="&#x201c;" horiz-adv-x="727" 
d="M105 1195q0 94 47 194.5t129 166.5l106 -72q-97 -135 -97 -286v-124h-185v121zM421 1195q0 94 47 194.5t129 166.5l106 -72q-97 -135 -97 -286v-124h-185v121z" />
    <glyph glyph-name="quotedblright" unicode="&#x201d;" horiz-adv-x="734" 
d="M341 1408q0 -94 -47 -194.5t-128 -166.5l-106 72q96 134 96 287v130h185v-128zM649 1408q0 -94 -47 -194.5t-128 -166.5l-106 72q96 134 96 287v130h185v-128z" />
    <glyph glyph-name="quotedblbase" unicode="&#x201e;" horiz-adv-x="709" 
d="M317 79q0 -99 -47 -204.5t-128 -174.5l-106 72q95 140 95 304v170h186v-167zM615 79q0 -99 -47 -204.5t-128 -174.5l-106 72q94 141 94 304v170h187v-167z" />
    <glyph glyph-name="bullet" unicode="&#x2022;" horiz-adv-x="691" 
d="M139 772q0 88 55.5 143t147.5 55q94 0 149.5 -55t55.5 -143v-40q0 -88 -55 -142t-149 -54q-93 0 -148.5 54.5t-55.5 141.5v40z" />
    <glyph glyph-name="ellipsis" unicode="&#x2026;" horiz-adv-x="1371" 
d="M262 209q55 0 85.5 -31.5t30.5 -80.5q0 -48 -30.5 -78t-85.5 -30q-54 0 -84.5 30.5t-30.5 77.5q0 49 30.5 80.5t84.5 31.5zM700 209q55 0 85.5 -31.5t30.5 -80.5q0 -48 -30.5 -78t-85.5 -30q-54 0 -84.5 30.5t-30.5 77.5q0 49 30.5 80.5t84.5 31.5zM1116 209
q55 0 85.5 -31.5t30.5 -80.5q0 -48 -30.5 -78t-85.5 -30q-54 0 -84.5 30.5t-30.5 77.5q0 49 30.5 80.5t84.5 31.5z" />
    <glyph glyph-name="guilsinglleft" unicode="&#x2039;" horiz-adv-x="615" 
d="M546 949l-258 -397l258 -398h-143l-295 388v19l295 388h143z" />
    <glyph glyph-name="guilsinglright" unicode="&#x203a;" horiz-adv-x="615" 
d="M232 949l295 -389v-19l-295 -388h-142l257 398l-257 398h142z" />
    <glyph glyph-name="fraction" unicode="&#x2044;" horiz-adv-x="931" 
d="M165 111l-105 66l711 1138l105 -66z" />
    <glyph glyph-name="uni2070" unicode="&#x2070;" 
d="M670 992q0 -167 -78.5 -251.5t-214.5 -84.5q-138 0 -217.5 84.5t-79.5 251.5v139q0 166 79 251t216 85t216 -85t79 -251v-139zM512 1145q0 194 -137 194q-136 0 -136 -194v-166q0 -196 138 -196q135 0 135 196v166z" />
    <glyph glyph-name="uni2074" unicode="&#x2074;" 
d="M700 966v-129h-107v-170h-159v170h-373l-7 101l377 518h162v-490h107zM213 966h221v287l-15 -25z" />
    <glyph glyph-name="uni2075" unicode="&#x2075;" 
d="M112 1055l50 401h479v-130h-348l-23 -172q66 29 139 29q128 0 199.5 -68.5t71.5 -189.5q0 -115 -75.5 -192t-218.5 -77q-118 0 -203.5 61.5t-91.5 165.5h156q12 -100 139 -100q69 0 102 39.5t33 104.5q0 64 -39.5 102t-110.5 38q-34 0 -61 -7.5t-39 -14.5t-32 -21z" />
    <glyph glyph-name="uni2076" unicode="&#x2076;" 
d="M431 1191q122 0 187.5 -74t65.5 -190q0 -118 -79.5 -194.5t-212.5 -76.5q-141 0 -223.5 84.5t-82.5 228.5v56q0 210 114.5 325.5t330.5 115.5h22v-130h-11q-272 0 -296 -221q74 76 185 76zM389 783q62 0 99.5 40.5t37.5 102.5q0 63 -36 100.5t-102 37.5q-49 0 -87.5 -21
t-56.5 -54v-35q0 -82 40 -126.5t105 -44.5z" />
    <glyph glyph-name="uni2077" unicode="&#x2077;" 
d="M678 1367l-349 -700h-167l349 661h-452v128h619v-89z" />
    <glyph glyph-name="uni2078" unicode="&#x2078;" 
d="M533 1073q65 -27 102 -76t37 -114q0 -109 -82.5 -168t-213.5 -59t-214 59t-83 168q0 65 37 114t102 76q-56 27 -87.5 71.5t-31.5 102.5q0 104 76 162t200 58q123 0 200 -58t77 -162q0 -58 -31.5 -102.5t-87.5 -71.5zM375 1340q-55 0 -86.5 -27.5t-31.5 -74.5t32 -75
t87 -28q54 0 86 28t32 75q0 46 -32.5 74t-86.5 28zM376 783q62 0 100 30t38 82q0 51 -38.5 81t-100.5 30q-63 0 -100 -30t-37 -81q0 -52 37.5 -82t100.5 -30z" />
    <glyph glyph-name="uni2079" unicode="&#x2079;" 
d="M366 1467q139 0 217.5 -85t78.5 -237v-52q0 -433 -438 -433h-15v126h14q134 0 201 49t78 152q-68 -65 -170 -65q-124 0 -191.5 72.5t-67.5 191.5q0 118 81 199.5t212 81.5zM368 1043q47 0 82.5 20t53.5 51v60q0 80 -38 122.5t-100 42.5q-61 0 -98 -44.5t-37 -108.5
q0 -63 35.5 -103t101.5 -40z" />
    <glyph glyph-name="uni2080" unicode="&#x2080;" 
d="M670 -43q0 -167 -78.5 -251.5t-214.5 -84.5q-138 0 -217.5 84.5t-79.5 251.5v139q0 166 79 251t216 85t216 -85t79 -251v-139zM512 110q0 194 -137 194q-136 0 -136 -194v-166q0 -196 138 -196q135 0 135 196v166z" />
    <glyph glyph-name="uni2081" unicode="&#x2081;" 
d="M496 -367h-158v603l-215 -58v128l355 116h18v-789z" />
    <glyph glyph-name="uni2082" unicode="&#x2082;" 
d="M684 -367h-600v108l289 271q120 112 120 183q0 50 -32.5 80.5t-90.5 30.5q-72 0 -108.5 -37t-36.5 -97h-159q0 111 81.5 186t218.5 75q134 0 210 -63.5t76 -172.5q0 -73 -45 -136t-146 -154l-175 -147h398v-127z" />
    <glyph glyph-name="uni2083" unicode="&#x2083;" 
d="M517 38q150 -41 150 -185q0 -108 -86 -169.5t-220 -61.5q-124 0 -211 59.5t-87 173.5h158q0 -46 40.5 -76t104.5 -30q68 0 105 30.5t37 81.5q0 116 -158 116h-85v115h85q71 0 108 30t37 80q0 47 -33 75.5t-99 28.5q-57 0 -94 -25.5t-37 -68.5h-159q0 100 82 160.5
t205 60.5q134 0 213.5 -58.5t79.5 -165.5q0 -56 -35.5 -101.5t-100.5 -69.5z" />
    <glyph glyph-name="uni2084" unicode="&#x2084;" 
d="M700 -68v-129h-107v-170h-159v170h-373l-7 101l377 518h162v-490h107zM213 -68h221v287l-15 -25z" />
    <glyph glyph-name="uni2085" unicode="&#x2085;" 
d="M112 21l50 401h479v-130h-348l-23 -172q66 29 139 29q128 0 199.5 -68.5t71.5 -189.5q0 -115 -75.5 -192t-218.5 -77q-118 0 -203.5 61.5t-91.5 165.5h156q12 -100 139 -100q69 0 102 39.5t33 104.5q0 64 -39.5 102t-110.5 38q-34 0 -61 -7.5t-39 -14.5t-32 -21z" />
    <glyph glyph-name="uni2086" unicode="&#x2086;" 
d="M431 157q122 0 187.5 -74t65.5 -190q0 -118 -79.5 -194.5t-212.5 -76.5q-141 0 -223.5 84.5t-82.5 228.5v56q0 210 114.5 325.5t330.5 115.5h22v-130h-11q-272 0 -296 -221q74 76 185 76zM389 -251q62 0 99.5 40.5t37.5 102.5q0 63 -36 100.5t-102 37.5q-49 0 -87.5 -21
t-56.5 -54v-35q0 -82 40 -126.5t105 -44.5z" />
    <glyph glyph-name="uni2087" unicode="&#x2087;" 
d="M678 333l-349 -700h-167l349 661h-452v128h619v-89z" />
    <glyph glyph-name="uni2088" unicode="&#x2088;" 
d="M533 39q65 -27 102 -76t37 -114q0 -109 -82.5 -168t-213.5 -59t-214 59t-83 168q0 65 37 114t102 76q-56 27 -87.5 71.5t-31.5 102.5q0 104 76 162t200 58q123 0 200 -58t77 -162q0 -58 -31.5 -102.5t-87.5 -71.5zM375 306q-55 0 -86.5 -27.5t-31.5 -74.5t32 -75t87 -28
q54 0 86 28t32 75q0 46 -32.5 74t-86.5 28zM376 -251q62 0 100 30t38 82q0 51 -38.5 81t-100.5 30q-63 0 -100 -30t-37 -81q0 -52 37.5 -82t100.5 -30z" />
    <glyph glyph-name="uni2089" unicode="&#x2089;" 
d="M366 433q139 0 217.5 -85t78.5 -237v-52q0 -433 -438 -433h-15v126h14q134 0 201 49t78 152q-68 -65 -170 -65q-124 0 -191.5 72.5t-67.5 191.5q0 118 81 199.5t212 81.5zM368 9q47 0 82.5 20t53.5 51v60q0 80 -38 122.5t-100 42.5q-61 0 -98 -44.5t-37 -108.5
q0 -63 35.5 -103t101.5 -40z" />
    <glyph glyph-name="uni20AA" unicode="&#x20aa;" horiz-adv-x="1722" 
d="M152 0v1179h980v-593q0 -141 -43 -251l-151 -24l-9 8q30 112 30 258v449h-634v-1026h-173zM562 0v829h173v-676h294q151 -1 245.5 87.5t94.5 239.5v699h172v-696q2 -223 -137.5 -353t-381.5 -130h-460z" />
    <glyph glyph-name="Euro" unicode="&#x20ac;" horiz-adv-x="1151" 
d="M815 135q114 0 218 34l20 -159q-117 -30 -240 -30q-242 0 -388.5 144.5t-151.5 417.5h-177v123h177v138h-177v124h178q9 267 154 408t384 141q107 0 241 -31l-20 -160q-110 35 -219 35q-158 0 -248 -98.5t-97 -294.5h382v-124h-383v-138h383v-123h-383q4 -201 96 -304
t251 -103z" />
    <glyph glyph-name="minus" unicode="&#x2212;" horiz-adv-x="1171" 
d="M1003 652h-835v150h835v-150z" />
    <glyph glyph-name="fi" unicode="&#xfb01;" horiz-adv-x="1135" 
d="M613 1392q-118 0 -171 -52.5t-53 -162.5v-95h220v-141h-220v-941h-187v941h-171v141h171v95q0 182 105.5 281t291.5 99q114 0 283 -61l-31 -154q-125 50 -238 50zM787 1082h187v-1082h-187v1082z" />
    <glyph glyph-name="longst" unicode="&#xfb05;" horiz-adv-x="1263" 
d="M1179 149l1 -149q-64 -20 -143 -20q-113 0 -181.5 68t-68.5 221v672h-197v141h197v288q-29 15 -85 26t-102 11q-88 0 -135 -55.5t-47 -154.5v-1197h-187v941h-170v141h170v115q0 172 90 266t250 94q89 0 200 -27.5t203 -72.5v-375h202v-141h-202v-673q0 -77 32 -103.5
t87 -26.5q42 0 86 11z" />
    <glyph glyph-name="st" unicode="&#xfb06;" horiz-adv-x="1692" 
d="M1620 149l1 -149q-64 -20 -143 -20q-111 0 -180.5 77.5t-69.5 240.5v643h-188v141h188v86q0 108 -48.5 169.5t-151.5 61.5q-86 0 -132.5 -43t-46.5 -115q0 -65 24.5 -140.5t49 -161t24.5 -174.5h-188q0 72 -61.5 129.5t-164.5 57.5q-107 0 -160.5 -47t-53.5 -113
q0 -63 50.5 -99t198.5 -69q204 -47 296.5 -121.5t92.5 -202.5q0 -143 -115 -231.5t-304 -88.5q-104 0 -189.5 30t-140 79.5t-84 112.5t-29.5 131h187q3 -55 27 -96t61.5 -63.5t79.5 -33t88 -10.5q110 0 171 44t61 113q0 33 -9 57.5t-34.5 49.5t-76.5 45t-128 36
q-193 40 -291.5 112t-98.5 199q0 132 111.5 224t289.5 92q102 0 181 -29q-44 112 -44 191q0 124 100.5 206.5t258.5 82.5q91 0 161.5 -24.5t112 -62.5t68 -90.5t35.5 -102t9 -104.5v-87h201v-141h-201v-644q0 -159 118 -159q40 0 87 11z" />
    <glyph glyph-name="uniFB1F" unicode="&#xfb1f;" horiz-adv-x="1236" 
d="M271 521v508h-216v149h402v-657h-186zM889 521v508h-216v149h402v-657h-186zM167 -289v94h404v-94h-404z" />
    <glyph glyph-name="uniFB20" unicode="&#xfb20;" horiz-adv-x="1218" 
d="M853 1178h184l-35 -715q-12 -241 -149.5 -371.5t-372.5 -130.5q-186 0 -419 87l45 139q186 -73 337 -78q-81 89 -108 210l-195 859h186l190 -869q26 -120 65 -185q109 30 170 114t68 217z" />
    <glyph glyph-name="uniFB21" unicode="&#xfb21;" horiz-adv-x="1812" 
d="M1716 1178l-449 -795l417 -383h-256l-951 878q-74 -120 -74 -306v-572h-180v578q0 255 166 381l-237 219h248l733 -672l375 672h208z" />
    <glyph glyph-name="uniFB22" unicode="&#xfb22;" horiz-adv-x="1347" 
d="M60 1178h1223v-139l-238 -22v-1017h-185v1029h-800v149z" />
    <glyph glyph-name="uniFB23" unicode="&#xfb23;" horiz-adv-x="1631" 
d="M1293 0v822q0 96 -56 151.5t-153 55.5h-935v149h939q184 0 287.5 -97.5t103.5 -272.5v-808h-186zM148 0v396q0 123 39 235l166 24l8 -9q-30 -118 -30 -257v-389h-183z" />
    <glyph glyph-name="uniFB24" unicode="&#xfb24;" horiz-adv-x="1563" 
d="M685 -34q-270 0 -604 71l28 149q331 -65 569 -65q517 0 519 343v565h-1082v149h1267v-715q-1 -247 -180.5 -372t-516.5 -125z" />
    <glyph glyph-name="uniFB25" unicode="&#xfb25;" horiz-adv-x="1417" 
d="M1343 1178v-117l-616 -1061h-199l587 1029h-1032v472h185v-323h1075z" />
    <glyph glyph-name="uniFB26" unicode="&#xfb26;" horiz-adv-x="1764" 
d="M114 0v1178h1500v-1178h-1500zM299 150h1130v879h-1130v-879z" />
    <glyph glyph-name="uniFB27" unicode="&#xfb27;" horiz-adv-x="1435" 
d="M1097 0v822q0 96 -56 151.5t-154 55.5h-827v149h831q185 0 288 -97.5t103 -272.5v-808h-185z" />
    <glyph glyph-name="uniFB28" unicode="&#xfb28;" horiz-adv-x="1755" 
d="M1139 1178q234 0 349 -111.5t115 -339.5v-727h-185l-1 738q0 153 -65.5 222t-211.5 69h-643q-33 -54 -52.5 -138.5t-19.5 -173.5v-397q0 -162 -77 -246t-224 -84q-43 0 -115 9v149q32 -4 69 -4q87 0 126.5 45t39.5 142v372q0 91 24 181.5t66 144.5h-221v149h1026z" />
    <glyph glyph-name="uniFB29" unicode="&#xfb29;" horiz-adv-x="1128" 
d="M473 1206h168v-449h420v-156h-998v156h410v449z" />
    <glyph glyph-name="uniFB2A" unicode="&#xfb2a;" horiz-adv-x="1626" 
d="M1349 1331q-33 0 -56 21.5t-23 50.5q0 31 22.5 52t56.5 21q33 0 55.5 -21t22.5 -52t-22.5 -51.5t-55.5 -20.5zM361 1178v-969q205 -87 404 -87q107 0 197 23t158 68t106.5 118t38.5 167v680h180v-697q0 -101 -35 -185t-96.5 -143t-146 -100.5t-183.5 -61t-210 -19.5
q-309 0 -593 136v1070h180zM644 325q75 79 75 267v586h181v-553q0 -203 -102 -306z" />
    <glyph glyph-name="uniFB2B" unicode="&#xfb2b;" horiz-adv-x="1626" 
d="M264 1331q-33 0 -55.5 21.5t-22.5 50.5q0 31 22.5 52t55.5 21q34 0 56.5 -21t22.5 -52t-22.5 -51.5t-56.5 -20.5zM361 1178v-969q205 -87 404 -87q107 0 197 23t158 68t106.5 118t38.5 167v680h180v-697q0 -101 -35 -185t-96.5 -143t-146 -100.5t-183.5 -61t-210 -19.5
q-309 0 -593 136v1070h180zM644 325q75 79 75 267v586h181v-553q0 -203 -102 -306z" />
    <glyph glyph-name="uniFB2C" unicode="&#xfb2c;" horiz-adv-x="1626" 
d="M1349 1331q-33 0 -56 21.5t-23 50.5q0 31 22.5 52t56.5 21q33 0 55.5 -21t22.5 -52t-22.5 -51.5t-55.5 -20.5zM361 1178v-969q205 -87 404 -87q107 0 197 23t158 68t106.5 118t38.5 167v680h180v-697q0 -101 -35 -185t-96.5 -143t-146 -100.5t-183.5 -61t-210 -19.5
q-309 0 -593 136v1070h180zM644 325q75 79 75 267v586h181v-553q0 -203 -102 -306zM1082 529q-33 0 -55.5 22t-22.5 52q0 31 22.5 52t55.5 21q34 0 56.5 -21t22.5 -52q0 -32 -22.5 -53t-56.5 -21z" />
    <glyph glyph-name="uniFB2D" unicode="&#xfb2d;" horiz-adv-x="1626" 
d="M264 1331q-33 0 -55.5 21.5t-22.5 50.5q0 31 22.5 52t55.5 21q34 0 56.5 -21t22.5 -52t-22.5 -51.5t-56.5 -20.5zM361 1178v-969q205 -87 404 -87q107 0 197 23t158 68t106.5 118t38.5 167v680h180v-697q0 -101 -35 -185t-96.5 -143t-146 -100.5t-183.5 -61t-210 -19.5
q-309 0 -593 136v1070h180zM644 325q75 79 75 267v586h181v-553q0 -203 -102 -306zM1082 529q-33 0 -55.5 22t-22.5 52q0 31 22.5 52t55.5 21q34 0 56.5 -21t22.5 -52q0 -32 -22.5 -53t-56.5 -21z" />
    <glyph glyph-name="uniFB2E" unicode="&#xfb2e;" horiz-adv-x="1314" 
d="M1218 1178l-378 -662l373 -516h-207l-525 725q-107 -69 -107 -231v-494h-180v427q0 153 52 250.5t162 148.5l-256 352h208l365 -504l284 504h209zM478 -289v94h404v-94h-404z" />
    <glyph glyph-name="uniFB2F" unicode="&#xfb2f;" horiz-adv-x="1314" 
d="M1218 1178l-378 -662l373 -516h-207l-525 725q-107 -69 -107 -231v-494h-180v427q0 153 52 250.5t162 148.5l-256 352h208l365 -504l284 504h209zM492 -289v94h377v-94h-155q3 -51 15 -84t22 -51.5t10 -37.5q0 -31 -22.5 -52t-55.5 -21t-56 22t-23 51q0 19 10 37.5
t22 51.5t15 84h-159z" />
    <glyph glyph-name="uniFB30" unicode="&#xfb30;" horiz-adv-x="1314" 
d="M1218 1178l-378 -662l373 -516h-207l-525 725q-107 -69 -107 -231v-494h-180v427q0 153 52 250.5t162 148.5l-256 352h208l365 -504l284 504h209zM583 295q34 0 56.5 -21t22.5 -52q0 -32 -22.5 -53t-56.5 -21q-33 0 -55.5 22t-22.5 52q0 31 22.5 52t55.5 21z" />
    <glyph glyph-name="uniFB31" unicode="&#xfb31;" horiz-adv-x="1079" 
d="M886 157l143 -15v-142h-968v150h640v589q0 153 -68.5 221.5t-222.5 68.5h-285v149h295q231 0 348.5 -112t117.5 -332v-577zM460 603q0 -32 -22.5 -53t-56.5 -21q-33 0 -55.5 22t-22.5 52q0 31 22.5 52t55.5 21q34 0 56.5 -21t22.5 -52z" />
    <glyph glyph-name="uniFB32" unicode="&#xfb32;" horiz-adv-x="792" 
d="M67 -8q-32 0 -47 3v171q27 -4 58 -4q144 4 234 87.5t115 214.5v565h-266v149h449v-608q0 -93 19 -180l82 -390h-175l-69 330h-7q-19 -137 -130.5 -237.5t-262.5 -100.5zM201 529q-33 0 -55.5 22t-22.5 52q0 31 22.5 52t55.5 21q34 0 56.5 -21t22.5 -52q0 -32 -22.5 -53
t-56.5 -21z" />
    <glyph glyph-name="uniFB33" unicode="&#xfb33;" horiz-adv-x="1067" 
d="M60 1178h943v-149h-197v-1029h-186v1029h-560v149zM322 529q-33 0 -55.5 22t-22.5 52q0 31 22.5 52t55.5 21q34 0 56.5 -21t22.5 -52q0 -32 -22.5 -53t-56.5 -21z" />
    <glyph glyph-name="uniFB34" unicode="&#xfb34;" horiz-adv-x="1204" 
d="M866 0v739q0 153 -69 221.5t-222 68.5h-427v149h436q231 0 349.5 -112t118.5 -332v-734h-186zM599 529q-33 0 -55.5 22t-22.5 52q0 31 22.5 52t55.5 21q34 0 56.5 -21t22.5 -52q0 -32 -22.5 -53t-56.5 -21zM150 0v402q0 64 9 115.5t18 75.5t25 58h152q-24 -90 -24 -237
v-414h-180z" />
    <glyph glyph-name="uniFB35" unicode="&#xfb35;" horiz-adv-x="604" 
d="M237 0v1029h-137v149h323v-1178h-186zM71 529q-33 0 -55.5 22t-22.5 52q0 31 22.5 52t55.5 21q34 0 56.5 -21t22.5 -52q0 -32 -22.5 -53t-56.5 -21z" />
    <glyph glyph-name="uniFB36" unicode="&#xfb36;" horiz-adv-x="724" 
d="M319 0l-160 1021l-83 14v143h572l-1 -149h-304l167 -1029h-191zM565 529q-33 0 -55.5 22t-22.5 52q0 31 22.5 52t55.5 21q34 0 56.5 -21t22.5 -52q0 -32 -22.5 -53t-56.5 -21z" />
    <glyph glyph-name="uniFB38" unicode="&#xfb38;" horiz-adv-x="1263" 
d="M652 -22q-212 0 -341.5 130t-129.5 343v727h185v-740q0 -140 78.5 -226t206.5 -86t206 86t78 226v395q0 96 -42.5 148.5t-120.5 52.5q-65 0 -144 -38l-29 124q108 69 227 69q137 0 216 -91.5t79 -249.5v-397q0 -213 -129 -343t-340 -130zM652 529q-33 0 -55.5 22
t-22.5 52q0 31 22.5 52t55.5 21q34 0 56.5 -21t22.5 -52q0 -32 -22.5 -53t-56.5 -21z" />
    <glyph glyph-name="uniFB39" unicode="&#xfb39;" horiz-adv-x="618" 
d="M271 521v508h-216v149h402v-657h-186zM92 716q-33 0 -55.5 22t-22.5 52q0 31 22.5 52t55.5 21q34 0 56.5 -21t22.5 -52q0 -32 -22.5 -53t-56.5 -21z" />
    <glyph glyph-name="uniFB3A" unicode="&#xfb3a;" horiz-adv-x="1014" 
d="M651 -416v1445h-586v149h769v-1594h-183zM329 529q-33 0 -55.5 22t-22.5 52q0 31 22.5 52t55.5 21q34 0 56.5 -21t22.5 -52q0 -32 -22.5 -53t-56.5 -21z" />
    <glyph glyph-name="uniFB3B" unicode="&#xfb3b;" horiz-adv-x="1101" 
d="M414 -17q-150 0 -333 53l30 139q165 -45 290 -43q163 3 248.5 84t85.5 231v582h-613v149h798v-691q0 -251 -133.5 -378t-372.5 -126zM409 529q-33 0 -55.5 22t-22.5 52q0 31 22.5 52t55.5 21q34 0 56.5 -21t22.5 -52q0 -32 -22.5 -53t-56.5 -21z" />
    <glyph glyph-name="uniFB3C" unicode="&#xfb3c;" horiz-adv-x="1052" 
d="M978 1178v-117l-432 -1061h-199l427 1029h-691v507h185v-358h710zM389 678q0 -32 -22.5 -53t-56.5 -21q-33 0 -55.5 22t-22.5 52q0 31 22.5 52t55.5 21q34 0 56.5 -21t22.5 -52z" />
    <glyph glyph-name="uniFB3E" unicode="&#xfb3e;" horiz-adv-x="1299" 
d="M171 0l90 749q10 82 46.5 154.5t85.5 111.5q4 3 20 14l-2 3q-109 -18 -236 -62l-43 140q116 40 260 65t265 25q238 0 363.5 -126.5t126.5 -371.5v-702h-485v149h300v574q0 157 -71 239t-206 82q-97 0 -162 -74.5t-80 -202.5l-89 -767h-183zM688 529q-33 0 -55.5 22
t-22.5 52q0 31 22.5 52t55.5 21q34 0 56.5 -21t22.5 -52q0 -32 -22.5 -53t-56.5 -21z" />
    <glyph glyph-name="uniFB40" unicode="&#xfb40;" horiz-adv-x="742" 
d="M251 -20q-92 0 -191 22l5 145q65 -13 146 -13q164 0 164 192v703h-231v149h417v-867q0 -162 -80 -246.5t-230 -84.5zM172 529q-33 0 -55.5 22t-22.5 52q0 31 22.5 52t55.5 21q34 0 56.5 -21t22.5 -52q0 -32 -22.5 -53t-56.5 -21z" />
    <glyph glyph-name="uniFB41" unicode="&#xfb41;" horiz-adv-x="1305" 
d="M668 -22q-221 0 -358.5 148.5t-139.5 392.5v120q-1 116 47 224.5t120 157.5q8 6 14 8l-1 3q-53 -6 -211 -49l-36 140q117 35 264 56t271 21q247 0 387.5 -143t140.5 -397v-141q0 -244 -137 -392.5t-361 -148.5zM668 135q141 0 227.5 105.5t86.5 277.5v140
q0 179 -87.5 282.5t-237.5 103.5q-135 0 -216 -106t-85 -289v-131q0 -172 86 -277.5t226 -105.5zM669 529q-33 0 -55.5 22t-22.5 52q0 31 22.5 52t55.5 21q34 0 56.5 -21t22.5 -52q0 -32 -22.5 -53t-56.5 -21z" />
    <glyph glyph-name="uniFB43" unicode="&#xfb43;" horiz-adv-x="1215" 
d="M1034 1178v-1594h-183v1445h-404q-32 -55 -52 -142t-20 -170v-136q43 -18 157 -18v-160q-124 0 -195 14.5t-143 52.5l-3 197q-2 100 24 199t71 163h-143v149h891zM617 706q-33 0 -55.5 22t-22.5 52q0 31 22.5 52t55.5 21q34 0 56.5 -21t22.5 -52q0 -32 -22.5 -53
t-56.5 -21z" />
    <glyph glyph-name="uniFB44" unicode="&#xfb44;" horiz-adv-x="1284" 
d="M583 -20q-189 0 -384 67l36 139q180 -54 341 -54q164 2 253 83t89 232v582h-472q-32 -55 -51.5 -139.5t-19.5 -168.5v-90q42 -18 156 -18v-160q-124 0 -195 14.5t-142 52.5l-4 152q0 101 25.5 197.5t69.5 159.5h-143v149h961v-696q0 -248 -142 -376t-378 -126zM650 719
q-33 0 -55.5 22t-22.5 52q0 31 22.5 52t55.5 21q34 0 56.5 -21t22.5 -52q0 -32 -22.5 -53t-56.5 -21z" />
    <glyph glyph-name="uniFB46" unicode="&#xfb46;" horiz-adv-x="1119" 
d="M1052 1178l-361 -635l311 -449v-94h-872v150h633l-704 1028h209l314 -474l261 474h209zM402 361q0 -32 -22.5 -53t-56.5 -21q-33 0 -55.5 22t-22.5 52q0 31 22.5 52t55.5 21q34 0 56.5 -21t22.5 -52z" />
    <glyph glyph-name="uniFB47" unicode="&#xfb47;" horiz-adv-x="1273" 
d="M577 0v146q150 5 239.5 94t89.5 242v547h-727v149h913v-692q0 -222 -140 -351.5t-375 -134.5zM202 -416v858q0 63 9 114t18 75t25 58h152q-24 -85 -24 -236v-869h-180zM638 529q-33 0 -55.5 22t-22.5 52q0 31 22.5 52t55.5 21q34 0 56.5 -21t22.5 -52q0 -32 -22.5 -53
t-56.5 -21z" />
    <glyph glyph-name="uniFB48" unicode="&#xfb48;" horiz-adv-x="1005" 
d="M667 0v822q0 96 -56.5 151.5t-154.5 55.5h-396v149h402q183 0 286.5 -98t103.5 -272v-808h-185zM341 529q-33 0 -55.5 22t-22.5 52q0 31 22.5 52t55.5 21q34 0 56.5 -21t22.5 -52q0 -32 -22.5 -53t-56.5 -21z" />
    <glyph glyph-name="uniFB49" unicode="&#xfb49;" horiz-adv-x="1626" 
d="M361 1178v-969q205 -87 404 -87q107 0 197 23t158 68t106.5 118t38.5 167v680h180v-697q0 -101 -35 -185t-96.5 -143t-146 -100.5t-183.5 -61t-210 -19.5q-309 0 -593 136v1070h180zM644 325q75 79 75 267v586h181v-553q0 -203 -102 -306zM1082 529q-33 0 -55.5 22
t-22.5 52q0 31 22.5 52t55.5 21q34 0 56.5 -21t22.5 -52q0 -32 -22.5 -53t-56.5 -21z" />
    <glyph glyph-name="uniFB4A" unicode="&#xfb4a;" horiz-adv-x="1279" 
d="M662 1178q234 0 349.5 -111.5t115.5 -339.5v-727h-185l-1 738q0 153 -65.5 222t-211.5 69h-167q-33 -54 -52.5 -138.5t-19.5 -173.5v-397q0 -162 -77 -246t-224 -84q-43 0 -115 9v149q32 -4 69 -4q87 0 126.5 45t39.5 142v372q0 91 24 181.5t66 144.5h-221v149h549z
M683 529q-33 0 -55.5 22t-22.5 52q0 31 22.5 52t55.5 21q34 0 56.5 -21t22.5 -52q0 -32 -22.5 -53t-56.5 -21z" />
    <glyph glyph-name="uniFB4B" unicode="&#xfb4b;" horiz-adv-x="604" 
d="M263 1331q-33 0 -56 21.5t-23 50.5q0 31 22.5 52t56.5 21t56.5 -21t22.5 -52t-22.5 -51.5t-56.5 -20.5zM237 0v1029h-137v149h323v-1178h-186z" />
    <glyph glyph-name="uniFB4C" unicode="&#xfb4c;" horiz-adv-x="1079" 
d="M726 1464v-107h-487v107h487zM886 157l143 -15v-142h-968v150h640v589q0 153 -68.5 221.5t-222.5 68.5h-285v149h295q231 0 348.5 -112t117.5 -332v-577z" />
    <glyph glyph-name="uniFB4D" unicode="&#xfb4d;" horiz-adv-x="1101" 
d="M234 1357v107h487v-107h-487zM414 -17q-150 0 -333 53l30 139q165 -45 290 -43q163 3 248.5 84t85.5 231v582h-613v149h798v-691q0 -251 -133.5 -378t-372.5 -126z" />
    <glyph glyph-name="uniFB4E" unicode="&#xfb4e;" horiz-adv-x="1284" 
d="M402 1357v107h487v-107h-487zM583 -20q-189 0 -384 67l36 139q180 -54 341 -54q164 2 253 83t89 232v582h-472q-32 -55 -51.5 -139.5t-19.5 -168.5v-90q42 -18 156 -18v-160q-124 0 -195 14.5t-142 52.5l-4 152q0 101 25.5 197.5t69.5 159.5h-143v149h961v-696
q0 -248 -142 -376t-378 -126z" />
    <glyph glyph-name="uniFB4F" unicode="&#xfb4f;" horiz-adv-x="1195" 
d="M1099 1178l-384 -673l360 -505h-205l-787 1100v401h185v-369l333 -467l289 513h209z" />
    <glyph glyph-name="K.alt" horiz-adv-x="1316" 
d="M1073 0l-525 655h-176v-655h-194v1456h194v-642h149l507 642h241l-556 -705l598 -751h-238z" />
    <glyph glyph-name="R.alt" horiz-adv-x="1356" 
d="M1185 236q0 -148 67 -211v-25h-199q-62 56 -62 238v129q0 119 -70.5 190.5t-191.5 71.5h-357v-629h-194v1456h526q239 0 365 -106t126 -309q0 -226 -239 -328q229 -71 229 -344v-133zM684 785q168 0 242.5 64.5t74.5 191.5q0 123 -72.5 190.5t-226.5 67.5h-330v-514h312z
" />
    <glyph glyph-name="K.alt2" horiz-adv-x="1342" 
d="M1276 0h-239l-665 692v-692h-194v1456h194v-647h11l611 647h242l-660 -709z" />
    <glyph glyph-name="C.ss06" horiz-adv-x="1411" 
d="M1310 462q-12 -105 -53 -192t-109 -152.5t-168.5 -102t-225.5 -36.5q-132 0 -248 52t-200 145t-132 227.5t-48 293.5v61q0 322 172.5 520.5t446.5 198.5q243 0 392.5 -133.5t173.5 -354.5h-195q-23 157 -115.5 244t-255.5 87q-194 0 -309 -154.5t-115 -405.5v-63
q0 -248 122 -405t311 -157q168 0 252.5 83t109.5 244h194z" />
    <glyph glyph-name="D.ss06" horiz-adv-x="1428" 
d="M612 1456q145 0 271 -50t218 -140.5t144.5 -224t52.5 -292.5v-43q0 -213 -90 -374t-249.5 -246.5t-363.5 -85.5h-417v1456h434zM1102 706v45q0 257 -133.5 402.5t-357.5 145.5h-239v-1143h222q236 0 372 150t136 400z" />
    <glyph glyph-name="G.ss06" horiz-adv-x="1455" 
d="M1312 191q-23 -34 -62.5 -67.5t-102.5 -67.5t-158 -55.5t-206 -21.5q-139 0 -259 51t-208.5 144.5t-139 233t-50.5 307.5v27q0 168 47 307t129.5 232.5t196.5 144.5t248 51q254 0 393.5 -120.5t171.5 -326.5h-195q-57 290 -370 290q-189 0 -307.5 -158t-118.5 -418v-29
q0 -265 130 -422.5t332 -157.5q131 0 216 33t119 74v327h-334v154h528v-532z" />
    <glyph glyph-name="O.ss06" horiz-adv-x="1505" 
d="M1376 706q0 -210 -81 -376.5t-223 -258.5t-319 -92q-129 0 -244 54t-199.5 148.5t-134 231t-49.5 293.5v44q0 157 49 293t133 231t199 149t244 54q132 0 248 -54t199 -149t130.5 -231t47.5 -293v-44zM1184 752q0 249 -122 405.5t-311 156.5q-183 0 -307.5 -157.5
t-124.5 -404.5v-46q0 -249 125.5 -407t308.5 -158q190 0 310.5 156.5t120.5 408.5v46z" />
    <glyph glyph-name="Q.ss06" horiz-adv-x="1508" 
d="M1376 706q0 -216 -85 -384.5t-232 -258.5l250 -195l-132 -120l-306 242q-60 -11 -118 -11q-129 0 -244 54t-199.5 148.5t-134 231t-49.5 293.5v42q0 157 49 294t133 231.5t199 149t244 54.5q132 0 248 -54t199 -149.5t130.5 -231.5t47.5 -294v-42zM319 706
q0 -249 125.5 -407t308.5 -158q190 0 310.5 156t120.5 409v44q0 251 -122 407.5t-311 156.5q-183 0 -307.5 -158t-124.5 -406v-44z" />
    <glyph glyph-name="g.alt" horiz-adv-x="1082" 
d="M619 196q199 0 305.5 -73t106.5 -221q0 -58 -36.5 -117.5t-102.5 -109.5t-170.5 -81.5t-227.5 -31.5q-217 0 -340.5 80t-123.5 197q0 90 50 157t129 107q-57 47 -57 121q0 122 115 206q-82 50 -128.5 126.5t-46.5 165.5v22q0 157 120 257.5t309 100.5q82 0 153 -20h366
l2 -145h-152q60 -85 60 -193v-22q0 -149 -120 -253.5t-307 -104.5q-81 0 -152 21q-51 -43 -51 -106q0 -83 127 -83h172zM279 744v-22q0 -82 69 -144.5t175 -62.5q105 0 173 62.5t68 144.5v22q0 86 -68.5 147t-174.5 61t-174 -61t-68 -147zM494 -288q157 0 253.5 60t96.5 130
q0 72 -50.5 108t-174.5 36h-208q-41 0 -78 6q-51 -23 -83.5 -70.5t-32.5 -106.5q0 -71 70.5 -117t206.5 -46z" />
    <glyph glyph-name="k.alt" horiz-adv-x="1045" 
d="M825 0l-362 502h-130v-502h-186v1536h186v-882h126l313 428h221l-376 -492l429 -590h-221z" />
    <glyph glyph-name="k.alt2" horiz-adv-x="1041" 
d="M781 0l-442 500h-6v-500h-186v1560h186v-907h1l393 429h242l-469 -499l511 -583h-230z" />
    <glyph glyph-name="b.ss06" horiz-adv-x="1150" 
d="M635 1102q202 0 322 -151t120 -400v-21q0 -240 -121 -395t-319 -155q-208 0 -320 148l-16 -128h-161v1536h187v-570q110 136 308 136zM890 530v21q0 175 -78.5 285.5t-223.5 110.5q-180 0 -261 -168v-474q84 -169 263 -169q143 0 221.5 112t78.5 282z" />
    <glyph glyph-name="c.ss06" horiz-adv-x="1075" 
d="M831 342h177q-8 -146 -134.5 -254t-296.5 -108q-96 0 -176 28.5t-136 78t-95.5 117.5t-58 148t-18.5 168v42q0 111 30.5 207.5t88.5 171.5t152 118t212 43q187 0 305.5 -111t126.5 -281h-177q-8 104 -77.5 173t-177.5 69q-81 0 -141 -33.5t-92.5 -91.5t-47.5 -123.5
t-15 -141.5v-42q0 -60 8.5 -114t30 -105.5t54.5 -88.5t85 -59.5t119 -22.5q99 0 172.5 60.5t81.5 151.5z" />
    <glyph glyph-name="d.ss06" horiz-adv-x="1172" 
d="M839 1536h186v-1536h-162l-14 119q-111 -139 -312 -139q-191 0 -318.5 156.5t-127.5 392.5v21q0 245 126.5 398.5t321.5 153.5q189 0 300 -128v562zM583 136q173 0 256 157v500q-81 154 -254 154q-146 0 -226.5 -111.5t-80.5 -285.5v-21q0 -169 80.5 -281t224.5 -112z
" />
    <glyph glyph-name="g.ss06" horiz-adv-x="1165" 
d="M868 1082h157v-1004q0 -242 -122 -373.5t-348 -131.5q-86 0 -185.5 27t-173.5 78l56 137q62 -42 142.5 -67t158.5 -25q146 0 215.5 87t69.5 259v38q-110 -127 -302 -127q-194 0 -319.5 155.5t-125.5 393.5v21q0 247 124.5 399.5t322.5 152.5q203 0 314 -145zM582 136
q174 0 256 158v499q-82 154 -254 154q-146 0 -226 -111.5t-80 -285.5v-21q0 -110 34 -197.5t104 -141.5t166 -54z" />
    <glyph glyph-name="o.ss06" horiz-adv-x="1183" 
d="M90 552q0 156 61.5 281t176 197t262.5 72q225 0 364 -156t139 -394v-23q0 -238 -138.5 -393.5t-362.5 -155.5t-363 155.5t-139 393.5v23zM277 529q0 -169 84 -284t231 -115q98 0 170.5 55.5t108.5 145t36 198.5v23q0 108 -36 198t-109.5 146t-171.5 56q-145 0 -229 -116
t-84 -284v-23z" />
    <glyph glyph-name="p.ss06" horiz-adv-x="1166" 
d="M633 1102q203 0 322.5 -151.5t119.5 -400.5v-21q0 -240 -120.5 -394.5t-318.5 -154.5q-196 0 -309 124v-520h-187v1498h160l16 -123q115 143 317 143zM888 529v21q0 174 -82 285.5t-229 111.5q-167 0 -250 -149v-521q83 -147 252 -147q144 0 226.5 114.5t82.5 284.5z" />
    <glyph glyph-name="q.ss06" horiz-adv-x="1181" 
d="M863 1082h162v-1498h-187v515q-111 -119 -297 -119q-132 0 -235 71t-159 195.5t-56 281.5v21q0 248 124 400.5t328 152.5q194 0 306 -132zM587 130q164 0 251 147v532q-87 143 -249 143q-146 0 -228.5 -114t-82.5 -289v-21q0 -170 82.5 -284t226.5 -114z" />
    <glyph glyph-name="e.ss07" horiz-adv-x="1087" 
d="M1012 611v-121h-731q9 -156 104 -258t251 -102q160 0 279 91l57 -126q-128 -115 -345 -115q-241 0 -387.5 150.5t-146.5 389.5v44q0 124 39.5 227.5t106 170t151 103.5t176.5 37q114 0 200.5 -36.5t139.5 -103.5t79.5 -155t26.5 -196zM825 640v26q0 57 -14.5 106.5
t-44 90.5t-81 65t-119.5 24q-114 0 -190 -82t-92 -230h541z" />
    <glyph glyph-name="g.ss07" horiz-adv-x="1150" 
d="M853 1082h158v-1022q0 -233 -122.5 -360t-348.5 -127q-77 0 -166.5 22t-155.5 64l56 137q121 -73 264 -73q286 0 286 327v57q-110 -127 -302 -127t-309 154t-117 394v21q0 250 116 401.5t312 151.5q202 0 314 -145zM568 136q173 0 256 159v497q-82 155 -254 155
q-144 0 -215.5 -109.5t-71.5 -288.5v-21q0 -112 28.5 -198t94.5 -140t162 -54z" />
    <glyph glyph-name="f_f" horiz-adv-x="1424" 
d="M231 1197q0 173 94.5 266.5t262.5 93.5q61 0 127 -16l-10 -149q-45 8 -100 8q-89 0 -138 -52.5t-49 -150.5v-115h230v-141h-230v-941h-187v941h-170v141h170v115zM1317 1400q-89 0 -138 -52.5t-49 -150.5v-115h230v-141h-230v-941h-187v941h-170v141h170v115
q0 173 94.5 266.5t262.5 93.5q61 0 127 -16l-10 -149q-45 8 -100 8z" />
    <glyph glyph-name="f_f_i" horiz-adv-x="1749" 
d="M1227 1392q-118 0 -171 -52.5t-53 -162.5v-95h221v-141h-221v-941h-187v941h-398v-941h-187v941h-170v141h170v115q0 173 94.5 266.5t262.5 93.5q61 0 127 -16l-10 -149q-45 8 -100 8q-89 0 -138 -52.5t-49 -150.5v-115h398v95q0 182 105.5 281t291.5 99q113 0 284 -61
l-32 -154q-125 50 -238 50zM1401 1082h187v-1082h-187v1082z" />
    <glyph glyph-name="f_f_l" horiz-adv-x="1749" 
d="M1188 1557q97 0 400 -61v-1496h-187v1381q-128 19 -199 19q-97 0 -148 -52t-51 -151v-115h230v-141h-230v-941h-187v941h-398v-941h-187v941h-170v141h170v115q0 173 94.5 266.5t262.5 93.5q61 0 127 -16l-10 -149q-45 8 -100 8q-89 0 -138 -52.5t-49 -150.5v-115h398
v115q0 173 97 266.5t275 93.5z" />
    <glyph glyph-name="f_l" horiz-adv-x="1164" 
d="M603 1557q97 0 400 -61v-1496h-187v1381q-128 19 -199 19q-97 0 -148 -52t-51 -151v-115h230v-141h-230v-941h-187v941h-170v141h170v115q0 174 97 267t275 93z" />
    <glyph glyph-name="A.smcp" horiz-adv-x="1159" 
d="M948 0l-109 280h-518l-111 -280h-190l479 1165h167l472 -1165h-190zM381 431h399l-199 507z" />
    <glyph glyph-name="Aacute.smcp" horiz-adv-x="1159" 
d="M908 1566l-269 -293h-150l194 293h225zM948 0l-109 280h-518l-111 -280h-190l479 1165h167l472 -1165h-190zM381 431h399l-199 507z" />
    <glyph glyph-name="Acircumflex.smcp" horiz-adv-x="1159" 
d="M582 1453l-149 -170h-153v11l246 272h112l248 -273v-10h-154zM948 0l-109 280h-518l-111 -280h-190l479 1165h167l472 -1165h-190zM381 431h399l-199 507z" />
    <glyph glyph-name="Adieresis.smcp" horiz-adv-x="1159" 
d="M369 1298q-52 0 -81 29.5t-29 74.5q0 46 29 76t81 30t81 -30t29 -76q0 -45 -29 -74.5t-81 -29.5zM799 1296q-52 0 -80.5 29.5t-28.5 74.5q0 46 28.5 76t80.5 30t81.5 -30t29.5 -76q0 -45 -29.5 -74.5t-81.5 -29.5zM948 0l-109 280h-518l-111 -280h-190l479 1165h167
l472 -1165h-190zM381 431h399l-199 507z" />
    <glyph glyph-name="Agrave.smcp" horiz-adv-x="1159" 
d="M671 1273h-160l-259 293h226zM948 0l-109 280h-518l-111 -280h-190l479 1165h167l472 -1165h-190zM381 431h399l-199 507z" />
    <glyph glyph-name="Aring.smcp" horiz-adv-x="1159" 
d="M582 1246q-92 0 -154 58t-62 145t62 147.5t154 60.5q91 0 153 -60.5t62 -147.5t-62 -145t-153 -58zM582 1568q-50 0 -83 -35.5t-33 -83.5q0 -46 33 -80.5t83 -34.5t83 34.5t33 80.5q0 48 -33 83.5t-83 35.5zM948 0l-109 280h-518l-111 -280h-190l479 1165h167l472 -1165
h-190zM381 431h399l-199 507z" />
    <glyph glyph-name="Atilde.smcp" horiz-adv-x="1159" 
d="M453 1388q-42 0 -70.5 -32.5t-28.5 -79.5l-125 7q0 108 61.5 177t153.5 69q47 0 92 -24t88.5 -48t87.5 -24q42 0 71 32.5t29 80.5l125 -12q0 -108 -61.5 -174.5t-154.5 -66.5q-46 0 -84 15t-59.5 32.5t-54.5 32.5t-70 15zM948 0l-109 280h-518l-111 -280h-190l479 1165
h167l472 -1165h-190zM381 431h399l-199 507z" />
    <glyph glyph-name="AE.smcp" horiz-adv-x="1594" 
d="M973 149h549v-149h-730l-11 302h-409l-163 -302h-200l662 1165h809v-149h-538l12 -333h463v-149h-458zM453 452h323l-20 562z" />
    <glyph glyph-name="B.smcp" horiz-adv-x="1105" 
d="M794 608q102 -25 158 -101t56 -173q0 -163 -112.5 -248.5t-310.5 -85.5h-447v1165h407q204 0 317.5 -79t113.5 -238q0 -81 -47.5 -144t-134.5 -96zM545 1014h-220v-343h233q108 0 169.5 43.5t61.5 125.5q0 174 -244 174zM585 150q113 0 174.5 49t61.5 136q0 92 -56 144
t-171 52h-269v-381h260z" />
    <glyph glyph-name="C.smcp" horiz-adv-x="1148" 
d="M1073 377q-20 -179 -141.5 -286t-339.5 -107q-226 0 -360.5 148.5t-134.5 398.5v102q0 251 136.5 399.5t369.5 148.5q211 0 331 -107.5t139 -290.5h-187q-17 122 -82.5 184.5t-200.5 62.5q-157 0 -239 -103.5t-82 -292.5v-103q0 -184 77.5 -290.5t232.5 -106.5
q143 0 209 59.5t85 183.5h187z" />
    <glyph glyph-name="Ccedilla.smcp" horiz-adv-x="1148" 
d="M592 134q143 0 209 59.5t85 183.5h187q-18 -165 -123.5 -270t-293.5 -120l-10 -44q153 -26 153 -173q0 -96 -79 -152.5t-225 -56.5l-7 106q74 0 120 24.5t46 74.5q0 49 -36 68.5t-125 26.5l29 127q-196 23 -310.5 168.5t-114.5 374.5v102q0 251 136.5 399.5t369.5 148.5
q211 0 331 -107.5t139 -290.5h-187q-17 122 -82.5 184.5t-200.5 62.5q-157 0 -239 -103.5t-82 -292.5v-103q0 -184 77.5 -290.5t232.5 -106.5z" />
    <glyph glyph-name="D.smcp" horiz-adv-x="1152" 
d="M499 1165q250 0 403.5 -150.5t153.5 -400.5v-64q0 -251 -155 -400.5t-414 -149.5h-349v1165h361zM870 550v66q0 192 -95 295t-276 103h-174v-864h162q189 0 286 105.5t97 294.5z" />
    <glyph glyph-name="Eth.smcp" horiz-adv-x="1152" 
d="M499 1165q250 0 403.5 -150.5t153.5 -400.5v-64q0 -251 -155 -400.5t-414 -149.5h-349v514h-206v150h206v501h361zM870 550v66q0 192 -95 295t-276 103h-174v-350h245v-150h-245v-364h162q189 0 286 105.5t97 294.5z" />
    <glyph glyph-name="E.smcp" horiz-adv-x="998" 
d="M325 150h618v-150h-805v1165h799v-151h-612v-336h531v-151h-531v-377z" />
    <glyph glyph-name="Eacute.smcp" horiz-adv-x="998" 
d="M863 1566l-269 -293h-150l194 293h225zM325 150h618v-150h-805v1165h799v-151h-612v-336h531v-151h-531v-377z" />
    <glyph glyph-name="Ecircumflex.smcp" horiz-adv-x="998" 
d="M537 1453l-149 -170h-153v11l246 272h112l248 -273v-10h-154zM325 150h618v-150h-805v1165h799v-151h-612v-336h531v-151h-531v-377z" />
    <glyph glyph-name="Edieresis.smcp" horiz-adv-x="998" 
d="M324 1298q-52 0 -81 29.5t-29 74.5q0 46 29 76t81 30t81 -30t29 -76q0 -45 -29 -74.5t-81 -29.5zM754 1296q-52 0 -80.5 29.5t-28.5 74.5q0 46 28.5 76t80.5 30t81.5 -30t29.5 -76q0 -45 -29.5 -74.5t-81.5 -29.5zM325 150h618v-150h-805v1165h799v-151h-612v-336h531
v-151h-531v-377z" />
    <glyph glyph-name="Egrave.smcp" horiz-adv-x="998" 
d="M626 1273h-160l-259 293h226zM325 150h618v-150h-805v1165h799v-151h-612v-336h531v-151h-531v-377z" />
    <glyph glyph-name="F.smcp" horiz-adv-x="971" 
d="M923 1014h-598v-362h518v-152h-518v-500h-187v1165h785v-151z" />
    <glyph glyph-name="G.smcp" horiz-adv-x="1196" 
d="M1078 150q-22 -28 -54 -53.5t-84.5 -53t-133 -43.5t-179.5 -16q-236 0 -382 148.5t-146 407.5v85q0 263 134 409.5t375 146.5q213 0 329 -99t141 -269h-185q-41 217 -283 217q-161 0 -242 -104.5t-81 -298.5v-87q0 -192 92.5 -299t251.5 -107q181 0 261 75v239h-280v143
h466v-441z" />
    <glyph glyph-name="H.smcp" horiz-adv-x="1252" 
d="M927 1165h186v-1165h-186v499h-602v-499h-187v1165h187v-515h602v515z" />
    <glyph glyph-name="I.smcp" horiz-adv-x="489" 
d="M338 0h-187v1165h187v-1165z" />
    <glyph glyph-name="Iacute.smcp" horiz-adv-x="489" 
d="M346 1566h225l-269 -293h-150zM338 0h-187v1165h187v-1165z" />
    <glyph glyph-name="Icircumflex.smcp" horiz-adv-x="489" 
d="M549 1293v-10h-154l-150 170l-149 -170h-153v11l246 272h112zM338 0h-187v1165h187v-1165z" />
    <glyph glyph-name="Idieresis.smcp" horiz-adv-x="489" 
d="M32 1508q52 0 81 -30t29 -76q0 -45 -29 -74.5t-81 -29.5t-81 29.5t-29 74.5q0 46 29 76t81 30zM462 1506q52 0 81.5 -30t29.5 -76q0 -45 -29.5 -74.5t-81.5 -29.5t-80.5 29.5t-28.5 74.5q0 46 28.5 76t80.5 30zM338 0h-187v1165h187v-1165z" />
    <glyph glyph-name="Igrave.smcp" horiz-adv-x="489" 
d="M334 1273h-160l-259 293h226zM338 0h-187v1165h187v-1165z" />
    <glyph glyph-name="J.smcp" horiz-adv-x="975" 
d="M658 1165h188v-826q0 -163 -108.5 -259t-280.5 -96q-186 0 -300 88.5t-114 258.5h188q0 -101 59.5 -149t166.5 -48q91 0 146 55t55 150v826z" />
    <glyph glyph-name="K.smcp" horiz-adv-x="1109" 
d="M885 0l-413 520l-147 -142v-378h-187v1165h187v-554l129 142l395 412h229l-478 -518l512 -647h-227z" />
    <glyph glyph-name="L.smcp" horiz-adv-x="949" 
d="M325 150h583v-150h-770v1165h187v-1015z" />
    <glyph glyph-name="M.smcp" horiz-adv-x="1538" 
d="M1400 1165v-1165h-186v403l19 528l-396 -931h-137l-395 927l19 -524v-403h-186v1165h242l389 -913l389 913h242z" />
    <glyph glyph-name="N.smcp" horiz-adv-x="1251" 
d="M1113 0h-186l-602 878v-878h-187v1165h187l602 -878v878h186v-1165z" />
    <glyph glyph-name="Ntilde.smcp" horiz-adv-x="1251" 
d="M979 1534q0 -108 -61.5 -174.5t-154.5 -66.5q-46 0 -84 15t-59.5 32.5t-54.5 32.5t-70 15q-42 0 -70.5 -32.5t-28.5 -79.5l-125 7q0 108 61.5 177t153.5 69q47 0 92 -24t88.5 -48t87.5 -24q42 0 71 32.5t29 80.5zM1113 0h-186l-602 878v-878h-187v1165h187l602 -878v878
h186v-1165z" />
    <glyph glyph-name="O.smcp" horiz-adv-x="1212" 
d="M1116 548q0 -261 -138.5 -412.5t-370.5 -151.5q-229 0 -370 152t-141 412v68q0 260 140 412.5t369 152.5q233 0 372 -152t139 -413v-68zM931 618q0 196 -85.5 302.5t-240.5 106.5q-150 0 -237 -107t-87 -302v-70q0 -195 88 -303t238 -108q155 0 239.5 106.5t84.5 304.5
v70z" />
    <glyph glyph-name="Oacute.smcp" horiz-adv-x="1212" 
d="M708 1566h225l-269 -293h-150zM1116 548q0 -261 -138.5 -412.5t-370.5 -151.5q-229 0 -370 152t-141 412v68q0 260 140 412.5t369 152.5q233 0 372 -152t139 -413v-68zM931 618q0 196 -85.5 302.5t-240.5 106.5q-150 0 -237 -107t-87 -302v-70q0 -195 88 -303t238 -108
q155 0 239.5 106.5t84.5 304.5v70z" />
    <glyph glyph-name="Ocircumflex.smcp" horiz-adv-x="1212" 
d="M911 1293v-10h-154l-150 170l-149 -170h-153v11l246 272h112zM1116 548q0 -261 -138.5 -412.5t-370.5 -151.5q-229 0 -370 152t-141 412v68q0 260 140 412.5t369 152.5q233 0 372 -152t139 -413v-68zM931 618q0 196 -85.5 302.5t-240.5 106.5q-150 0 -237 -107t-87 -302
v-70q0 -195 88 -303t238 -108q155 0 239.5 106.5t84.5 304.5v70z" />
    <glyph glyph-name="Odieresis.smcp" horiz-adv-x="1212" 
d="M394 1508q52 0 81 -30t29 -76q0 -45 -29 -74.5t-81 -29.5t-81 29.5t-29 74.5q0 46 29 76t81 30zM824 1506q52 0 81.5 -30t29.5 -76q0 -45 -29.5 -74.5t-81.5 -29.5t-80.5 29.5t-28.5 74.5q0 46 28.5 76t80.5 30zM1116 548q0 -261 -138.5 -412.5t-370.5 -151.5
q-229 0 -370 152t-141 412v68q0 260 140 412.5t369 152.5q233 0 372 -152t139 -413v-68zM931 618q0 196 -85.5 302.5t-240.5 106.5q-150 0 -237 -107t-87 -302v-70q0 -195 88 -303t238 -108q155 0 239.5 106.5t84.5 304.5v70z" />
    <glyph glyph-name="Ograve.smcp" horiz-adv-x="1212" 
d="M696 1273h-160l-259 293h226zM1116 548q0 -261 -138.5 -412.5t-370.5 -151.5q-229 0 -370 152t-141 412v68q0 260 140 412.5t369 152.5q233 0 372 -152t139 -413v-68zM931 618q0 196 -85.5 302.5t-240.5 106.5q-150 0 -237 -107t-87 -302v-70q0 -195 88 -303t238 -108
q155 0 239.5 106.5t84.5 304.5v70z" />
    <glyph glyph-name="Oslash.smcp" horiz-adv-x="1212" 
d="M983 1022q133 -152 133 -406v-68q0 -261 -138.5 -412.5t-370.5 -151.5q-153 0 -269 70l-75 -112h-151l128 191q-144 153 -144 415v68q0 260 140 412.5t369 152.5q163 0 283 -77l69 103h150zM281 548q0 -160 60 -263l456 683q-77 59 -192 59q-150 0 -237 -107t-87 -302
v-70zM931 548v70q0 149 -51 249l-452 -678q76 -52 179 -52q155 0 239.5 106.5t84.5 304.5z" />
    <glyph glyph-name="Otilde.smcp" horiz-adv-x="1212" 
d="M962 1534q0 -108 -61.5 -174.5t-154.5 -66.5q-46 0 -84 15t-59.5 32.5t-54.5 32.5t-70 15q-42 0 -70.5 -32.5t-28.5 -79.5l-125 7q0 108 61.5 177t153.5 69q47 0 92 -24t88.5 -48t87.5 -24q42 0 71 32.5t29 80.5zM1116 548q0 -261 -138.5 -412.5t-370.5 -151.5
q-229 0 -370 152t-141 412v68q0 260 140 412.5t369 152.5q233 0 372 -152t139 -413v-68zM931 618q0 196 -85.5 302.5t-240.5 106.5q-150 0 -237 -107t-87 -302v-70q0 -195 88 -303t238 -108q155 0 239.5 106.5t84.5 304.5v70z" />
    <glyph glyph-name="P.smcp" horiz-adv-x="1117" 
d="M606 1165q210 0 328 -101.5t118 -265.5q0 -169 -116.5 -264t-329.5 -95h-281v-439h-187v1165h468zM606 590q132 0 195.5 55.5t63.5 150.5q0 93 -65 155.5t-194 62.5h-281v-424h281z" />
    <glyph glyph-name="Thorn.smcp" horiz-adv-x="1017" 
d="M506 963q210 0 328 -101.5t118 -265.5q0 -169 -116.5 -264.5t-329.5 -95.5h-181v-236h-187v1165h187v-202h181zM506 388q132 0 195.5 55.5t63.5 150.5q0 93 -65 155t-194 62h-181v-423h181z" />
    <glyph glyph-name="Q.smcp" horiz-adv-x="1212" 
d="M1113 -93l-126 -110l-263 199q-57 -12 -123 -12q-229 0 -370.5 152t-141.5 412v68q0 260 140.5 412.5t369.5 152.5q233 0 372 -152t139 -413v-68q0 -164 -56 -286.5t-159 -193.5zM275 548q0 -195 87.5 -303t238.5 -108q155 0 239.5 106.5t84.5 304.5v70
q0 196 -85.5 302.5t-240.5 106.5q-150 0 -237 -107t-87 -302v-70z" />
    <glyph glyph-name="R.smcp" horiz-adv-x="1098" 
d="M775 493l287 -483v-10h-200l-260 450h-277v-450h-187v1165h426q213 0 329 -92t116 -263q0 -114 -61 -194.5t-173 -122.5zM325 1014v-414h244q122 0 187.5 56t65.5 147q0 98 -64 154.5t-194 56.5h-239z" />
    <glyph glyph-name="S.smcp" horiz-adv-x="1056" 
d="M531 505q-207 51 -315.5 134.5t-108.5 221.5q0 141 120 230.5t315 89.5q204 0 324.5 -102t120.5 -253h-187q0 93 -66 149t-194 56q-120 0 -183 -46.5t-63 -122.5q0 -68 66.5 -113t226.5 -85q201 -51 302 -138t101 -226q0 -145 -120.5 -230.5t-321.5 -85.5
q-72 0 -140.5 14t-130.5 44t-108.5 72t-74 102.5t-27.5 132.5h188q0 -110 81.5 -163t211.5 -53q122 0 188 45t66 120q0 77 -57 123t-214 84z" />
    <glyph glyph-name="uni1E9E.smcp" horiz-adv-x="1105" 
d="M668 669q165 -14 257.5 -95t92.5 -218q0 -177 -109 -277t-287 -100q-120 0 -223 51l53 151q82 -51 170 -51q97 0 153 61.5t56 161.5q0 96 -67 139.5t-203 43.5h-84v136l236 296q-79 63 -175 63q-214 0 -214 -280v-751h-186v753q2 428 400 428q121 0 217.5 -48.5
t185.5 -134.5z" />
    <glyph glyph-name="T.smcp" horiz-adv-x="1063" 
d="M1021 1165v-151h-398v-1014h-186v1014h-396v151h980z" />
    <glyph glyph-name="U.smcp" horiz-adv-x="1148" 
d="M1035 1165v-780q0 -191 -131 -296t-329 -105q-204 0 -331.5 104t-127.5 297v780h185v-780q0 -126 73 -188.5t201 -62.5t200.5 62.5t72.5 188.5v780h187z" />
    <glyph glyph-name="Uacute.smcp" horiz-adv-x="1148" 
d="M676 1566h225l-269 -293h-150zM1035 1165v-780q0 -191 -131 -296t-329 -105q-204 0 -331.5 104t-127.5 297v780h185v-780q0 -126 73 -188.5t201 -62.5t200.5 62.5t72.5 188.5v780h187z" />
    <glyph glyph-name="Ucircumflex.smcp" horiz-adv-x="1148" 
d="M879 1293v-10h-154l-150 170l-149 -170h-153v11l246 272h112zM1035 1165v-780q0 -191 -131 -296t-329 -105q-204 0 -331.5 104t-127.5 297v780h185v-780q0 -126 73 -188.5t201 -62.5t200.5 62.5t72.5 188.5v780h187z" />
    <glyph glyph-name="Udieresis.smcp" horiz-adv-x="1148" 
d="M362 1508q52 0 81 -30t29 -76q0 -45 -29 -74.5t-81 -29.5t-81 29.5t-29 74.5q0 46 29 76t81 30zM792 1506q52 0 81.5 -30t29.5 -76q0 -45 -29.5 -74.5t-81.5 -29.5t-80.5 29.5t-28.5 74.5q0 46 28.5 76t80.5 30zM1035 1165v-780q0 -191 -131 -296t-329 -105
q-204 0 -331.5 104t-127.5 297v780h185v-780q0 -126 73 -188.5t201 -62.5t200.5 62.5t72.5 188.5v780h187z" />
    <glyph glyph-name="Ugrave.smcp" horiz-adv-x="1148" 
d="M664 1273h-160l-259 293h226zM1035 1165v-780q0 -191 -131 -296t-329 -105q-204 0 -331.5 104t-127.5 297v780h185v-780q0 -126 73 -188.5t201 -62.5t200.5 62.5t72.5 188.5v780h187z" />
    <glyph glyph-name="V.smcp" horiz-adv-x="1129" 
d="M909 1165h200l-457 -1165h-175l-457 1165h201l317 -874l26 -94l26 92z" />
    <glyph glyph-name="W.smcp" horiz-adv-x="1557" 
d="M1336 1165h185l-298 -1165h-174l-260 918v3l-1 -3l-267 -918h-175l-297 1165h185l198 -870l11 -78l14 61l247 887h167l243 -890l13 -58l12 80z" />
    <glyph glyph-name="X.smcp" horiz-adv-x="1109" 
d="M552 729l286 436h222l-394 -577l409 -588h-223l-297 444l-295 -444h-221l405 588l-397 577h221z" />
    <glyph glyph-name="Y.smcp" horiz-adv-x="1067" 
d="M1053 1165l-430 -756v-409h-186v419l-423 746h209l310 -575l310 575h210z" />
    <glyph glyph-name="Yacute.smcp" horiz-adv-x="1067" 
d="M859 1566l-269 -293h-150l194 293h225zM1053 1165l-430 -756v-409h-186v419l-423 746h209l310 -575l310 575h210z" />
    <glyph glyph-name="Z.smcp" horiz-adv-x="1059" 
d="M303 150h690v-150h-921v123l665 891h-657v151h889v-119z" />
    <glyph glyph-name="alpha.alt" horiz-adv-x="1220" 
d="M1114 0h-178l-38 240q-106 -261 -377 -261q-197 0 -309 144t-112 378v21q0 172 48.5 302t145 204t229.5 74q266 0 372 -254l34 234h178l-106 -542zM849 521v37q-12 79 -32.5 145.5t-53.5 124.5t-82.5 91t-111.5 33q-73 0 -128.5 -34t-88.5 -94t-49 -136t-16 -166v-21
q0 -166 69 -269t211 -103q209 0 282 392z" />
    <glyph glyph-name="uni05D2.001" horiz-adv-x="792" 
d="M67 -8q-32 0 -47 3v171q27 -4 58 -4q144 4 234 87.5t115 214.5v565h-266v149h449v-608q0 -93 19 -180l82 -390h-175l-69 330h-7q-19 -137 -130.5 -237.5t-262.5 -100.5z" />
    <glyph glyph-name="uni05E8.001" horiz-adv-x="1002" 
d="M680 0v822q0 96 -56 151.5t-154 55.5h-396v149h401q184 0 287.5 -97.5t103.5 -272.5v-808h-186z" />
    <glyph glyph-name="uni05E8.002" horiz-adv-x="1002" 
d="M680 0v822q0 96 -56 151.5t-154 55.5h-396v149h401q184 0 287.5 -97.5t103.5 -272.5v-808h-186z" />
    <glyph glyph-name="uni05E8.003" horiz-adv-x="1002" 
d="M680 0v822q0 96 -56 151.5t-154 55.5h-396v149h401q184 0 287.5 -97.5t103.5 -272.5v-808h-186z" />
    <glyph glyph-name="uni05E8.004" horiz-adv-x="1002" 
d="M680 0v822q0 96 -56 151.5t-154 55.5h-396v149h401q184 0 287.5 -97.5t103.5 -272.5v-808h-186z" />
    <glyph glyph-name="zero.frac" 
d="M670 989q0 -167 -78.5 -251.5t-214.5 -84.5q-138 0 -217.5 84.5t-79.5 251.5v139q0 166 79 251t216 85t216 -85t79 -251v-139zM512 1142q0 194 -137 194q-136 0 -136 -194v-166q0 -196 138 -196q135 0 135 196v166z" />
    <glyph glyph-name="four.frac" 
d="M700 963v-129h-107v-170h-159v170h-373l-7 101l377 518h162v-490h107zM213 963h221v287l-15 -25z" />
    <glyph glyph-name="five.frac" 
d="M112 1052l50 401h479v-130h-348l-23 -172q66 29 139 29q128 0 199.5 -68.5t71.5 -189.5q0 -115 -75.5 -192t-218.5 -77q-118 0 -203.5 61.5t-91.5 165.5h156q12 -100 139 -100q69 0 102 39.5t33 104.5q0 64 -39.5 102t-110.5 38q-34 0 -61 -7.5t-39 -14.5t-32 -21z" />
    <glyph glyph-name="six.frac" 
d="M431 1188q122 0 187.5 -74t65.5 -190q0 -118 -79.5 -194.5t-212.5 -76.5q-141 0 -223.5 84.5t-82.5 228.5v56q0 210 114.5 325.5t330.5 115.5h22v-130h-11q-272 0 -296 -221q74 76 185 76zM389 780q62 0 99.5 40.5t37.5 102.5q0 63 -36 100.5t-102 37.5q-49 0 -87.5 -21
t-56.5 -54v-35q0 -82 40 -126.5t105 -44.5z" />
    <glyph glyph-name="seven.frac" 
d="M678 1364l-349 -700h-167l349 661h-452v128h619v-89z" />
    <glyph glyph-name="eight.frac" 
d="M533 1070q65 -27 102 -76t37 -114q0 -109 -82.5 -168t-213.5 -59t-214 59t-83 168q0 65 37 114t102 76q-56 27 -87.5 71.5t-31.5 102.5q0 104 76 162t200 58q123 0 200 -58t77 -162q0 -58 -31.5 -102.5t-87.5 -71.5zM375 1337q-55 0 -86.5 -27.5t-31.5 -74.5t32 -75
t87 -28q54 0 86 28t32 75q0 46 -32.5 74t-86.5 28zM376 780q62 0 100 30t38 82q0 51 -38.5 81t-100.5 30q-63 0 -100 -30t-37 -81q0 -52 37.5 -82t100.5 -30z" />
    <glyph glyph-name="nine.frac" 
d="M366 1464q139 0 217.5 -85t78.5 -237v-52q0 -433 -438 -433h-15v126h14q134 0 201 49t78 152q-68 -65 -170 -65q-124 0 -191.5 72.5t-67.5 191.5q0 118 81 199.5t212 81.5zM368 1040q47 0 82.5 20t53.5 51v60q0 80 -38 122.5t-100 42.5q-61 0 -98 -44.5t-37 -108.5
q0 -63 35.5 -103t101.5 -40z" />
    <glyph glyph-name="zero.sup" 
d="M670 325q0 -167 -78.5 -251.5t-214.5 -84.5q-138 0 -217.5 84.5t-79.5 251.5v139q0 166 79 251t216 85t216 -85t79 -251v-139zM512 478q0 194 -137 194q-136 0 -136 -194v-166q0 -196 138 -196q135 0 135 196v166z" />
    <glyph glyph-name="one.sup" 
d="M496 0h-158v603l-215 -58v128l355 116h18v-789z" />
    <glyph glyph-name="two.sup" 
d="M684 0h-600v108l289 271q120 112 120 183q0 50 -32.5 80.5t-90.5 30.5q-72 0 -108.5 -37t-36.5 -97h-159q0 111 81.5 186t218.5 75q134 0 210 -63.5t76 -172.5q0 -73 -45 -136t-146 -154l-175 -147h398v-127z" />
    <glyph glyph-name="three.sup" 
d="M517 405q150 -41 150 -185q0 -108 -86 -169.5t-220 -61.5q-124 0 -211 59.5t-87 173.5h158q0 -46 40.5 -76t104.5 -30q68 0 105 30.5t37 81.5q0 116 -158 116h-85v115h85q71 0 108 30t37 80q0 47 -33 75.5t-99 28.5q-57 0 -94 -25.5t-37 -68.5h-159q0 100 82 160.5
t205 60.5q134 0 213.5 -58.5t79.5 -165.5q0 -56 -35.5 -101.5t-100.5 -69.5z" />
    <glyph glyph-name="four.sup" 
d="M700 299v-129h-107v-170h-159v170h-373l-7 101l377 518h162v-490h107zM213 299h221v287l-15 -25z" />
    <glyph glyph-name="five.sup" 
d="M112 388l50 401h479v-130h-348l-23 -172q66 29 139 29q128 0 199.5 -68.5t71.5 -189.5q0 -115 -75.5 -192t-218.5 -77q-118 0 -203.5 61.5t-91.5 165.5h156q12 -100 139 -100q69 0 102 39.5t33 104.5q0 64 -39.5 102t-110.5 38q-34 0 -61 -7.5t-39 -14.5t-32 -21z" />
    <glyph glyph-name="six.sup" 
d="M431 524q122 0 187.5 -74t65.5 -190q0 -118 -79.5 -194.5t-212.5 -76.5q-141 0 -223.5 84.5t-82.5 228.5v56q0 210 114.5 325.5t330.5 115.5h22v-130h-11q-272 0 -296 -221q74 76 185 76zM389 116q62 0 99.5 40.5t37.5 102.5q0 63 -36 100.5t-102 37.5q-49 0 -87.5 -21
t-56.5 -54v-35q0 -82 40 -126.5t105 -44.5z" />
    <glyph glyph-name="seven.sup" 
d="M678 700l-349 -700h-167l349 661h-452v128h619v-89z" />
    <glyph glyph-name="eight.sup" 
d="M533 406q65 -27 102 -76t37 -114q0 -109 -82.5 -168t-213.5 -59t-214 59t-83 168q0 65 37 114t102 76q-56 27 -87.5 71.5t-31.5 102.5q0 104 76 162t200 58q123 0 200 -58t77 -162q0 -58 -31.5 -102.5t-87.5 -71.5zM375 673q-55 0 -86.5 -27.5t-31.5 -74.5t32 -75t87 -28
q54 0 86 28t32 75q0 46 -32.5 74t-86.5 28zM376 116q62 0 100 30t38 82q0 51 -38.5 81t-100.5 30q-63 0 -100 -30t-37 -81q0 -52 37.5 -82t100.5 -30z" />
    <glyph glyph-name="nine.sup" 
d="M366 800q139 0 217.5 -85t78.5 -237v-52q0 -433 -438 -433h-15v126h14q134 0 201 49t78 152q-68 -65 -170 -65q-124 0 -191.5 72.5t-67.5 191.5q0 118 81 199.5t212 81.5zM368 376q47 0 82.5 20t53.5 51v60q0 80 -38 122.5t-100 42.5q-61 0 -98 -44.5t-37 -108.5
q0 -63 35.5 -103t101.5 -40z" />
    <glyph glyph-name="zero.tnum" horiz-adv-x="1280" 
 />
    <glyph glyph-name="one.tnum" horiz-adv-x="981" 
 />
    <glyph glyph-name="two.tnum" horiz-adv-x="1154" 
 />
    <glyph glyph-name="three.tnum" horiz-adv-x="1112" 
 />
    <glyph glyph-name="four.tnum" horiz-adv-x="1231" 
 />
    <glyph glyph-name="five.tnum" horiz-adv-x="1131" 
 />
    <glyph glyph-name="six.tnum" horiz-adv-x="1151" 
d="M629 955q105 0 187 -41t131 -109.5t74 -152.5t25 -177q0 -140 -50 -250.5t-154 -177.5t-248 -67q-92 0 -169.5 32t-131.5 86.5t-92.5 126t-56.5 151t-18 162.5v88q0 133 18 246t66 224t124 188.5t201.5 125.5t288.5 48h16v-156h-16q-103 0 -186.5 -26t-139.5 -70.5
t-95.5 -106.5t-59.5 -129.5t-27 -145.5q115 131 313 131zM594 132q126 0 197 92t71 242q0 90 -28 164.5t-89 123.5t-147 49q-96 0 -175 -57t-110 -144v-69q0 -186 82.5 -293.5t198.5 -107.5z" />
    <glyph glyph-name="seven.tnum" horiz-adv-x="1070" 
 />
    <glyph glyph-name="eight.tnum" horiz-adv-x="1151" 
d="M791 750q115 -49 181.5 -143t66.5 -213q0 -194 -130.5 -304t-332.5 -110q-203 0 -333 110t-130 304q0 120 65 214.5t179 142.5q-98 47 -154.5 133t-56.5 193q0 186 119.5 292.5t310.5 106.5t310 -106.5t119 -292.5q0 -107 -57.5 -193t-156.5 -134zM576 1326
q-109 0 -176 -68.5t-67 -183.5q0 -113 66.5 -181t176.5 -68q109 0 175.5 68t66.5 181q0 110 -67.5 181t-174.5 71zM576 130q129 0 202.5 71t73.5 197q0 122 -77.5 199t-200.5 77q-125 0 -199.5 -76.5t-74.5 -199.5q0 -126 73.5 -197t202.5 -71z" />
    <glyph glyph-name="nine.tnum" horiz-adv-x="1210" 
 />
    <glyph glyph-name="zero.smcp" horiz-adv-x="1040" 
d="M940 497q0 -255 -111 -384t-308 -129t-309.5 129t-112.5 384v174q0 254 111.5 382t308.5 128q198 0 309.5 -127.5t111.5 -382.5v-174zM752 699q0 331 -233 331q-114 0 -173.5 -83.5t-59.5 -247.5v-228q0 -165 61 -251t174 -86q114 0 172.5 85.5t58.5 251.5v228z" />
    <glyph glyph-name="one.smcp" horiz-adv-x="1040" 
d="M671 0h-188v945l-331 -99v158l492 164h27v-1168z" />
    <glyph glyph-name="two.smcp" horiz-adv-x="1040" 
d="M971 0h-866v130l427 414q110 102 153 169t43 129q0 82 -56.5 135t-153.5 53q-127 0 -189.5 -58.5t-62.5 -161.5h-188q0 159 118 265t322 106q183 0 290 -92t107 -242q0 -53 -17.5 -103.5t-58.5 -106.5t-76.5 -96.5t-101.5 -109.5l-327 -281h637v-150z" />
    <glyph glyph-name="three.smcp" horiz-adv-x="1040" 
d="M715 598q213 -63 213 -273q0 -159 -119.5 -250t-307.5 -91q-116 0 -210 35.5t-153.5 112t-59.5 182.5h187q0 -80 65 -130t172 -50q111 0 174.5 50t63.5 140q0 100 -69.5 148t-195.5 48h-123v147h123q120 0 182.5 50.5t62.5 133.5q0 85 -55 132t-163 47q-99 0 -161.5 -46
t-62.5 -122h-187q0 139 115 229t295 90q186 0 296 -85.5t110 -244.5q0 -77 -48.5 -146t-143.5 -107z" />
    <glyph glyph-name="four.smcp" horiz-adv-x="1040" 
d="M997 413v-150h-175v-263h-187v263h-584l-3 114l578 788h196v-752h175zM248 413h387v509l-26 -47z" />
    <glyph glyph-name="five.smcp" horiz-adv-x="1040" 
d="M164 580l69 585h680v-161h-523l-37 -290q103 48 214 48q183 0 291 -104.5t108 -284.5q0 -171 -107 -280t-312 -109q-167 0 -286 86t-133 242h180q12 -88 75.5 -133t163.5 -45q113 0 172.5 66t59.5 178q0 104 -68.5 169.5t-186.5 65.5q-53 0 -94 -11t-60.5 -22.5
t-55.5 -36.5z" />
    <glyph glyph-name="six.smcp" horiz-adv-x="1039" 
d="M581 771q94 0 167.5 -31.5t118 -86.5t67 -123.5t22.5 -147.5q0 -174 -110 -286t-303 -112q-136 0 -235 62.5t-146.5 164t-47.5 227.5v84q0 112 19 205.5t65.5 177.5t117.5 142t181.5 91.5t251.5 33.5h20v-155h-15q-114 0 -199.5 -27.5t-138 -77.5t-80 -114.5
t-33.5 -145.5q49 54 120.5 86.5t157.5 32.5zM541 135q107 0 169 67.5t62 174.5q0 106 -60 175t-170 69q-79 0 -145 -39.5t-96 -101.5v-42q0 -142 69.5 -222.5t170.5 -80.5z" />
    <glyph glyph-name="seven.smcp" horiz-adv-x="1040" 
d="M961 1061l-535 -1061h-197l534 1014h-697v151h895v-104z" />
    <glyph glyph-name="eight.smcp" horiz-adv-x="1040" 
d="M729 600q99 -40 156 -113.5t57 -169.5q0 -157 -119 -245t-303 -88q-186 0 -304.5 87.5t-118.5 245.5q0 96 56.5 170t154.5 114q-85 39 -133 106t-48 152q0 151 108 236.5t283 85.5q174 0 284 -85.5t110 -236.5q0 -85 -49 -152.5t-134 -106.5zM518 1030q-93 0 -148 -48
t-55 -130t55.5 -130.5t149.5 -48.5q93 0 149.5 49t56.5 130q0 78 -58 128t-150 50zM520 134q107 0 171 51.5t64 141.5q0 88 -65.5 142t-171.5 54q-107 0 -170.5 -54t-63.5 -142q0 -90 63.5 -141.5t172.5 -51.5z" />
    <glyph glyph-name="nine.smcp" horiz-adv-x="1040" 
d="M501 1181q106 0 188 -36.5t132.5 -101.5t76 -150t25.5 -186v-69q0 -645 -631 -645h-19l1 153h18q419 0 443 347q-100 -111 -271 -111q-94 0 -167.5 31.5t-118.5 86t-68.5 124t-23.5 149.5q0 85 27.5 158.5t79 129.5t131 88t177.5 32zM497 528q81 0 146 41t94 104v65
q0 137 -68 214.5t-168 77.5q-106 0 -168 -73t-62 -180q0 -104 59 -176.5t167 -72.5z" />
    <glyph glyph-name="ampersand.smcp" horiz-adv-x="1238" 
d="M1170 0h-212l-93 98q-154 -114 -377 -114q-174 0 -279.5 83.5t-105.5 210.5q0 96 45 162.5t140 135.5l72 51q-38 40 -55.5 59t-44.5 52.5t-38 57t-20.5 56.5t-9.5 67q0 117 87.5 189.5t229.5 72.5q139 0 226 -76.5t87 -184.5q0 -72 -39.5 -135.5t-103.5 -110.5l-85 -61
l267 -284q67 113 67 270h170q0 -221 -127 -387zM374 906q0 -23 7.5 -45t28.5 -49t34 -41t47 -50l64 46q84 60 84 139q0 53 -36.5 87.5t-100.5 34.5q-59 0 -93.5 -37t-34.5 -85zM505 137q146 0 251 75l-293 307l-84 -60q-91 -65 -91 -156q0 -76 55.5 -121t161.5 -45z" />
    <glyph glyph-name="dollar.smcp" horiz-adv-x="1056" 
d="M990 300q0 -130 -98 -213t-266 -99v-225h-150v225q-110 11 -200 53t-149.5 122t-59.5 186h188q0 -110 81.5 -163t211.5 -53q122 0 188 45t66 120q0 77 -57 123t-214 84q-207 51 -315.5 134.5t-108.5 221.5q0 128 100.5 214.5t268.5 102.5v217h150v-219
q168 -21 264.5 -118.5t96.5 -231.5h-187q0 93 -66 149t-194 56q-120 0 -183 -46.5t-63 -122.5q0 -68 66.5 -113t226.5 -85q201 -51 302 -138t101 -226z" />
    <glyph glyph-name="Euro.smcp" horiz-adv-x="997" 
d="M698 134q97 0 202 29l27 -148q-113 -31 -229 -31q-209 0 -332.5 108t-143.5 314h-155v121h151v109h-151v121h155q21 205 144 314.5t330 109.5q99 0 231 -31l-21 -147q-91 28 -210 28q-256 0 -288 -274h409v-121h-413v-109h413v-121h-409q32 -272 290 -272z" />
    <glyph glyph-name="sterling.smcp" horiz-adv-x="1077" 
d="M349 151h659l-1 -151h-893v151h10q51 15 72 111t17 204l-1 35h-163v121h159l-4 122q-7 204 96.5 320.5t281.5 116.5q189 0 288 -104.5t99 -282.5h-187q0 121 -55.5 177t-144.5 56q-93 0 -144 -73.5t-47 -209.5l4 -122h403v-121h-400l1 -35q7 -200 -50 -315z" />
    <glyph glyph-name="yen.smcp" horiz-adv-x="929" 
d="M915 1165l-300 -628h212v-120h-270l-3 -6v-69h273v-120h-273v-222h-186v222h-274v120h274v75h-274v120h220l-300 628h200l251 -574l252 574h198z" />
    <glyph glyph-name="crossbar" horiz-adv-x="920" 
d="M781 652h-638v150h638v-150z" />
    </font>
</defs>
</svg>
