<?xml version="1.0" standalone="no"?>
<!DOCTYPE svg PUBLIC "-//W3C//DTD SVG 1.1//EN" "http://www.w3.org/Graphics/SVG/1.1/DTD/svg11.dtd" >
<svg xmlns="http://www.w3.org/2000/svg" xmlns:xlink="http://www.w3.org/1999/xlink" version="1.1">
<metadata>
Created by FontForge 20170731 at Mon Nov  6 22:47:09 2017
 By Aleksey,,,
Copyright 2014 The Heebo Project Authors.
</metadata>
<defs>
<font id="Heebo-Light" horiz-adv-x="740" >
  <font-face 
    font-family="Heebo Light"
    font-weight="300"
    font-stretch="normal"
    units-per-em="2048"
    panose-1="0 0 4 0 0 0 0 0 0 0"
    ascent="1638"
    descent="-410"
    x-height="1082"
    cap-height="1456"
    bbox="-899 -628 1824 2146"
    underline-thickness="100"
    underline-position="-350"
    unicode-range="U+0020-FB4F"
  />
<missing-glyph horiz-adv-x="1351" 
d="M1107 2146v-2701h-856v2701h856zM899 1965h-445v-89h175v-100h-178v-89h448v89h-178v100h178v89zM721 1617h-270v-281h448v92h-178v189zM629 1525v-97h-89v97h89zM899 1263h-448v-89h178v-100h-178v-89h270v189h178v89zM899 1101h-89v-179h-359v-91h448v270zM899 771
h-270v-151h92v62h89v-127h-270v216h-89v-305h448v305zM899 304h-448v-305h448v305zM810 215v-127h-270v127h270zM899 -63h-448v-90h189l-189 -126v-90h448v90h-275l189 126h86v90z" />
    <glyph glyph-name=".notdef" horiz-adv-x="1351" 
d="M1107 2146v-2701h-856v2701h856zM899 1965h-445v-89h175v-100h-178v-89h448v89h-178v100h178v89zM721 1617h-270v-281h448v92h-178v189zM629 1525v-97h-89v97h89zM899 1263h-448v-89h178v-100h-178v-89h270v189h178v89zM899 1101h-89v-179h-359v-91h448v270zM899 771
h-270v-151h92v62h89v-127h-270v216h-89v-305h448v305zM899 304h-448v-305h448v305zM810 215v-127h-270v127h270zM899 -63h-448v-90h189l-189 -126v-90h448v90h-275l189 126h86v90z" />
    <glyph glyph-name=".null" horiz-adv-x="0" 
 />
    <glyph glyph-name="nonmarkingreturn" horiz-adv-x="682" 
 />
    <glyph glyph-name="space" unicode=" " horiz-adv-x="499" 
 />
    <glyph glyph-name="exclam" unicode="!" horiz-adv-x="462" 
d="M284 406h-110l-7 1050h124zM236 151q38 0 60.5 -22.5t22.5 -57.5t-22.5 -57.5t-60.5 -22.5q-37 0 -59.5 22.5t-22.5 57.5t22.5 57.5t59.5 22.5z" />
    <glyph glyph-name="quotedbl" unicode="&#x22;" horiz-adv-x="589" 
d="M244 1397l-20 -314h-81l3 307v146h98v-139zM479 1397l-19 -314h-81l3 311v142h97v-139z" />
    <glyph glyph-name="numbersign" unicode="#" horiz-adv-x="1191" 
d="M1201 945h-247l-83 -441h255v-94h-273l-77 -410h-100l77 410h-313l-77 -410h-100l77 410h-255v94h273l83 441h-280v95h298l78 416h100l-78 -416h313l79 416h100l-79 -416h229v-95zM771 504l83 441h-313l-83 -441h313z" />
    <glyph glyph-name="dollar" unicode="$" horiz-adv-x="1136" 
d="M1021 361q0 -165 -103 -265.5t-280 -114.5v-189h-102v188q-84 6 -156 32t-133 76.5t-96 135t-35 195.5h119q0 -75 21 -133.5t54.5 -95.5t79.5 -61.5t93 -34t98 -9.5q147 0 234 78t87 196q0 111 -72 181.5t-255 133.5q-102 33 -172 67.5t-126 83.5t-83 116t-27 154
q0 163 100 264.5t272 115.5v202h102v-202q176 -16 273 -131t97 -316h-119q0 152 -80 247.5t-224 95.5q-147 0 -224 -77.5t-77 -195.5q0 -77 26.5 -129t98.5 -98t204 -90q81 -27 139.5 -53t111 -62t85 -78t51 -99.5t18.5 -127.5z" />
    <glyph glyph-name="percent" unicode="%" horiz-adv-x="1514" 
d="M110 1176q0 127 79 214t206 87t206 -87t79 -214v-77q0 -126 -78 -212.5t-205 -86.5q-129 0 -208 86.5t-79 212.5v77zM206 1099q0 -87 49.5 -149.5t141.5 -62.5q89 0 137.5 62t48.5 150v77q0 88 -49 151t-139 63t-139.5 -63t-49.5 -151v-77zM435 121l-75 48l711 1138
l75 -48zM842 357q0 126 79 213t206 87q128 0 206.5 -86.5t78.5 -213.5v-78q0 -126 -78 -213t-205 -87q-129 0 -208 86.5t-79 213.5v78zM939 279q0 -88 49 -150.5t141 -62.5q89 0 137.5 62.5t48.5 150.5v78q0 91 -48.5 152t-139.5 61q-90 0 -139 -61t-49 -152v-78z" />
    <glyph glyph-name="ampersand" unicode="&#x26;" horiz-adv-x="1261" 
d="M1232 0h-145l-126 146q-80 -78 -184 -122t-216 -44q-208 0 -330.5 107.5t-122.5 283.5q0 63 20.5 120t62.5 108.5t87 93t112 92.5l14 11q-83 102 -124 183t-41 166q0 153 90.5 242.5t243.5 89.5q142 0 226.5 -82.5t84.5 -203.5q0 -156 -194 -305l-132 -101l401 -467
q91 148 91 334h111q0 -249 -129 -419zM359 1149q0 -122 134 -287l132 99q70 52 108 106.5t38 123.5q0 76 -53 130t-145 54q-101 0 -157.5 -65t-56.5 -161zM561 82q91 0 176 38t153 109l-406 472q-3 3 -7.5 8t-6.5 8l-47 -36q-195 -160 -195 -310q0 -123 86 -206t247 -83z
" />
    <glyph glyph-name="quotesingle" unicode="'" horiz-adv-x="349" 
d="M227 1396l-18 -305h-89l5 296v149h102v-140z" />
    <glyph glyph-name="parenleft" unicode="(" horiz-adv-x="654" 
d="M141 589q0 187 41 363.5t107.5 308.5t145 228t158.5 144l29 -82q-68 -47 -131.5 -137.5t-115.5 -212t-83 -281t-31 -328.5v-20q0 -331 108 -595.5t253 -369.5l-29 -77q-81 48 -158.5 141.5t-144.5 224.5t-108 308.5t-41 369.5v15z" />
    <glyph glyph-name="parenright" unicode=")" horiz-adv-x="668" 
d="M514 574q0 -192 -41 -369.5t-108 -308.5t-144.5 -224.5t-158.5 -141.5l-29 77q92 65 172.5 199t134.5 338t54 428v20q0 169 -32 329.5t-84.5 283t-115.5 213t-129 138.5l29 77q80 -48 158.5 -144t145 -228t107.5 -308.5t41 -363.5v-15z" />
    <glyph glyph-name="asterisk" unicode="*" horiz-adv-x="869" 
d="M362 1001l-333 107l33 101l331 -122l-4 369h105l-9 -372l325 127l33 -102l-334 -114l224 -295l-86 -63l-214 306l-204 -304l-85 61z" />
    <glyph glyph-name="plus" unicode="+" horiz-adv-x="1156" 
d="M1074 741v-113h-444v-482h-120v482h-434v113h434v465h120v-465h444z" />
    <glyph glyph-name="comma" unicode="," horiz-adv-x="393" 
d="M272 49q0 -92 -37.5 -177.5t-102.5 -144.5l-71 52q48 65 70.5 127.5t22.5 139.5v143h118v-140z" />
    <glyph glyph-name="hyphen" unicode="-" horiz-adv-x="586" 
d="M528 592h-479v102h479v-102z" />
    <glyph glyph-name="period" unicode="." horiz-adv-x="489" 
d="M230 156q39 0 62.5 -23.5t23.5 -59.5q0 -35 -23.5 -58.5t-62.5 -23.5t-61.5 23t-22.5 59t22.5 59.5t61.5 23.5z" />
    <glyph glyph-name="slash" unicode="/" horiz-adv-x="814" 
d="M139 -125h-109l608 1581h109z" />
    <glyph glyph-name="zero" unicode="0" horiz-adv-x="1136" 
d="M1015 608q0 -315 -115 -471.5t-331 -156.5q-214 0 -331.5 157t-117.5 471v245q0 313 116.5 468.5t330.5 155.5q216 0 332 -155t116 -469v-245zM896 868q0 250 -82.5 378.5t-246.5 128.5q-162 0 -244.5 -128.5t-82.5 -378.5v-274q0 -247 84 -379.5t245 -132.5
q163 0 245 131.5t82 380.5v274z" />
    <glyph glyph-name="one" unicode="1" horiz-adv-x="1136" 
d="M694 0h-120v1312l-395 -147v112l495 185h20v-1462z" />
    <glyph glyph-name="two" unicode="2" horiz-adv-x="1136" 
d="M1050 0h-913v93l477 540q134 152 188.5 251.5t54.5 190.5q0 135 -79.5 217t-224.5 82q-150 0 -239 -94.5t-89 -243.5h-120q0 187 122 313.5t326 126.5q197 0 310.5 -104t113.5 -286q0 -83 -43.5 -179.5t-100 -172.5t-142.5 -174l-407 -458h766v-102z" />
    <glyph glyph-name="three" unicode="3" horiz-adv-x="1136" 
d="M736 746q139 -38 207.5 -130.5t68.5 -219.5q0 -194 -124.5 -305t-322.5 -111q-90 0 -172.5 26.5t-148.5 76.5t-105.5 131t-39.5 181h120q0 -139 96.5 -226t249.5 -87q156 0 242 80.5t86 229.5q0 152 -98 225.5t-270 73.5h-121v103h121q162 0 251.5 80t89.5 203
q0 137 -77 217t-229 80q-140 0 -230 -82t-90 -218h-119q0 176 124.5 289t314.5 113q195 0 310 -106t115 -297q0 -103 -65 -193t-184 -134z" />
    <glyph glyph-name="four" unicode="4" horiz-adv-x="1136" 
d="M1099 470v-102h-227v-368h-120v368h-684v69l673 1019h131v-986h227zM215 470h537v831l-53 -92z" />
    <glyph glyph-name="five" unicode="5" horiz-adv-x="1136" 
d="M219 747l71 709h728v-111h-625l-52 -492q44 32 117.5 56.5t156.5 24.5q196 0 314 -127t118 -343q0 -220 -109 -352t-327 -132q-88 0 -163.5 25t-135.5 73.5t-97.5 126.5t-46.5 178h115q16 -147 100.5 -224t227.5 -77q154 0 235 98.5t81 281.5q0 160 -88.5 261.5
t-244.5 101.5q-97 0 -159.5 -26t-121.5 -79z" />
    <glyph glyph-name="six" unicode="6" horiz-adv-x="1136" 
d="M614 956q102 0 183 -38.5t132 -104.5t77.5 -151.5t26.5 -183.5q0 -141 -51 -253t-150 -178.5t-230 -66.5q-142 0 -251 73t-165 194t-56 268v128q0 253 75 435.5t233 285.5t388 103h18v-104h-18q-258 0 -407.5 -154t-166.5 -428q59 83 153.5 129t208.5 46zM602 82
q142 0 227 112t85 279q0 106 -34 190.5t-107.5 137.5t-177.5 53q-118 0 -216 -69.5t-129 -172.5v-99q0 -197 100.5 -314t251.5 -117z" />
    <glyph glyph-name="seven" unicode="7" horiz-adv-x="1136" 
d="M1034 1388l-622 -1388h-124l617 1354h-828v102h957v-68z" />
    <glyph glyph-name="eight" unicode="8" horiz-adv-x="1136" 
d="M757 748q126 -44 201 -140t75 -222q0 -192 -130 -299t-333 -107q-133 0 -236.5 45.5t-165.5 138.5t-62 222q0 127 73.5 223t198.5 139q-108 43 -171 131.5t-63 202.5q0 185 118 289.5t306 104.5q187 0 307 -104.5t120 -289.5q0 -114 -64.5 -202t-173.5 -132zM263 1082
q0 -129 85.5 -206.5t220.5 -77.5q134 0 220.5 77.5t86.5 206.5q0 127 -88 209.5t-220 82.5q-135 0 -220 -79t-85 -213zM570 82q154 0 248.5 80.5t94.5 223.5q0 138 -97.5 224t-247.5 86q-151 0 -246.5 -85.5t-95.5 -224.5q0 -143 94.5 -223.5t249.5 -80.5z" />
    <glyph glyph-name="nine" unicode="9" horiz-adv-x="1136" 
d="M541 1476q227 0 345.5 -158t118.5 -423v-116q0 -790 -677 -790h-26l1 104h25q543 0 557 582q-62 -91 -157.5 -144.5t-208.5 -53.5q-99 0 -179.5 41t-131.5 109.5t-78.5 155.5t-27.5 182q0 141 51.5 256.5t152.5 185t235 69.5zM534 580q128 0 221 74.5t130 181.5v71
q0 224 -93.5 345t-247.5 121q-98 0 -173 -56t-113 -147t-38 -200q0 -102 35 -189.5t108 -144t171 -56.5z" />
    <glyph glyph-name="colon" unicode=":" horiz-adv-x="430" 
d="M213 1079q39 0 62.5 -23.5t23.5 -59.5q0 -35 -23.5 -58.5t-62.5 -23.5t-61.5 23t-22.5 59t22.5 59.5t61.5 23.5zM211 156q39 0 62.5 -23.5t23.5 -59.5q0 -35 -23.5 -58.5t-62.5 -23.5t-61.5 23t-22.5 59t22.5 59.5t61.5 23.5z" />
    <glyph glyph-name="semicolon" unicode=";" horiz-adv-x="399" 
d="M202 1079q39 0 62.5 -23.5t23.5 -59.5q0 -35 -23.5 -58.5t-62.5 -23.5t-61.5 23t-22.5 59t22.5 59.5t61.5 23.5zM272 49q0 -92 -37.5 -177.5t-102.5 -144.5l-71 52q48 65 70.5 127.5t22.5 139.5v143h118v-140z" />
    <glyph glyph-name="less" unicode="&#x3c;" horiz-adv-x="1047" 
d="M905 1083v-125l-696 -302l696 -300v-126l-828 379v96z" />
    <glyph glyph-name="equal" unicode="=" horiz-adv-x="1133" 
d="M984 829h-834v106h834v-106zM984 418h-834v106h834v-106z" />
    <glyph glyph-name="greater" unicode="&#x3e;" horiz-adv-x="1062" 
d="M124 1086l845 -378v-97l-845 -379v124l711 304l-711 302v124z" />
    <glyph glyph-name="question" unicode="?" horiz-adv-x="930" 
d="M376 405q1 124 36 197.5t129 164.5q91 90 119 128q64 90 64 207q0 123 -65 195.5t-187 72.5q-118 0 -192.5 -68.5t-75.5 -185.5h-120q2 166 112.5 263t275.5 97q176 0 274 -102t98 -271q0 -85 -32 -161.5t-79 -133t-125 -127.5q-112 -96 -112 -276h-120zM442 151
q38 0 60.5 -22.5t22.5 -57.5t-22.5 -57.5t-60.5 -22.5q-37 0 -59.5 22.5t-22.5 57.5t22.5 57.5t59.5 22.5z" />
    <glyph glyph-name="at" unicode="@" horiz-adv-x="1871" 
d="M985 1421q262 0 439 -111.5t258 -314t69 -482.5q-4 -99 -27.5 -190t-68.5 -170t-120.5 -126t-172.5 -47q-96 0 -157.5 51.5t-81.5 144.5q-54 -96 -131 -146t-168 -50q-140 0 -209 121.5t-51 325.5q23 253 146.5 407.5t288.5 154.5q63 0 116 -17t80.5 -35.5t72.5 -55.5
l-50 -570q-5 -61 3.5 -107.5t24.5 -71.5t40 -41t44.5 -20.5t43.5 -4.5q128 0 202 124.5t82 322.5q9 191 -26 340t-116.5 255.5t-216.5 162.5t-318 56q-323 0 -531.5 -232t-227.5 -617q-9 -186 32.5 -341t127.5 -266.5t219.5 -173t301.5 -61.5q89 0 179 21.5t152 57.5l30 -79
q-64 -42 -166.5 -65.5t-198.5 -23.5q-379 0 -586.5 249.5t-190.5 681.5q12 279 121.5 492.5t301.5 332t440 118.5zM846 78q186 0 273 254l45 516q-67 50 -159 50q-127 0 -219.5 -121t-114.5 -350q-17 -158 28.5 -253.5t146.5 -95.5z" />
    <glyph glyph-name="A" unicode="A" horiz-adv-x="1280" 
d="M1121 0l-150 408h-662l-150 -408h-128l550 1456h117l551 -1456h-128zM348 513h584l-292 794z" />
    <glyph glyph-name="B" unicode="B" horiz-adv-x="1255" 
d="M860 760q128 -28 205.5 -125t77.5 -225q0 -195 -126.5 -302.5t-339.5 -107.5h-492v1456h430q228 0 351.5 -93.5t123.5 -286.5q0 -112 -60.5 -195.5t-169.5 -120.5zM615 1351h-307v-547h319q163 0 251 70t88 204q0 273 -351 273zM677 104q160 0 251 81t91 223
q0 130 -85 211.5t-248 81.5h-378v-597h369z" />
    <glyph glyph-name="C" unicode="C" horiz-adv-x="1330" 
d="M1215 454q-23 -225 -160.5 -349.5t-374.5 -124.5q-248 0 -398 180.5t-150 476.5v182q0 297 151 477t405 180q232 0 368 -124.5t159 -350.5h-123q-47 370 -404 370q-201 0 -317 -150t-116 -400v-184q0 -161 49 -285.5t146 -196t230 -71.5q190 0 289 91.5t123 278.5h123z
" />
    <glyph glyph-name="D" unicode="D" horiz-adv-x="1342" 
d="M592 1456q274 0 447.5 -182t173.5 -479v-134q0 -299 -174 -480t-456 -181h-398v1456h407zM1091 661v136q0 251 -137 402.5t-362 151.5h-284v-1247h275q232 0 370 153.5t138 403.5z" />
    <glyph glyph-name="E" unicode="E" horiz-adv-x="1165" 
d="M308 104h782v-104h-905v1456h900v-105h-777v-548h680v-105h-680v-594z" />
    <glyph glyph-name="F" unicode="F" horiz-adv-x="1152" 
d="M1087 1351h-779v-565h678v-106h-678v-680h-123v1456h902v-105z" />
    <glyph glyph-name="G" unicode="G" horiz-adv-x="1401" 
d="M1235 174q-22 -31 -59 -61.5t-96.5 -62t-151 -51t-199.5 -19.5q-260 0 -422 181.5t-162 483.5v177q0 301 152 477.5t413 176.5q233 0 366 -118t158 -312h-123q-11 69 -38.5 125t-73.5 102.5t-120 72t-169 25.5q-210 0 -325.5 -148.5t-115.5 -398.5v-179
q0 -254 126 -407.5t335 -153.5q149 0 246 39t137 88v376h-391v105h513v-518z" />
    <glyph glyph-name="H" unicode="H" horiz-adv-x="1449" 
d="M1140 1456h123v-1456h-123v698h-832v-698h-123v1456h123v-653h832v653z" />
    <glyph glyph-name="I" unicode="I" horiz-adv-x="546" 
d="M335 0h-123v1456h123v-1456z" />
    <glyph glyph-name="J" unicode="J" horiz-adv-x="1128" 
d="M828 1456h123v-1022q0 -215 -122 -334.5t-318 -119.5q-203 0 -321 107t-118 315h123q0 -156 82.5 -237t233.5 -81q139 0 228 91.5t89 258.5v1022z" />
    <glyph glyph-name="K" unicode="K" horiz-adv-x="1292" 
d="M1106 0l-593 723l-205 -201v-522h-123v1456h123v-783l198 206l547 577h155l-610 -648l658 -808h-150z" />
    <glyph glyph-name="L" unicode="L" horiz-adv-x="1080" 
d="M309 104h718v-104h-842v1456h124v-1352z" />
    <glyph glyph-name="M" unicode="M" horiz-adv-x="1772" 
d="M1587 1456v-1456h-123v637l11 649l-543 -1286h-95l-540 1281l11 -644v-637h-123v1456h162l538 -1284l538 1284h164z" />
    <glyph glyph-name="N" unicode="N" horiz-adv-x="1455" 
d="M1269 0h-124l-836 1246v-1246h-124v1456h124l837 -1246v1246h123v-1456z" />
    <glyph glyph-name="O" unicode="O" horiz-adv-x="1387" 
d="M1260 650q0 -306 -153.5 -488t-412.5 -182q-255 0 -411.5 182.5t-156.5 487.5v156q0 304 155.5 487t410.5 183q259 0 413.5 -182.5t154.5 -487.5v-156zM1138 808q0 260 -118 410t-328 150q-206 0 -324.5 -150.5t-118.5 -409.5v-158q0 -260 119.5 -411t325.5 -151
q211 0 327.5 150t116.5 412v158z" />
    <glyph glyph-name="P" unicode="P" horiz-adv-x="1261" 
d="M681 1456q235 0 362.5 -118t127.5 -316q0 -204 -126 -316.5t-364 -112.5h-373v-593h-123v1456h496zM681 698q185 0 276 88.5t91 233.5q0 69 -21.5 127.5t-64.5 104.5t-115 72.5t-166 26.5h-373v-653h373z" />
    <glyph glyph-name="Q" unicode="Q" horiz-adv-x="1387" 
d="M1256 650q0 -209 -74 -363.5t-208 -233.5l265 -231l-85 -77l-296 258q-80 -23 -168 -23q-256 0 -412.5 182.5t-156.5 487.5v156q0 304 155.5 487t411.5 183q259 0 413.5 -182.5t154.5 -487.5v-156zM690 88q210 0 326.5 150t116.5 412v158q0 260 -117.5 410t-327.5 150
q-206 0 -324.5 -150.5t-118.5 -409.5v-158q0 -260 119.5 -411t325.5 -151z" />
    <glyph glyph-name="R" unicode="R" horiz-adv-x="1301" 
d="M848 632l364 -619v-13h-132l-351 607h-424v-607h-123v1456h473q230 0 362 -111.5t132 -317.5q0 -143 -82.5 -249t-218.5 -146zM305 711h377q110 0 190 45t117 115.5t37 155.5q0 152 -96.5 238t-274.5 86h-350v-640z" />
    <glyph glyph-name="S" unicode="S" horiz-adv-x="1213" 
d="M611 685q-117 33 -199 68t-147.5 83.5t-97.5 114t-32 149.5q0 167 136.5 271.5t352.5 104.5q225 0 362 -124t137 -311h-123q0 146 -100.5 238t-275.5 92q-174 0 -269.5 -76.5t-95.5 -191.5q0 -108 87.5 -180t302.5 -130q246 -67 365 -165.5t119 -267.5
q0 -175 -139.5 -277.5t-361.5 -102.5q-80 0 -156 15.5t-147 49.5t-124 84t-85 124t-32 163h124q0 -71 25 -128.5t65.5 -95t96 -62.5t113.5 -35.5t120 -10.5q171 0 274 75.5t103 198.5q0 121 -86 192t-312 135z" />
    <glyph glyph-name="T" unicode="T" horiz-adv-x="1223" 
d="M1172 1456v-105h-499v-1351h-122v1351h-499v105h1120z" />
    <glyph glyph-name="U" unicode="U" horiz-adv-x="1347" 
d="M1187 1456v-986q0 -120 -40 -214.5t-110.5 -154t-162.5 -90.5t-200 -31q-227 0 -369 126.5t-142 363.5v986h122v-986q0 -186 107 -286t282 -100q176 0 283 100t107 286v986h123z" />
    <glyph glyph-name="V" unicode="V" horiz-adv-x="1264" 
d="M1099 1456h134l-542 -1456h-118l-541 1456h134l457 -1275l9 -31l8 31z" />
    <glyph glyph-name="W" unicode="W" horiz-adv-x="1836" 
d="M1657 1456h126l-372 -1456h-118l-331 1139l-36 145l-37 -145l-337 -1139h-118l-373 1456h126l266 -1063l46 -226l55 217l316 1072h111l311 -1072l55 -218l47 228z" />
    <glyph glyph-name="X" unicode="X" horiz-adv-x="1254" 
d="M628 840l409 616h147l-482 -717l497 -739h-147l-424 636l-426 -636h-146l497 739l-482 717h147z" />
    <glyph glyph-name="Y" unicode="Y" horiz-adv-x="1227" 
d="M611 662l445 794h143l-526 -907v-549h-123v549l-526 907h146z" />
    <glyph glyph-name="Z" unicode="Z" horiz-adv-x="1225" 
d="M239 104h899v-104h-1048v93l866 1259h-839v104h989v-88z" />
    <glyph glyph-name="bracketleft" unicode="[" horiz-adv-x="491" 
d="M494 1562h-210v-1772h210v-102h-330v1976h330v-102z" />
    <glyph glyph-name="backslash" unicode="\" horiz-adv-x="807" 
d="M49 1456h117l608 -1581h-117z" />
    <glyph glyph-name="bracketright" unicode="]" horiz-adv-x="491" 
d="M1 1664h330v-1976h-330v102h210v1772h-210v102z" />
    <glyph glyph-name="asciicircum" unicode="^" horiz-adv-x="853" 
d="M765 729h-116l-228 569l-228 -569h-115l299 727h89z" />
    <glyph glyph-name="underscore" unicode="_" horiz-adv-x="885" 
d="M883 -102h-881v102h881v-102z" />
    <glyph glyph-name="grave" unicode="`" horiz-adv-x="585" 
d="M439 1257h-109l-227 279h145z" />
    <glyph glyph-name="a" unicode="a" horiz-adv-x="1098" 
d="M935 227q0 -139 33 -214v-13h-128q-19 53 -24 151q-59 -76 -152.5 -123.5t-213.5 -47.5q-157 0 -253 86.5t-96 220.5q0 159 132 251t361 92h221v122q0 117 -72.5 183.5t-206.5 66.5q-125 0 -207.5 -63.5t-82.5 -155.5l-120 1q0 126 118 222t297 96t286.5 -90.5
t107.5 -261.5v-523zM463 86q125 0 218 59.5t134 153.5v239h-205q-183 0 -286.5 -64t-103.5 -177q0 -90 66.5 -150.5t176.5 -60.5z" />
    <glyph glyph-name="b" unicode="b" horiz-adv-x="1135" 
d="M613 1102q196 0 305.5 -148t109.5 -403v-21q0 -247 -110.5 -398.5t-302.5 -151.5q-227 0 -342 169l-6 -149h-112v1536h120v-610q115 176 338 176zM907 530v21q0 97 -18.5 176.5t-55.5 141t-99 95.5t-144 34q-228 0 -315 -221v-489q40 -93 119.5 -148.5t197.5 -55.5
q80 0 141 34t98.5 95t56.5 141t19 176z" />
    <glyph glyph-name="c" unicode="c" horiz-adv-x="1056" 
d="M858 335h114q-7 -153 -127.5 -254t-287.5 -101q-148 0 -254 72.5t-157 192.5t-51 275v42q0 154 51 274.5t157 193t252 72.5q176 0 293 -105t124 -279h-114q-7 129 -92 205.5t-211 76.5q-72 0 -130 -23.5t-96.5 -64.5t-65 -97t-38 -119t-11.5 -134v-42q0 -90 19 -166.5
t58.5 -138.5t107.5 -97.5t158 -35.5q119 0 205.5 67t95.5 186z" />
    <glyph glyph-name="d" unicode="d" horiz-adv-x="1138" 
d="M860 1536h120v-1536h-112l-6 145q-115 -165 -338 -165q-189 0 -302 152.5t-113 397.5v21q0 253 112.5 402t304.5 149q221 0 334 -171v605zM547 84q221 0 313 195v511q-90 208 -311 208q-106 0 -179.5 -60t-107 -158.5t-33.5 -228.5v-21q0 -129 33 -227.5t106 -158.5
t179 -60z" />
    <glyph glyph-name="e" unicode="e" horiz-adv-x="1059" 
d="M982 534h-772v-23q0 -182 103.5 -306t266.5 -124q191 0 303 148l76 -57q-130 -192 -384 -192q-212 0 -348.5 149.5t-136.5 381.5v43q0 122 38 226t101.5 174t148 109t176.5 39q202 0 315 -136.5t113 -358.5v-73zM554 1000q-136 0 -227.5 -99.5t-111.5 -264.5h647v13
q-2 69 -22 131.5t-57 112t-96 78.5t-133 29z" />
    <glyph glyph-name="f" unicode="f" horiz-adv-x="678" 
d="M571 1452q-98 0 -153.5 -61.5t-55.5 -173.5v-135h259v-98h-259v-984h-119v984h-180v98h180v135q0 163 84.5 251.5t234.5 88.5q68 0 128 -17l-9 -100q-50 12 -110 12z" />
    <glyph glyph-name="g" unicode="g" horiz-adv-x="1137" 
d="M868 1082h112v-1063q0 -210 -117.5 -330.5t-316.5 -120.5q-107 0 -210.5 48t-166.5 137l67 73q125 -156 303 -156q153 0 237 91t84 254v126q-114 -161 -336 -161q-190 0 -302.5 152.5t-112.5 397.5v21q0 253 111.5 402t305.5 149q222 0 337 -175zM547 84q224 0 313 200
v500q-87 214 -311 214q-106 0 -179.5 -60t-107 -158.5t-33.5 -228.5v-21q0 -129 33 -227.5t106 -158.5t179 -60z" />
    <glyph glyph-name="h" unicode="h" horiz-adv-x="1125" 
d="M628 1102q168 0 256.5 -95t88.5 -302v-705h-120v705q0 160 -65 227t-190 67q-117 0 -200 -73.5t-122 -181.5v-744h-120v1536h120v-635q58 94 149 147.5t203 53.5z" />
    <glyph glyph-name="i" unicode="i" horiz-adv-x="460" 
d="M231 1476q38 0 60.5 -23t22.5 -58q0 -34 -22.5 -56.5t-60.5 -22.5q-37 0 -59.5 22.5t-22.5 56.5q0 35 22.5 58t59.5 23zM290 0h-119v1082h119v-1082z" />
    <glyph glyph-name="j" unicode="j" horiz-adv-x="468" 
d="M227 1476q37 0 60 -23t23 -58q0 -34 -23 -56.5t-60 -22.5t-59.5 22.5t-22.5 56.5q0 35 22.5 58t59.5 23zM286 1082v-1211q0 -149 -73 -228.5t-211 -79.5q-57 0 -106 19l1 99q48 -14 90 -14q87 0 133 51.5t46 152.5v1211h120z" />
    <glyph glyph-name="k" unicode="k" horiz-adv-x="1004" 
d="M851 0l-438 545l-137 -132v-413h-119v1536h119v-982l113 122l415 406h151l-459 -456l499 -626h-144z" />
    <glyph glyph-name="l" unicode="l" horiz-adv-x="460" 
d="M290 0h-119v1536h119v-1536z" />
    <glyph glyph-name="m" unicode="m" horiz-adv-x="1816" 
d="M1314 1102q174 0 264 -96t90 -301v-705h-119v706q0 162 -68.5 228t-195.5 65q-72 -1 -132.5 -27t-98 -68t-59.5 -90t-27 -98v-716h-120v716q0 153 -68.5 218t-194.5 65t-204 -72.5t-111 -182.5v-744h-120v1082h116l3 -176q56 92 145.5 144t205.5 52q256 0 324 -210
q54 96 149.5 153t220.5 57z" />
    <glyph glyph-name="n" unicode="n" horiz-adv-x="1126" 
d="M628 1102q168 0 256.5 -95t88.5 -302v-705h-120v705q0 160 -65 227t-190 67q-117 0 -200 -73.5t-122 -181.5v-744h-120v1082h115l4 -183q58 95 149 149t204 54z" />
    <glyph glyph-name="o" unicode="o" horiz-adv-x="1148" 
d="M91 557q0 239 133 392t349 153q218 0 351 -153t133 -392v-32q0 -240 -132.5 -392.5t-349.5 -152.5q-218 0 -351 153t-133 392v32zM211 525q0 -121 41 -220.5t125 -161t198 -61.5q113 0 196.5 61.5t124.5 161t41 220.5v32q0 119 -41 218t-125.5 162t-197.5 63t-197 -63
t-124.5 -162t-40.5 -218v-32z" />
    <glyph glyph-name="p" unicode="p" horiz-adv-x="1135" 
d="M612 1102q196 0 305.5 -148t109.5 -403v-21q0 -247 -110 -398.5t-303 -151.5q-222 0 -339 157v-553h-120v1498h112l6 -153q116 173 339 173zM907 530v21q0 199 -82 323t-240 124q-220 0 -310 -206v-522q92 -188 312 -188q106 0 179.5 60.5t107 159.5t33.5 228z" />
    <glyph glyph-name="q" unicode="q" horiz-adv-x="1143" 
d="M867 1082h112v-1498h-119v550q-117 -154 -334 -154q-193 0 -305 152t-112 398v21q0 254 111.5 402.5t307.5 148.5q217 0 334 -166zM549 82q217 0 311 188v528q-94 202 -309 202q-158 0 -240 -125t-82 -324v-21q0 -129 33.5 -228t107 -159.5t179.5 -60.5z" />
    <glyph glyph-name="r" unicode="r" horiz-adv-x="690" 
d="M580 1102q48 0 80 -12l-4 -109q-46 7 -80 7q-117 0 -193 -65t-107 -177v-746h-120v1082h117l3 -169q96 189 304 189z" />
    <glyph glyph-name="s" unicode="s" horiz-adv-x="1038" 
d="M515 504q-193 41 -285 109t-92 195q0 124 104.5 209t276.5 85q184 0 292 -90.5t108 -232.5h-121q0 90 -75 155.5t-204 65.5q-130 0 -196 -56t-66 -132q0 -39 11 -66.5t42 -54t88.5 -48.5t147.5 -42q200 -46 289.5 -119t89.5 -200q0 -134 -109.5 -218t-289.5 -84
q-197 0 -310.5 95t-113.5 229h119q4 -61 32.5 -106t73.5 -69t94.5 -35.5t104.5 -11.5q130 0 204.5 57t74.5 137q0 37 -12 67t-42 60.5t-89.5 56.5t-146.5 44z" />
    <glyph glyph-name="t" unicode="t" horiz-adv-x="659" 
d="M581 96l5 -100q-46 -16 -128 -16q-112 0 -174 65t-62 219v720h-198v98h198v278h121v-278h223v-98h-223v-720q0 -104 37.5 -141.5t102.5 -37.5q36 0 98 11z" />
    <glyph glyph-name="u" unicode="u" horiz-adv-x="1125" 
d="M850 1082h120v-1082h-115l-3 137q-107 -157 -344 -157q-168 0 -262 98.5t-94 311.5v692h120v-694q0 -162 68.5 -233t181.5 -71q259 0 328 213v785z" />
    <glyph glyph-name="v" unicode="v" horiz-adv-x="985" 
d="M822 1082h124l-405 -1082h-97l-406 1082h124l332 -918z" />
    <glyph glyph-name="w" unicode="w" horiz-adv-x="1545" 
d="M1350 1082h124l-315 -1082h-102l-279 859l-12 59l-14 -60l-273 -858h-102l-314 1082h123l230 -833l18 -91l23 96l260 828h103l256 -821l29 -113l22 104z" />
    <glyph glyph-name="x" unicode="x" horiz-adv-x="997" 
d="M496 644l293 438h142l-367 -531l382 -551h-140l-309 458l-307 -458h-142l383 551l-367 531h141z" />
    <glyph glyph-name="y" unicode="y" horiz-adv-x="974" 
d="M815 1082h129l-458 -1256q-12 -32 -22 -54.5t-28.5 -56.5t-41 -58t-52.5 -47t-70.5 -35t-88.5 -12q-53 0 -92 13v100q26 -7 61 -7q94 0 147.5 47.5t88.5 148.5l53 144l-408 1073h130l337 -910z" />
    <glyph glyph-name="z" unicode="z" horiz-adv-x="997" 
d="M237 102h702v-102h-851v89l655 890h-635v103h786v-88z" />
    <glyph glyph-name="braceleft" unicode="{" horiz-adv-x="677" 
d="M419 59q0 -302 248 -384l-30 -80q-94 28 -161 74.5t-104.5 108t-54.5 130t-17 151.5v226q0 123 -56.5 190.5t-174.5 67.5v105q231 0 231 257v227q0 83 17 151.5t54.5 130t104.5 108.5t161 75l27 -79q-245 -77 -245 -386v-227q0 -110 -44.5 -191t-137.5 -119
q92 -38 137 -119t45 -191v-226z" />
    <glyph glyph-name="bar" unicode="|" horiz-adv-x="453" 
d="M280 -270h-102v1726h102v-1726z" />
    <glyph glyph-name="braceright" unicode="}" horiz-adv-x="677" 
d="M376 905q0 -257 231 -257v-105q-118 0 -174.5 -67.5t-56.5 -190.5v-226q0 -83 -16.5 -151t-54 -130t-105 -108.5t-161.5 -74.5l-29 80q247 83 247 384v226q0 113 47.5 193.5t145.5 116.5q-98 36 -145.5 116.5t-47.5 193.5v227q0 309 -244 386l26 79q94 -28 161.5 -75
t105 -108.5t54 -130t16.5 -151.5v-227z" />
    <glyph glyph-name="asciitilde" unicode="~" horiz-adv-x="1403" 
d="M1255 765q0 -143 -81 -242.5t-216 -99.5q-83 0 -146.5 33.5t-151.5 111.5q-68 62 -115 87.5t-104 25.5q-89 0 -138 -60t-49 -171l-108 -1q0 147 79 243t216 96q83 0 148.5 -34.5t150.5 -110.5q68 -62 115.5 -87.5t102.5 -25.5q90 0 141 63.5t51 171.5h105z" />
    <glyph glyph-name="exclamdown" unicode="&#xa1;" horiz-adv-x="453" 
d="M224 942q-38 0 -60.5 23t-22.5 58q0 34 22.5 56.5t60.5 22.5q37 0 59.5 -22.5t22.5 -56.5q0 -35 -22.5 -58t-59.5 -23zM175 690h111l6 -1050h-124z" />
    <glyph glyph-name="cent" unicode="&#xa2;" horiz-adv-x="1115" 
d="M582 82q119 0 205.5 67t95.5 186h114q-7 -140 -109 -237.5t-251 -114.5v-228h-120v229q-190 23 -293.5 170t-103.5 366v42q0 219 104 366.5t293 169.5v220h120v-219q155 -18 254 -120t106 -261h-114q-7 129 -92 205.5t-211 76.5q-72 0 -130 -23.5t-96.5 -64.5t-65 -97
t-38 -119t-11.5 -134v-42q0 -90 19 -166.5t58.5 -138.5t107.5 -97.5t158 -35.5z" />
    <glyph glyph-name="sterling" unicode="&#xa3;" horiz-adv-x="1170" 
d="M349 104h745v-104h-997v104h99q48 14 72 93.5t22 170.5l-9 277h-188v105h185l-9 289q0 204 111.5 320.5t293.5 116.5q185 0 289 -106t104 -282h-122q0 143 -79 213.5t-200 70.5q-124 0 -199 -87.5t-75 -245.5l9 -289h345v-105h-341l9 -277q3 -172 -65 -264z" />
    <glyph glyph-name="currency" unicode="&#xa4;" horiz-adv-x="1481" 
d="M1335 608q0 -216 -121 -383l162 -165l-87 -87l-157 160q-167 -153 -392 -153q-224 0 -390 152l-155 -158l-85 86l159 162q-124 167 -124 386q0 227 133 398l-168 172l85 86l167 -170q164 140 378 140q217 0 380 -141l169 172l87 -87l-171 -175q130 -170 130 -395zM740 91
q198 0 339.5 151.5t141.5 365.5q0 213 -141.5 364t-339.5 151q-130 0 -241 -69t-176 -187.5t-65 -258.5q0 -141 65 -260t176 -188t241 -69z" />
    <glyph glyph-name="yen" unicode="&#xa5;" horiz-adv-x="1057" 
d="M1030 1456l-399 -750h314v-89h-358v-204h358v-89h-358v-324h-124v324h-354v89h354v204h-354v89h314l-399 750h139l365 -725l365 725h137z" />
    <glyph glyph-name="brokenbar" unicode="&#xa6;" horiz-adv-x="445" 
d="M280 698h-120v758h120v-758zM160 -270v771h120v-771h-120z" />
    <glyph glyph-name="section" unicode="&#xa7;" horiz-adv-x="1240" 
d="M887 159q95 -49 141.5 -119.5t46.5 -178.5q0 -167 -127 -261.5t-342 -94.5q-78 0 -148 13.5t-136 45.5t-113.5 80t-76.5 123t-29 169l120 2q0 -90 34 -157t91.5 -103.5t121.5 -53.5t136 -17q163 0 256 70t93 182q0 105 -77 166t-293 122q-118 30 -199 62t-147 78.5
t-98 111.5t-32 152q0 99 58.5 170t164.5 105q-89 49 -133.5 119.5t-44.5 174.5q0 162 128 259t342 97q223 0 348 -112t125 -319h-119q0 142 -94 236t-260 94q-173 0 -261.5 -71t-88.5 -181q0 -58 15.5 -97.5t58.5 -74t112.5 -62t185.5 -60.5q98 -26 165 -49t129.5 -56.5
t99.5 -73t58.5 -94.5t21.5 -125q0 -98 -61 -168.5t-172 -103.5zM229 553q0 -60 16.5 -100t64 -75t121 -63t199.5 -64q71 -20 124 -37q116 13 181 71.5t65 142.5q0 108 -85.5 171.5t-318.5 130.5q-77 20 -140 42q-113 -14 -170 -72.5t-57 -146.5z" />
    <glyph glyph-name="dieresis" unicode="&#xa8;" horiz-adv-x="881" 
d="M220 1477q38 0 60.5 -22.5t22.5 -57.5t-22.5 -57.5t-60.5 -22.5t-60 22.5t-22 57.5t22 57.5t60 22.5zM657 1477q38 0 60.5 -23t22.5 -58t-22.5 -57t-60.5 -22q-37 0 -59.5 22.5t-22.5 56.5q0 35 22.5 58t59.5 23z" />
    <glyph glyph-name="copyright" unicode="&#xa9;" horiz-adv-x="1638" 
d="M817 1476q145 0 276 -57.5t226.5 -156.5t151.5 -238t56 -295t-56 -295.5t-151.5 -239t-226.5 -157.5t-276 -58q-193 0 -356 98.5t-258.5 271t-95.5 380.5q0 156 56.5 295t151.5 238t226 156.5t276 57.5zM817 66q169 0 312.5 87.5t227.5 240t84 335.5t-84 335t-227.5 239
t-312.5 87t-312.5 -87t-227.5 -239t-84 -335t84 -335.5t227.5 -240t312.5 -87.5zM1122 607q0 -154 -83.5 -234t-231.5 -80q-151 0 -242 107t-91 280v97q0 173 91 280t242 107q148 0 232 -80t84 -233h-99q0 223 -217 223q-109 0 -171 -83t-62 -213v-98q0 -131 61.5 -213.5
t171.5 -82.5q107 0 161.5 54t54.5 169h99z" />
    <glyph glyph-name="ordfeminine" unicode="&#xaa;" horiz-adv-x="907" 
d="M761 705h-112q-14 46 -20 94q-36 -47 -93 -77.5t-129 -30.5q-119 0 -184 59t-65 159q0 111 84.5 171.5t244.5 60.5h139v60q0 86 -41 132.5t-121 46.5q-91 0 -141.5 -36t-50.5 -107l-108 6q0 102 83 167.5t217 65.5q124 0 197.5 -71t73.5 -205v-314q0 -97 26 -181z
M427 787q56 0 113.5 31t85.5 73v167h-138q-109 0 -165.5 -37.5t-56.5 -107.5q0 -59 39.5 -92.5t121.5 -33.5z" />
    <glyph glyph-name="guillemotleft" unicode="&#xab;" horiz-adv-x="933" 
d="M524 925l-276 -388l276 -389h-106l-295 379v19l295 379h106zM833 925l-276 -388l276 -389h-106l-295 379v19l295 379h106z" />
    <glyph glyph-name="logicalnot" unicode="&#xac;" horiz-adv-x="1118" 
d="M125 776h812v-390h-120v284h-692v106z" />
    <glyph glyph-name="uni00AD" unicode="&#xad;" horiz-adv-x="600" 
d="M528 592h-479v102h479v-102z" />
    <glyph glyph-name="registered" unicode="&#xae;" horiz-adv-x="1642" 
d="M813 1476q145 0 275.5 -57.5t226 -156.5t151.5 -238t56 -295t-56 -295.5t-151.5 -239t-226.5 -157.5t-275 -58q-145 0 -276 58t-226.5 157.5t-151.5 239t-56 295.5t56 295t151.5 238t226.5 156.5t276 57.5zM813 66q169 0 312.5 87.5t227.5 240t84 335.5t-84 335
t-227.5 239t-312.5 87q-170 0 -313.5 -87t-227.5 -239t-84 -335t84 -335.5t227.5 -240t313.5 -87.5zM1103 510v-45q0 -85 17 -127v-16h-102q-14 34 -14 144v43q0 84 -38 121t-128 37h-187v-345h-98v839h257q148 0 227 -63t79 -185q0 -133 -142 -197q129 -45 129 -206z
M831 758q80 1 133.5 41t53.5 112q0 85 -46.5 122t-161.5 37h-159v-312h180z" />
    <glyph glyph-name="macron" unicode="&#xaf;" horiz-adv-x="875" 
d="M757 1344h-620v97h620v-97z" />
    <glyph glyph-name="degree" unicode="&#xb0;" horiz-adv-x="774" 
d="M389 1476q99 0 170 -73.5t71 -175.5q0 -103 -71 -175t-170 -72q-102 0 -174 72t-72 175q0 102 72.5 175.5t173.5 73.5zM389 1071q65 0 108.5 44.5t43.5 111.5q0 68 -43.5 113.5t-108.5 45.5q-66 0 -111 -45.5t-45 -113.5q0 -67 45 -111.5t111 -44.5z" />
    <glyph glyph-name="plusminus" unicode="&#xb1;" horiz-adv-x="1086" 
d="M610 829h391v-101h-391v-439h-111v439h-414v101h414v438h111v-438zM129 0v102h835v-102h-835z" />
    <glyph glyph-name="uni00B2" unicode="&#xb2;" 
d="M667 665h-571v76l289 283q137 130 137 214q0 64 -41.5 101.5t-117.5 37.5q-88 0 -134.5 -44.5t-46.5 -116.5h-106q0 106 77.5 177.5t207.5 71.5q123 0 195 -60.5t72 -165.5q0 -70 -45.5 -134t-139.5 -154l-213 -198h437v-88z" />
    <glyph glyph-name="uni00B3" unicode="&#xb3;" 
d="M492 1069q160 -42 160 -188q0 -106 -80.5 -166.5t-207.5 -60.5q-76 0 -140.5 23.5t-108.5 77.5t-44 130h106q0 -63 53.5 -103.5t136.5 -40.5q85 0 132 38t47 105q0 142 -200 142h-78v81h78q88 0 136 38t48 97q0 60 -42 97.5t-126 37.5q-74 0 -122.5 -35.5t-48.5 -95.5
h-106q0 98 79 158.5t197 60.5q126 0 200.5 -58t74.5 -163q0 -56 -38 -103.5t-106 -71.5z" />
    <glyph glyph-name="acute" unicode="&#xb4;" horiz-adv-x="577" 
d="M316 1536h145l-232 -279h-104z" />
    <glyph glyph-name="paragraph" unicode="&#xb6;" horiz-adv-x="974" 
d="M681 0v520h-106q-233 0 -362.5 130t-129.5 338q0 207 130 337.5t362 130.5h227v-1456h-121z" />
    <glyph glyph-name="periodcentered" unicode="&#xb7;" horiz-adv-x="504" 
d="M248 801q39 0 62.5 -24t23.5 -60q0 -35 -23.5 -58t-62.5 -23t-62 23t-23 58q0 36 23 60t62 24z" />
    <glyph glyph-name="cedilla" unicode="&#xb8;" horiz-adv-x="499" 
d="M246 0l-11 -65q165 -22 165 -171q0 -91 -78 -145t-216 -54l-7 77q82 0 141.5 30.5t59.5 90.5q0 55 -40.5 77.5t-134.5 31.5l28 128h93z" />
    <glyph glyph-name="uni00B9" unicode="&#xb9;" 
d="M464 665h-105v663l-232 -69v90l324 106h13v-790z" />
    <glyph glyph-name="ordmasculine" unicode="&#xba;" horiz-adv-x="923" 
d="M135 1132q0 153 88 248.5t235 95.5q149 0 236.5 -95.5t87.5 -248.5v-99q0 -152 -87 -247.5t-235 -95.5t-236.5 95.5t-88.5 247.5v99zM244 1033q0 -110 54.5 -178.5t161.5 -68.5q104 0 159 69t55 178v99q0 109 -55.5 178.5t-160.5 69.5q-104 0 -159 -69.5t-55 -178.5v-99z
" />
    <glyph glyph-name="guillemotright" unicode="&#xbb;" horiz-adv-x="929" 
d="M516 541l-294 -379h-106l276 389l-276 394h106l294 -385v-19zM541 945l294 -385v-19l-294 -379h-106l276 389l-276 394h106z" />
    <glyph glyph-name="questiondown" unicode="&#xbf;" horiz-adv-x="941" 
d="M485 941q-37 0 -60 23t-23 58q0 34 22.5 56.5t60.5 22.5t60 -22t22 -57t-22 -58t-60 -23zM551 688q-1 -88 -13.5 -138.5t-41 -92t-92.5 -105.5q-89 -91 -113 -122q-83 -106 -83 -239q0 -128 68 -198t194 -70q117 0 189.5 69t73.5 187h119q-2 -170 -109.5 -266t-272.5 -96
q-180 0 -281 100t-101 272q0 70 18.5 132.5t56.5 118.5t77 100t97 98q60 51 77.5 105t17.5 145h119z" />
    <glyph glyph-name="Agrave" unicode="&#xc0;" horiz-adv-x="1280" 
d="M714 1572h-109l-227 279h145zM1121 0l-150 408h-662l-150 -408h-128l550 1456h117l551 -1456h-128zM348 513h584l-292 794z" />
    <glyph glyph-name="Aacute" unicode="&#xc1;" horiz-adv-x="1280" 
d="M909 1851l-231 -279h-105l191 279h145zM1121 0l-150 408h-662l-150 -408h-128l550 1456h117l551 -1456h-128zM348 513h584l-292 794z" />
    <glyph glyph-name="Acircumflex" unicode="&#xc2;" horiz-adv-x="1280" 
d="M641 1757l-167 -183h-108v12l238 255h76l240 -257v-10h-110zM1121 0l-150 408h-662l-150 -408h-128l550 1456h117l551 -1456h-128zM348 513h584l-292 794z" />
    <glyph glyph-name="Atilde" unicode="&#xc3;" horiz-adv-x="1280" 
d="M511 1708q-48 0 -79.5 -32.5t-31.5 -86.5l-89 4q0 94 55.5 153t139.5 59q42 0 81 -17t64.5 -38t61 -38t71.5 -17q47 0 78.5 34t31.5 88l90 -6q0 -95 -56.5 -154t-139.5 -59q-39 0 -71 11.5t-54.5 27.5t-44 32t-49 27.5t-58.5 11.5zM1121 0l-150 408h-662l-150 -408h-128
l550 1456h117l551 -1456h-128zM348 513h584l-292 794z" />
    <glyph glyph-name="Adieresis" unicode="&#xc4;" horiz-adv-x="1280" 
d="M425 1632q-38 0 -60 22.5t-22 57.5t22 57.5t60 22.5q37 0 60 -23t23 -57t-23 -57t-60 -23zM862 1632q-38 0 -60 22t-22 57t22.5 58t59.5 23q38 0 60.5 -23t22.5 -58t-22.5 -57t-60.5 -22zM1121 0l-150 408h-662l-150 -408h-128l550 1456h117l551 -1456h-128zM348 513h584
l-292 794z" />
    <glyph glyph-name="Aring" unicode="&#xc5;" horiz-adv-x="1280" 
d="M643 1529q-82 0 -137.5 53.5t-55.5 133.5t55.5 135.5t137.5 55.5q81 0 137 -55.5t56 -135.5t-56 -133.5t-137 -53.5zM643 1835q-51 0 -84 -34t-33 -85q0 -48 33 -81.5t84 -33.5t83.5 33t32.5 82q0 51 -32.5 85t-83.5 34zM1121 0l-150 408h-662l-150 -408h-128l550 1456
h117l551 -1456h-128zM348 513h584l-292 794z" />
    <glyph glyph-name="AE" unicode="&#xc6;" horiz-adv-x="1865" 
d="M1122 102h702v-102h-818l-16 390h-596l-230 -390h-146l881 1456h863v-102h-693l23 -545h589v-101h-585zM461 502h524l-35 829z" />
    <glyph glyph-name="Ccedilla" unicode="&#xc7;" horiz-adv-x="1330" 
d="M680 84q190 0 289 91.5t123 278.5h123q-21 -213 -146.5 -336.5t-340.5 -136.5l-10 -56q165 -22 165 -171q0 -91 -78 -145t-216 -54l-7 77q82 0 141.5 30.5t59.5 90.5q0 55 -40.5 77.5t-134.5 31.5l26 120q-229 17 -365.5 195t-136.5 460v182q0 297 151 477t405 180
q232 0 368 -124.5t159 -350.5h-123q-47 370 -404 370q-201 0 -317 -150t-116 -400v-184q0 -161 49 -285.5t146 -196t230 -71.5z" />
    <glyph glyph-name="Egrave" unicode="&#xc8;" horiz-adv-x="1165" 
d="M691 1577h-109l-227 279h145zM308 104h782v-104h-905v1456h900v-105h-777v-548h680v-105h-680v-594z" />
    <glyph glyph-name="Eacute" unicode="&#xc9;" horiz-adv-x="1165" 
d="M886 1856l-231 -279h-105l191 279h145zM308 104h782v-104h-905v1456h900v-105h-777v-548h680v-105h-680v-594z" />
    <glyph glyph-name="Ecircumflex" unicode="&#xca;" horiz-adv-x="1165" 
d="M618 1762l-167 -183h-108v12l238 255h76l240 -257v-10h-110zM308 104h782v-104h-905v1456h900v-105h-777v-548h680v-105h-680v-594z" />
    <glyph glyph-name="Edieresis" unicode="&#xcb;" horiz-adv-x="1165" 
d="M402 1637q-38 0 -60 22.5t-22 57.5t22 57.5t60 22.5t60.5 -22.5t22.5 -57.5t-22.5 -57.5t-60.5 -22.5zM839 1637q-37 0 -59.5 22.5t-22.5 56.5q0 35 22.5 58t59.5 23q38 0 60.5 -23t22.5 -58t-22.5 -57t-60.5 -22zM308 104h782v-104h-905v1456h900v-105h-777v-548h680
v-105h-680v-594z" />
    <glyph glyph-name="Igrave" unicode="&#xcc;" horiz-adv-x="546" 
d="M345 1577h-109l-227 279h145zM335 0h-123v1456h123v-1456z" />
    <glyph glyph-name="Iacute" unicode="&#xcd;" horiz-adv-x="546" 
d="M395 1856h145l-231 -279h-105zM335 0h-123v1456h123v-1456z" />
    <glyph glyph-name="Icircumflex" unicode="&#xce;" horiz-adv-x="546" 
d="M551 1589v-10h-110l-169 183l-167 -183h-108v12l238 255h76zM335 0h-123v1456h123v-1456z" />
    <glyph glyph-name="Idieresis" unicode="&#xcf;" horiz-adv-x="546" 
d="M56 1797q38 0 60.5 -22.5t22.5 -57.5t-22.5 -57.5t-60.5 -22.5t-60 22.5t-22 57.5t22 57.5t60 22.5zM493 1797q38 0 60.5 -23t22.5 -58t-22.5 -57t-60.5 -22q-37 0 -59.5 22.5t-22.5 56.5q0 35 22.5 58t59.5 23zM335 0h-123v1456h123v-1456z" />
    <glyph glyph-name="Eth" unicode="&#xd0;" horiz-adv-x="1342" 
d="M592 1456q274 0 447.5 -182t173.5 -479v-134q0 -299 -174 -480t-456 -181h-398v690h-151v102h151v664h407zM1091 661v136q0 251 -137 402.5t-362 151.5h-284v-559h337v-102h-337v-586h275q232 0 370 153.5t138 403.5z" />
    <glyph glyph-name="Ntilde" unicode="&#xd1;" horiz-adv-x="1455" 
d="M1068 1811q0 -95 -56.5 -154t-139.5 -59q-39 0 -71 11.5t-54.5 27.5t-44 32t-49 27.5t-58.5 11.5q-48 0 -79.5 -32.5t-31.5 -86.5l-89 4q0 94 55.5 153t139.5 59q42 0 81 -17t64.5 -38t61 -38t71.5 -17q47 0 78.5 34t31.5 88zM1269 0h-124l-836 1246v-1246h-124v1456h124
l837 -1246v1246h123v-1456z" />
    <glyph glyph-name="Ograve" unicode="&#xd2;" horiz-adv-x="1387" 
d="M763 1583h-109l-227 279h145zM1260 650q0 -306 -153.5 -488t-412.5 -182q-255 0 -411.5 182.5t-156.5 487.5v156q0 304 155.5 487t410.5 183q259 0 413.5 -182.5t154.5 -487.5v-156zM1138 808q0 260 -118 410t-328 150q-206 0 -324.5 -150.5t-118.5 -409.5v-158
q0 -260 119.5 -411t325.5 -151q211 0 327.5 150t116.5 412v158z" />
    <glyph glyph-name="Oacute" unicode="&#xd3;" horiz-adv-x="1387" 
d="M813 1862h145l-231 -279h-105zM1260 650q0 -306 -153.5 -488t-412.5 -182q-255 0 -411.5 182.5t-156.5 487.5v156q0 304 155.5 487t410.5 183q259 0 413.5 -182.5t154.5 -487.5v-156zM1138 808q0 260 -118 410t-328 150q-206 0 -324.5 -150.5t-118.5 -409.5v-158
q0 -260 119.5 -411t325.5 -151q211 0 327.5 150t116.5 412v158z" />
    <glyph glyph-name="Ocircumflex" unicode="&#xd4;" horiz-adv-x="1387" 
d="M969 1595v-10h-110l-169 183l-167 -183h-108v12l238 255h76zM1260 650q0 -306 -153.5 -488t-412.5 -182q-255 0 -411.5 182.5t-156.5 487.5v156q0 304 155.5 487t410.5 183q259 0 413.5 -182.5t154.5 -487.5v-156zM1138 808q0 260 -118 410t-328 150
q-206 0 -324.5 -150.5t-118.5 -409.5v-158q0 -260 119.5 -411t325.5 -151q211 0 327.5 150t116.5 412v158z" />
    <glyph glyph-name="Otilde" unicode="&#xd5;" horiz-adv-x="1387" 
d="M1033 1822q0 -95 -56.5 -154t-139.5 -59q-39 0 -71 11.5t-54.5 27.5t-44 32t-49 27.5t-58.5 11.5q-48 0 -79.5 -32.5t-31.5 -86.5l-89 4q0 94 55.5 153t139.5 59q42 0 81 -17t64.5 -38t61 -38t71.5 -17q47 0 78.5 34t31.5 88zM1260 650q0 -306 -153.5 -488t-412.5 -182
q-255 0 -411.5 182.5t-156.5 487.5v156q0 304 155.5 487t410.5 183q259 0 413.5 -182.5t154.5 -487.5v-156zM1138 808q0 260 -118 410t-328 150q-206 0 -324.5 -150.5t-118.5 -409.5v-158q0 -260 119.5 -411t325.5 -151q211 0 327.5 150t116.5 412v158z" />
    <glyph glyph-name="Odieresis" unicode="&#xd6;" horiz-adv-x="1387" 
d="M474 1803q38 0 60.5 -22.5t22.5 -57.5t-22.5 -57.5t-60.5 -22.5t-60 22.5t-22 57.5t22 57.5t60 22.5zM911 1803q38 0 60.5 -23t22.5 -58t-22.5 -57t-60.5 -22q-37 0 -59.5 22.5t-22.5 56.5q0 35 22.5 58t59.5 23zM1260 650q0 -306 -153.5 -488t-412.5 -182
q-255 0 -411.5 182.5t-156.5 487.5v156q0 304 155.5 487t410.5 183q259 0 413.5 -182.5t154.5 -487.5v-156zM1138 808q0 260 -118 410t-328 150q-206 0 -324.5 -150.5t-118.5 -409.5v-158q0 -260 119.5 -411t325.5 -151q211 0 327.5 150t116.5 412v158z" />
    <glyph glyph-name="multiply" unicode="&#xd7;" horiz-adv-x="1072" 
d="M967 180l-79 -80l-358 364l-357 -364l-79 80l357 365l-343 349l79 81l343 -350l343 350l79 -81l-343 -349z" />
    <glyph glyph-name="Oslash" unicode="&#xd8;" horiz-adv-x="1387" 
d="M1275 1505l-149 -237q134 -179 134 -462v-156q0 -306 -153.5 -488t-412.5 -182q-183 0 -318 97l-101 -161h-104l137 218q-87 89 -134.5 220.5t-47.5 295.5v156q0 304 155.5 487t410.5 183q224 0 373 -140l106 169h104zM249 650q0 -264 123 -415l631 1003
q-116 130 -311 130q-206 0 -324.5 -150.5t-118.5 -409.5v-158zM1138 808q0 211 -80 353l-622 -989q107 -84 258 -84q211 0 327.5 150t116.5 412v158z" />
    <glyph glyph-name="Ugrave" unicode="&#xd9;" horiz-adv-x="1347" 
d="M754 1572h-109l-227 279h145zM1187 1456v-986q0 -120 -40 -214.5t-110.5 -154t-162.5 -90.5t-200 -31q-227 0 -369 126.5t-142 363.5v986h122v-986q0 -186 107 -286t282 -100q176 0 283 100t107 286v986h123z" />
    <glyph glyph-name="Uacute" unicode="&#xda;" horiz-adv-x="1347" 
d="M804 1851h145l-231 -279h-105zM1187 1456v-986q0 -120 -40 -214.5t-110.5 -154t-162.5 -90.5t-200 -31q-227 0 -369 126.5t-142 363.5v986h122v-986q0 -186 107 -286t282 -100q176 0 283 100t107 286v986h123z" />
    <glyph glyph-name="Ucircumflex" unicode="&#xdb;" horiz-adv-x="1347" 
d="M960 1584v-10h-110l-169 183l-167 -183h-108v12l238 255h76zM1187 1456v-986q0 -120 -40 -214.5t-110.5 -154t-162.5 -90.5t-200 -31q-227 0 -369 126.5t-142 363.5v986h122v-986q0 -186 107 -286t282 -100q176 0 283 100t107 286v986h123z" />
    <glyph glyph-name="Udieresis" unicode="&#xdc;" horiz-adv-x="1347" 
d="M465 1792q37 0 60 -23t23 -57t-23 -57t-60 -23q-38 0 -60 22.5t-22 57.5t22 57.5t60 22.5zM902 1792q38 0 60.5 -23t22.5 -58t-22.5 -57t-60.5 -22t-60 22t-22 57t22.5 58t59.5 23zM1187 1456v-986q0 -120 -40 -214.5t-110.5 -154t-162.5 -90.5t-200 -31
q-227 0 -369 126.5t-142 363.5v986h122v-986q0 -186 107 -286t282 -100q176 0 283 100t107 286v986h123z" />
    <glyph glyph-name="Yacute" unicode="&#xdd;" horiz-adv-x="1227" 
d="M735 1845h145l-231 -279h-105zM611 662l445 794h143l-526 -907v-549h-123v549l-526 907h146z" />
    <glyph glyph-name="Thorn" unicode="&#xde;" horiz-adv-x="1215" 
d="M627 1153q221 0 345 -115.5t124 -299.5t-124 -299t-345 -115h-324v-324h-120v1456h120v-303h324zM627 426q89 0 158.5 27t109.5 72t60.5 98.5t20.5 112.5q0 61 -20 116t-60.5 100t-110 72t-158.5 27h-324v-625h324z" />
    <glyph glyph-name="germandbls" unicode="&#xdf;" horiz-adv-x="1201" 
d="M271 0h-119v1128q0 201 95.5 308.5t265.5 107.5q147 0 245.5 -81.5t98.5 -225.5q0 -67 -19.5 -124.5t-42.5 -92t-42.5 -86.5t-19.5 -109q0 -54 37.5 -102.5t90.5 -89.5t106.5 -84.5t91 -106t37.5 -135.5q0 -103 -54.5 -179.5t-138 -112.5t-183.5 -36q-84 0 -174.5 24.5
t-130.5 56.5l33 101q41 -30 115 -55t143 -25q125 0 198 65t73 161q0 42 -20 80.5t-52 69.5t-71 61t-78 62t-71 67t-52 81t-20 99q0 61 19.5 116.5t43.5 91.5t43.5 88.5t19.5 107.5q0 94 -63 153t-153 59q-252 0 -252 -315v-1128z" />
    <glyph glyph-name="agrave" unicode="&#xe0;" horiz-adv-x="1098" 
d="M651 1256h-109l-227 279h145zM935 227q0 -139 33 -214v-13h-128q-19 53 -24 151q-59 -76 -152.5 -123.5t-213.5 -47.5q-157 0 -253 86.5t-96 220.5q0 159 132 251t361 92h221v122q0 117 -72.5 183.5t-206.5 66.5q-125 0 -207.5 -63.5t-82.5 -155.5l-120 1q0 126 118 222
t297 96t286.5 -90.5t107.5 -261.5v-523zM463 86q125 0 218 59.5t134 153.5v239h-205q-183 0 -286.5 -64t-103.5 -177q0 -90 66.5 -150.5t176.5 -60.5z" />
    <glyph glyph-name="aacute" unicode="&#xe1;" horiz-adv-x="1098" 
d="M846 1535l-231 -279h-105l191 279h145zM935 227q0 -139 33 -214v-13h-128q-19 53 -24 151q-59 -76 -152.5 -123.5t-213.5 -47.5q-157 0 -253 86.5t-96 220.5q0 159 132 251t361 92h221v122q0 117 -72.5 183.5t-206.5 66.5q-125 0 -207.5 -63.5t-82.5 -155.5l-120 1
q0 126 118 222t297 96t286.5 -90.5t107.5 -261.5v-523zM463 86q125 0 218 59.5t134 153.5v239h-205q-183 0 -286.5 -64t-103.5 -177q0 -90 66.5 -150.5t176.5 -60.5z" />
    <glyph glyph-name="acircumflex" unicode="&#xe2;" horiz-adv-x="1098" 
d="M578 1441l-167 -183h-108v12l238 255h76l240 -257v-10h-110zM935 227q0 -139 33 -214v-13h-128q-19 53 -24 151q-59 -76 -152.5 -123.5t-213.5 -47.5q-157 0 -253 86.5t-96 220.5q0 159 132 251t361 92h221v122q0 117 -72.5 183.5t-206.5 66.5q-125 0 -207.5 -63.5
t-82.5 -155.5l-120 1q0 126 118 222t297 96t286.5 -90.5t107.5 -261.5v-523zM463 86q125 0 218 59.5t134 153.5v239h-205q-183 0 -286.5 -64t-103.5 -177q0 -90 66.5 -150.5t176.5 -60.5z" />
    <glyph glyph-name="atilde" unicode="&#xe3;" horiz-adv-x="1098" 
d="M448 1392q-48 0 -79.5 -32.5t-31.5 -86.5l-89 4q0 94 55.5 153t139.5 59q42 0 81 -17t64.5 -38t61 -38t71.5 -17q47 0 78.5 34t31.5 88l90 -6q0 -95 -56.5 -154t-139.5 -59q-39 0 -71 11.5t-54.5 27.5t-44 32t-49 27.5t-58.5 11.5zM935 227q0 -139 33 -214v-13h-128
q-19 53 -24 151q-59 -76 -152.5 -123.5t-213.5 -47.5q-157 0 -253 86.5t-96 220.5q0 159 132 251t361 92h221v122q0 117 -72.5 183.5t-206.5 66.5q-125 0 -207.5 -63.5t-82.5 -155.5l-120 1q0 126 118 222t297 96t286.5 -90.5t107.5 -261.5v-523zM463 86q125 0 218 59.5
t134 153.5v239h-205q-183 0 -286.5 -64t-103.5 -177q0 -90 66.5 -150.5t176.5 -60.5z" />
    <glyph glyph-name="adieresis" unicode="&#xe4;" horiz-adv-x="1098" 
d="M362 1316q-38 0 -60 22.5t-22 57.5t22 57.5t60 22.5t60.5 -23t22.5 -57t-22.5 -57t-60.5 -23zM799 1316q-37 0 -59.5 22t-22.5 57t22.5 58t59.5 23q38 0 60.5 -23t22.5 -58t-22.5 -57t-60.5 -22zM935 227q0 -139 33 -214v-13h-128q-19 53 -24 151q-59 -76 -152.5 -123.5
t-213.5 -47.5q-157 0 -253 86.5t-96 220.5q0 159 132 251t361 92h221v122q0 117 -72.5 183.5t-206.5 66.5q-125 0 -207.5 -63.5t-82.5 -155.5l-120 1q0 126 118 222t297 96t286.5 -90.5t107.5 -261.5v-523zM463 86q125 0 218 59.5t134 153.5v239h-205q-183 0 -286.5 -64
t-103.5 -177q0 -90 66.5 -150.5t176.5 -60.5z" />
    <glyph glyph-name="aring" unicode="&#xe5;" horiz-adv-x="1098" 
d="M580 1213q-82 0 -137.5 53.5t-55.5 133.5t55.5 135.5t137.5 55.5q81 0 137 -55.5t56 -135.5t-56 -133.5t-137 -53.5zM580 1519q-51 0 -84 -34t-33 -85q0 -48 33.5 -81.5t83.5 -33.5q51 0 83.5 33t32.5 82q0 51 -32.5 85t-83.5 34zM935 227q0 -139 33 -214v-13h-128
q-19 53 -24 151q-59 -76 -152.5 -123.5t-213.5 -47.5q-157 0 -253 86.5t-96 220.5q0 159 132 251t361 92h221v122q0 117 -72.5 183.5t-206.5 66.5q-125 0 -207.5 -63.5t-82.5 -155.5l-120 1q0 126 118 222t297 96t286.5 -90.5t107.5 -261.5v-523zM463 86q125 0 218 59.5
t134 153.5v239h-205q-183 0 -286.5 -64t-103.5 -177q0 -90 66.5 -150.5t176.5 -60.5z" />
    <glyph glyph-name="ae" unicode="&#xe6;" horiz-adv-x="1732" 
d="M1659 538h-757v-28q0 -91 21.5 -167.5t64.5 -135.5t113.5 -92.5t163.5 -33.5q186 0 324 119l47 -88q-139 -132 -371 -132q-135 0 -236 54.5t-161 153.5q-51 -86 -160.5 -147t-266.5 -61q-169 0 -262 84.5t-93 229.5q0 158 113.5 248.5t325.5 90.5h256v87q0 134 -64.5 207
t-188.5 73q-135 0 -215 -66.5t-80 -167.5l-119 12q0 142 114 233t300 91q126 0 215 -54t128 -158q61 100 156 156.5t209 55.5q200 0 311.5 -123.5t111.5 -340.5v-100zM1236 1000q-138 0 -225.5 -101.5t-104.5 -262.5h633v32q0 70 -18.5 129.5t-54.5 105t-95 71.5t-135 26z
M458 80q96 0 188 48t135 107v301h-254q-155 0 -238 -70.5t-83 -175.5q0 -96 65 -153t187 -57z" />
    <glyph glyph-name="ccedilla" unicode="&#xe7;" horiz-adv-x="1056" 
d="M557 82q119 0 205.5 67t95.5 186h114q-7 -146 -117 -245t-267 -109l-9 -56q165 -22 165 -171q0 -91 -78 -145t-216 -54l-7 77q82 0 141.5 30.5t59.5 90.5q0 55 -40.5 77.5t-134.5 31.5l27 121q-192 22 -296.5 169.5t-104.5 367.5v42q0 154 51 274.5t157 193t252 72.5
q176 0 293 -105t124 -279h-114q-7 129 -92 205.5t-211 76.5q-72 0 -130 -23.5t-96.5 -64.5t-65 -97t-38 -119t-11.5 -134v-42q0 -90 19 -166.5t58.5 -138.5t107.5 -97.5t158 -35.5z" />
    <glyph glyph-name="egrave" unicode="&#xe8;" horiz-adv-x="1059" 
d="M638 1256h-109l-227 279h145zM982 534h-772v-23q0 -182 103.5 -306t266.5 -124q191 0 303 148l76 -57q-130 -192 -384 -192q-212 0 -348.5 149.5t-136.5 381.5v43q0 122 38 226t101.5 174t148 109t176.5 39q202 0 315 -136.5t113 -358.5v-73zM554 1000
q-136 0 -227.5 -99.5t-111.5 -264.5h647v13q-2 69 -22 131.5t-57 112t-96 78.5t-133 29z" />
    <glyph glyph-name="eacute" unicode="&#xe9;" horiz-adv-x="1059" 
d="M833 1535l-231 -279h-105l191 279h145zM982 534h-772v-23q0 -182 103.5 -306t266.5 -124q191 0 303 148l76 -57q-130 -192 -384 -192q-212 0 -348.5 149.5t-136.5 381.5v43q0 122 38 226t101.5 174t148 109t176.5 39q202 0 315 -136.5t113 -358.5v-73zM554 1000
q-136 0 -227.5 -99.5t-111.5 -264.5h647v13q-2 69 -22 131.5t-57 112t-96 78.5t-133 29z" />
    <glyph glyph-name="ecircumflex" unicode="&#xea;" horiz-adv-x="1059" 
d="M565 1441l-167 -183h-108v12l238 255h76l240 -257v-10h-110zM982 534h-772v-23q0 -182 103.5 -306t266.5 -124q191 0 303 148l76 -57q-130 -192 -384 -192q-212 0 -348.5 149.5t-136.5 381.5v43q0 122 38 226t101.5 174t148 109t176.5 39q202 0 315 -136.5t113 -358.5
v-73zM554 1000q-136 0 -227.5 -99.5t-111.5 -264.5h647v13q-2 69 -22 131.5t-57 112t-96 78.5t-133 29z" />
    <glyph glyph-name="edieresis" unicode="&#xeb;" horiz-adv-x="1059" 
d="M349 1316q-38 0 -60 22.5t-22 57.5t22 57.5t60 22.5q37 0 60 -23t23 -57t-23 -57t-60 -23zM786 1316q-38 0 -60 22t-22 57t22.5 58t59.5 23q38 0 60.5 -23t22.5 -58t-22.5 -57t-60.5 -22zM982 534h-772v-23q0 -182 103.5 -306t266.5 -124q191 0 303 148l76 -57
q-130 -192 -384 -192q-212 0 -348.5 149.5t-136.5 381.5v43q0 122 38 226t101.5 174t148 109t176.5 39q202 0 315 -136.5t113 -358.5v-73zM554 1000q-136 0 -227.5 -99.5t-111.5 -264.5h647v13q-2 69 -22 131.5t-57 112t-96 78.5t-133 29z" />
    <glyph glyph-name="igrave" unicode="&#xec;" horiz-adv-x="456" 
d="M303 1243h-109l-227 279h145zM288 0h-120v1082h120v-1082z" />
    <glyph glyph-name="iacute" unicode="&#xed;" horiz-adv-x="456" 
d="M353 1522h145l-231 -279h-105zM288 0h-120v1082h120v-1082z" />
    <glyph glyph-name="icircumflex" unicode="&#xee;" horiz-adv-x="456" 
d="M509 1255v-10h-110l-169 183l-167 -183h-108v12l238 255h76zM288 0h-120v1082h120v-1082z" />
    <glyph glyph-name="idieresis" unicode="&#xef;" horiz-adv-x="456" 
d="M14 1463q38 0 60.5 -22.5t22.5 -57.5t-22.5 -57.5t-60.5 -22.5t-60 22.5t-22 57.5t22 57.5t60 22.5zM451 1463q38 0 60.5 -23t22.5 -58t-22.5 -57t-60.5 -22q-37 0 -59.5 22.5t-22.5 56.5q0 35 22.5 58t59.5 23zM288 0h-120v1082h120v-1082z" />
    <glyph glyph-name="eth" unicode="&#xf0;" horiz-adv-x="1192" 
d="M811 1304q244 -256 244 -680v-89q0 -246 -123.5 -400.5t-315.5 -154.5q-135 0 -242 65t-165.5 175.5t-58.5 245.5q0 230 119.5 364.5t318.5 134.5q98 0 185.5 -38t146.5 -105q-44 254 -210 419l-226 -140l-50 74l206 128q-137 107 -343 172l38 104q247 -74 409 -212
l195 121l51 -73zM936 535v91q0 37 -1 55q-35 76 -118.5 128t-206.5 52q-166 0 -253 -108t-87 -287q0 -97 39.5 -182.5t121 -142.5t189.5 -57q143 0 229.5 126.5t86.5 324.5z" />
    <glyph glyph-name="ntilde" unicode="&#xf1;" horiz-adv-x="1126" 
d="M444 1391q-48 0 -79.5 -32.5t-31.5 -86.5l-89 4q0 94 55.5 153t139.5 59q42 0 81 -17t64.5 -38t61 -38t71.5 -17q47 0 78.5 34t31.5 88l90 -6q0 -95 -56.5 -154t-139.5 -59q-39 0 -71 11.5t-54.5 27.5t-44 32t-49 27.5t-58.5 11.5zM628 1102q168 0 256.5 -95t88.5 -302
v-705h-120v705q0 160 -65 227t-190 67q-117 0 -200 -73.5t-122 -181.5v-744h-120v1082h115l4 -183q58 95 149 149t204 54z" />
    <glyph glyph-name="ograve" unicode="&#xf2;" horiz-adv-x="1148" 
d="M643 1255h-109l-227 279h145zM91 557q0 239 133 392t349 153q218 0 351 -153t133 -392v-32q0 -240 -132.5 -392.5t-349.5 -152.5q-218 0 -351 153t-133 392v32zM211 525q0 -121 41 -220.5t125 -161t198 -61.5q113 0 196.5 61.5t124.5 161t41 220.5v32q0 119 -41 218
t-125.5 162t-197.5 63t-197 -63t-124.5 -162t-40.5 -218v-32z" />
    <glyph glyph-name="oacute" unicode="&#xf3;" horiz-adv-x="1148" 
d="M693 1534h145l-231 -279h-105zM91 557q0 239 133 392t349 153q218 0 351 -153t133 -392v-32q0 -240 -132.5 -392.5t-349.5 -152.5q-218 0 -351 153t-133 392v32zM211 525q0 -121 41 -220.5t125 -161t198 -61.5q113 0 196.5 61.5t124.5 161t41 220.5v32q0 119 -41 218
t-125.5 162t-197.5 63t-197 -63t-124.5 -162t-40.5 -218v-32z" />
    <glyph glyph-name="ocircumflex" unicode="&#xf4;" horiz-adv-x="1148" 
d="M849 1267v-10h-110l-169 183l-167 -183h-108v12l238 255h76zM91 557q0 239 133 392t349 153q218 0 351 -153t133 -392v-32q0 -240 -132.5 -392.5t-349.5 -152.5q-218 0 -351 153t-133 392v32zM211 525q0 -121 41 -220.5t125 -161t198 -61.5q113 0 196.5 61.5t124.5 161
t41 220.5v32q0 119 -41 218t-125.5 162t-197.5 63t-197 -63t-124.5 -162t-40.5 -218v-32z" />
    <glyph glyph-name="otilde" unicode="&#xf5;" horiz-adv-x="1148" 
d="M913 1494q0 -95 -56.5 -154t-139.5 -59q-39 0 -71 11.5t-54.5 27.5t-44 32t-49 27.5t-58.5 11.5q-48 0 -79.5 -32.5t-31.5 -86.5l-89 4q0 94 55.5 153t139.5 59q42 0 81 -17t64.5 -38t61 -38t71.5 -17q47 0 78.5 34t31.5 88zM91 557q0 239 133 392t349 153
q218 0 351 -153t133 -392v-32q0 -240 -132.5 -392.5t-349.5 -152.5q-218 0 -351 153t-133 392v32zM211 525q0 -121 41 -220.5t125 -161t198 -61.5q113 0 196.5 61.5t124.5 161t41 220.5v32q0 119 -41 218t-125.5 162t-197.5 63t-197 -63t-124.5 -162t-40.5 -218v-32z" />
    <glyph glyph-name="odieresis" unicode="&#xf6;" horiz-adv-x="1148" 
d="M354 1475q38 0 60.5 -22.5t22.5 -57.5t-22.5 -57.5t-60.5 -22.5t-60 22.5t-22 57.5t22 57.5t60 22.5zM791 1475q38 0 60.5 -23t22.5 -58t-22.5 -57t-60.5 -22q-37 0 -59.5 22.5t-22.5 56.5q0 35 22.5 58t59.5 23zM91 557q0 239 133 392t349 153q218 0 351 -153t133 -392
v-32q0 -240 -132.5 -392.5t-349.5 -152.5q-218 0 -351 153t-133 392v32zM211 525q0 -121 41 -220.5t125 -161t198 -61.5q113 0 196.5 61.5t124.5 161t41 220.5v32q0 119 -41 218t-125.5 162t-197.5 63t-197 -63t-124.5 -162t-40.5 -218v-32z" />
    <glyph glyph-name="divide" unicode="&#xf7;" horiz-adv-x="1164" 
d="M580 1172q39 0 62.5 -24t23.5 -60q0 -35 -23.5 -58t-62.5 -23t-62 23t-23 58q0 36 23 60t62 24zM1070 644h-998v117h998v-117zM580 375q39 0 62.5 -24t23.5 -59t-23.5 -58.5t-62.5 -23.5t-62 23.5t-23 58.5q0 36 23 59.5t62 23.5z" />
    <glyph glyph-name="oslash" unicode="&#xf8;" horiz-adv-x="1141" 
d="M857 1010q94 -72 146 -190t52 -263v-32q0 -240 -132.5 -392.5t-349.5 -152.5q-110 0 -200 41l-79 -161h-93l99 203q-100 70 -155.5 190.5t-55.5 271.5v32q0 239 133 392t349 153q117 0 215 -48l78 160h93zM209 525q0 -112 36 -207t105 -155l388 794q-72 43 -167 43
q-113 0 -197 -63t-124.5 -162t-40.5 -218v-32zM935 525v32q0 104 -33.5 196t-95.5 153l-387 -790q70 -34 154 -34q113 0 196.5 61.5t124.5 161t41 220.5z" />
    <glyph glyph-name="ugrave" unicode="&#xf9;" horiz-adv-x="1125" 
d="M646 1257h-109l-227 279h145zM850 1082h120v-1082h-115l-3 137q-107 -157 -344 -157q-168 0 -262 98.5t-94 311.5v692h120v-694q0 -162 68.5 -233t181.5 -71q259 0 328 213v785z" />
    <glyph glyph-name="uacute" unicode="&#xfa;" horiz-adv-x="1125" 
d="M841 1536l-231 -279h-105l191 279h145zM850 1082h120v-1082h-115l-3 137q-107 -157 -344 -157q-168 0 -262 98.5t-94 311.5v692h120v-694q0 -162 68.5 -233t181.5 -71q259 0 328 213v785z" />
    <glyph glyph-name="ucircumflex" unicode="&#xfb;" horiz-adv-x="1125" 
d="M573 1442l-167 -183h-108v12l238 255h76l240 -257v-10h-110zM850 1082h120v-1082h-115l-3 137q-107 -157 -344 -157q-168 0 -262 98.5t-94 311.5v692h120v-694q0 -162 68.5 -233t181.5 -71q259 0 328 213v785z" />
    <glyph glyph-name="udieresis" unicode="&#xfc;" horiz-adv-x="1125" 
d="M357 1317q-38 0 -60 22.5t-22 57.5t22 57.5t60 22.5q37 0 60 -22.5t23 -57.5t-23 -57.5t-60 -22.5zM794 1317q-38 0 -60 22.5t-22 56.5q0 35 22.5 58t59.5 23q38 0 60.5 -23t22.5 -58t-22.5 -57t-60.5 -22zM850 1082h120v-1082h-115l-3 137q-107 -157 -344 -157
q-168 0 -262 98.5t-94 311.5v692h120v-694q0 -162 68.5 -233t181.5 -71q259 0 328 213v785z" />
    <glyph glyph-name="yacute" unicode="&#xfd;" horiz-adv-x="974" 
d="M781 1536l-231 -279h-105l191 279h145zM815 1082h129l-458 -1256q-12 -32 -22 -54.5t-28.5 -56.5t-41 -58t-52.5 -47t-70.5 -35t-88.5 -12q-53 0 -92 13v100q26 -7 61 -7q94 0 147.5 47.5t88.5 148.5l53 144l-408 1073h130l337 -910z" />
    <glyph glyph-name="thorn" unicode="&#xfe;" horiz-adv-x="1151" 
d="M616 1102q197 0 306 -148t109 -403v-21q0 -247 -109.5 -398.5t-302.5 -151.5q-223 0 -340 157v-553h-119v1952h119v-604q116 170 337 170zM911 530v21q0 199 -82 323t-240 124q-220 0 -310 -208v-519q92 -189 312 -189q106 0 179.5 60.5t107 159.5t33.5 228z" />
    <glyph glyph-name="ydieresis" unicode="&#xff;" horiz-adv-x="974" 
d="M297 1317q-38 0 -60 22.5t-22 57.5t22 57.5t60 22.5q37 0 60 -22.5t23 -57.5t-23 -57.5t-60 -22.5zM734 1317q-38 0 -60 22.5t-22 56.5q0 35 22.5 58t59.5 23q38 0 60.5 -23t22.5 -58t-22.5 -57t-60.5 -22zM815 1082h129l-458 -1256q-12 -32 -22 -54.5t-28.5 -56.5
t-41 -58t-52.5 -47t-70.5 -35t-88.5 -12q-53 0 -92 13v100q26 -7 61 -7q94 0 147.5 47.5t88.5 148.5l53 144l-408 1073h130l337 -910z" />
    <glyph glyph-name="dotlessi" unicode="&#x131;" horiz-adv-x="456" 
d="M288 0h-120v1082h120v-1082z" />
    <glyph glyph-name="OE" unicode="&#x152;" horiz-adv-x="1913" 
d="M1019 104h782v-104h-844q-199 -21 -311 -21q-239 0 -388.5 166t-149.5 431v304q0 265 149 430.5t387 165.5q140 0 313 -20h839v-105h-777v-548h680v-105h-680v-594zM228 576q0 -227 113.5 -361t304.5 -134q130 0 250 14v1266q-109 14 -252 14q-191 0 -303.5 -132
t-112.5 -361v-306z" />
    <glyph glyph-name="oe" unicode="&#x153;" horiz-adv-x="1892" 
d="M1824 538h-765v-28q0 -182 98 -305.5t255 -123.5q208 0 325 120l51 -83q-131 -138 -376 -138q-137 0 -247 72t-169 197q-58 -126 -167.5 -197.5t-254.5 -71.5q-217 0 -348 152.5t-131 392.5v32q0 239 130.5 392t346.5 153q146 0 256.5 -72.5t168.5 -199.5
q59 126 166 199.5t233 72.5q200 0 314 -125.5t114 -336.5v-102zM932 525v32q0 119 -39.5 218t-123 162t-197.5 63q-113 0 -196 -63t-122.5 -162t-39.5 -218v-32q0 -122 40 -221t123 -161t197 -62q85 0 154 35.5t113 97t67.5 141.5t23.5 170zM1396 1000q-131 0 -222 -101.5
t-110 -258.5h640v29q0 142 -82.5 236.5t-225.5 94.5z" />
    <glyph glyph-name="longs" unicode="&#x17f;" horiz-adv-x="465" 
d="M167 0v1217q0 163 82.5 251.5t228.5 88.5q71 0 135 -19l-15 -96q-50 13 -105 13q-98 0 -152 -62.5t-54 -175.5v-1217h-120z" />
    <glyph glyph-name="circumflex" unicode="&#x2c6;" horiz-adv-x="880" 
d="M715 1269v-10h-110l-169 183l-167 -183h-108v12l238 255h76z" />
    <glyph glyph-name="ring" unicode="&#x2da;" horiz-adv-x="636" 
d="M311 1586q81 0 137 -55.5t56 -135.5t-56 -133.5t-137 -53.5q-82 0 -137.5 53.5t-55.5 133.5t55.5 135.5t137.5 55.5zM311 1280q51 0 83.5 33t32.5 82q0 51 -32.5 85t-83.5 34t-84 -34t-33 -85q0 -49 33 -82t84 -33z" />
    <glyph glyph-name="tilde" unicode="&#x2dc;" horiz-adv-x="892" 
d="M780 1486q0 -95 -56.5 -154t-139.5 -59q-39 0 -71 11.5t-54.5 27.5t-44 32t-49 27.5t-58.5 11.5q-48 0 -79.5 -32.5t-31.5 -86.5l-89 4q0 94 55.5 153t139.5 59q42 0 81 -17t64.5 -38t61 -38t71.5 -17q47 0 78.5 34t31.5 88z" />
    <glyph glyph-name="gravecomb" unicode="&#x300;" horiz-adv-x="0" 
d="M-465 1257h-109l-227 279h145z" />
    <glyph glyph-name="acutecomb" unicode="&#x301;" horiz-adv-x="0" 
d="M-425 1536h145l-231 -279h-105z" />
    <glyph glyph-name="tildecomb" unicode="&#x303;" horiz-adv-x="0" 
d="M-181 1486q0 -95 -56.5 -154t-139.5 -59q-39 0 -71 11.5t-54.5 27.5t-44 32t-49 27.5t-58.5 11.5q-48 0 -79.5 -32.5t-31.5 -86.5l-89 4q0 94 55.5 153t139.5 59q42 0 81 -17t64.5 -38t61 -38t71.5 -17q47 0 78.5 34t31.5 88z" />
    <glyph glyph-name="alpha" unicode="&#x3b1;" horiz-adv-x="1154" 
d="M1129 95l17 -92q-37 -24 -97 -24q-79 0 -125 47t-59 150q-112 -197 -341 -197q-193 0 -303 145t-110 387v21q0 260 110 415t305 155q227 0 336 -205l14 185h102v-807q0 -104 27 -146t75 -42q19 0 49 8zM547 81q221 0 312 244v410q-42 117 -117.5 191t-192.5 74
q-106 0 -179 -63.5t-105.5 -166.5t-32.5 -238v-21q0 -195 79 -312.5t236 -117.5z" />
    <glyph glyph-name="uni05B0" unicode="&#x5b0;" horiz-adv-x="0" 
d="M580 -303q-29 0 -48 18t-19 45q0 28 19 46.5t48 18.5q28 0 47 -18.5t19 -46.5q0 -27 -19 -45t-47 -18zM580 -513q-29 0 -48 18t-19 45q0 28 19 46.5t48 18.5q28 0 47 -18.5t19 -46.5q0 -27 -19 -45t-47 -18z" />
    <glyph glyph-name="uni05B1" unicode="&#x5b1;" horiz-adv-x="0" 
d="M376 -303q-29 0 -48 18t-19 45q0 28 19 46.5t48 18.5q28 0 47.5 -18.5t19.5 -46.5q0 -27 -19.5 -45t-47.5 -18zM580 -303q-29 0 -48 18t-19 45q0 28 19 46.5t48 18.5q28 0 47 -18.5t19 -46.5q0 -27 -19 -45t-47 -18zM784 -303q-28 0 -47 18t-19 45q0 28 19 46.5t47 18.5
q29 0 48 -18.5t19 -46.5q0 -27 -19 -45t-48 -18zM478 -481q-29 0 -48 18t-19 45q0 28 19 46.5t48 18.5t48 -18.5t19 -46.5q0 -27 -19 -45t-48 -18zM784 -513q-28 0 -47 18t-19 45q0 28 19 46.5t47 18.5q29 0 48 -18.5t19 -46.5q0 -27 -19 -45t-48 -18z" />
    <glyph glyph-name="uni05B2" unicode="&#x5b2;" horiz-adv-x="0" 
d="M770 -303q-28 0 -47 18t-19 45q0 28 19 46.5t47 18.5q29 0 48 -18.5t19 -46.5q0 -27 -19 -45t-48 -18zM324 -276v75h316v-75h-316zM770 -513q-28 0 -47 18t-19 45q0 28 19 46.5t47 18.5q29 0 48 -18.5t19 -46.5q0 -27 -19 -45t-48 -18z" />
    <glyph glyph-name="uni05B3" unicode="&#x5b3;" horiz-adv-x="0" 
d="M771 -303q-29 0 -48 18t-19 45q0 28 19 46.5t48 18.5t48 -18.5t19 -46.5q0 -27 -19 -45t-48 -18zM486 -490q-27 0 -46.5 19.5t-19.5 44.5q0 17 17.5 54.5t20.5 95.5h-135v75h320v-75h-130q3 -58 21.5 -95.5t18.5 -54.5q0 -28 -19 -46t-48 -18zM771 -513q-29 0 -48 18
t-19 45q0 28 19 46.5t48 18.5t48 -18.5t19 -46.5q0 -27 -19 -45t-48 -18z" />
    <glyph glyph-name="uni05B4" unicode="&#x5b4;" horiz-adv-x="0" 
d="M580 -303q-28 0 -47.5 19.5t-19.5 43.5q0 28 19 46.5t48 18.5q28 0 47 -18.5t19 -46.5q0 -27 -19 -45t-47 -18z" />
    <glyph glyph-name="uni05B5" unicode="&#x5b5;" horiz-adv-x="0" 
d="M478 -303q-28 0 -47.5 19.5t-19.5 43.5q0 28 19 46.5t48 18.5t48 -18.5t19 -46.5q0 -27 -19 -45t-48 -18zM681 -303q-27 0 -46.5 19.5t-19.5 43.5q0 28 19 46.5t47 18.5q29 0 48 -18.5t19 -46.5q0 -27 -19 -45t-48 -18z" />
    <glyph glyph-name="uni05B6" unicode="&#x5b6;" horiz-adv-x="0" 
d="M478 -303q-28 0 -47.5 19.5t-19.5 43.5q0 28 19 46.5t48 18.5t48 -18.5t19 -46.5q0 -27 -19 -45t-48 -18zM681 -303q-27 0 -46.5 19.5t-19.5 43.5q0 28 19 46.5t47 18.5q29 0 48 -18.5t19 -46.5q0 -27 -19 -45t-48 -18zM580 -481q-29 0 -48 18t-19 45q0 28 19 46.5
t48 18.5q28 0 47 -18.5t19 -46.5q0 -27 -19 -45t-47 -18z" />
    <glyph glyph-name="uni05B7" unicode="&#x5b7;" horiz-adv-x="0" 
d="M396 -276v75h367v-75h-367z" />
    <glyph glyph-name="uni05B8" unicode="&#x5b8;" horiz-adv-x="0" 
d="M583 -492q-28 0 -47.5 19.5t-19.5 44.5q0 16 18 54t21 98h-152v75h354v-75h-147q3 -46 12.5 -74.5t18 -44.5t8.5 -33q0 -28 -19 -46t-47 -18z" />
    <glyph glyph-name="uni05B9" unicode="&#x5b9;" horiz-adv-x="0" 
d="M240 1320q-28 0 -47.5 19.5t-19.5 43.5q0 28 19 46.5t48 18.5q28 0 47.5 -18.5t19.5 -46.5q0 -27 -19.5 -45t-47.5 -18z" />
    <glyph glyph-name="uni05BA" unicode="&#x5ba;" horiz-adv-x="0" 
d="M240 1320q-28 0 -47.5 19.5t-19.5 43.5q0 28 19 46.5t48 18.5q28 0 47.5 -18.5t19.5 -46.5q0 -27 -19.5 -45t-47.5 -18z" />
    <glyph glyph-name="uni05BB" unicode="&#x5bb;" horiz-adv-x="0" 
d="M581 -303q-28 0 -47.5 19.5t-19.5 43.5q0 28 19 46.5t48 18.5q28 0 47 -18.5t19 -46.5q0 -27 -19 -45t-47 -18zM698 -466q-28 0 -47 20t-19 44q0 27 19 45.5t47 18.5t47.5 -18.5t19.5 -45.5t-19.5 -45.5t-47.5 -18.5zM816 -628q-28 0 -47.5 19.5t-19.5 43.5q0 28 19 46.5
t48 18.5t48 -18.5t19 -46.5q0 -27 -19 -45t-48 -18z" />
    <glyph glyph-name="uni05BC" unicode="&#x5bc;" horiz-adv-x="0" 
d="M308 532q-28 0 -47.5 20t-19.5 44q0 28 19 46.5t48 18.5q28 0 47.5 -18.5t19.5 -46.5q0 -27 -19.5 -45.5t-47.5 -18.5z" />
    <glyph glyph-name="uni05BE" unicode="&#x5be;" horiz-adv-x="479" 
d="M419 1066h-359v101h359v-101z" />
    <glyph glyph-name="uni05BF" unicode="&#x5bf;" horiz-adv-x="0" 
d="M250 1352v81h438v-81h-438z" />
    <glyph glyph-name="uni05C1" unicode="&#x5c1;" horiz-adv-x="0" 
d="M1280 1320q-27 0 -46.5 19.5t-19.5 43.5q0 28 19 46.5t47 18.5q29 0 48.5 -18.5t19.5 -46.5q0 -27 -19.5 -45t-48.5 -18z" />
    <glyph glyph-name="uni05C2" unicode="&#x5c2;" horiz-adv-x="0" 
d="M214 1320q-27 0 -46.5 19.5t-19.5 43.5q0 28 19 46.5t47 18.5q29 0 48.5 -18.5t19.5 -46.5q0 -27 -19.5 -45t-48.5 -18z" />
    <glyph glyph-name="uni05D0" unicode="&#x5d0;" horiz-adv-x="1271" 
d="M1164 1167l-387 -647l386 -520h-137l-563 760q-144 -77 -144 -285v-475h-119v442q0 290 212 386l-251 339h137l403 -543l324 543h139z" />
    <glyph glyph-name="uni05D1" unicode="&#x5d1;" horiz-adv-x="1052" 
d="M858 109l144 -14v-95h-936v102h670v620q0 183 -79.5 263.5t-261.5 80.5h-266v101h270q231 0 345 -110t114 -335v-613z" />
    <glyph glyph-name="uni05D2" unicode="&#x5d2;" horiz-adv-x="760" 
d="M50 -6q-16 0 -33 3v115q15 -3 41 -3q107 4 189 53.5t127.5 126.5t57.5 173v604h-269v101h389v-609q0 -87 18 -172l84 -386h-119l-67 343h-8q-16 -138 -134 -243.5t-276 -105.5z" />
    <glyph glyph-name="uni05D3" unicode="&#x5d3;" horiz-adv-x="1020" 
d="M60 1167h899v-101h-191v-1066h-122v1066h-586v101z" />
    <glyph glyph-name="uni05D4" unicode="&#x5d4;" horiz-adv-x="1181" 
d="M893 0v722q0 183 -80 263.5t-261 80.5h-393v101h396q232 0 345.5 -110t113.5 -335v-722h-121zM163 0v398q0 84 10.5 136t31.5 108h104q-27 -91 -27 -244v-398h-119z" />
    <glyph glyph-name="uni05D5" unicode="&#x5d5;" horiz-adv-x="560" 
d="M253 0v1066h-153v101h275v-1167h-122z" />
    <glyph glyph-name="uni05D6" unicode="&#x5d6;" horiz-adv-x="688" 
d="M343 0l-172 1059l-91 12v96h525l-1 -101h-310l175 -1066h-126z" />
    <glyph glyph-name="uni05D7" unicode="&#x5d7;" horiz-adv-x="1216" 
d="M186 0l1 1167h404q233 0 345.5 -110t112.5 -339v-718h-121v721q0 183 -78.5 264t-256.5 81h-285l-1 -1066h-121z" />
    <glyph glyph-name="uni05D8" unicode="&#x5d8;" horiz-adv-x="1230" 
d="M630 -21q-199 0 -321.5 124t-122.5 327v737h121v-738q0 -157 89 -252.5t234 -95.5t233.5 95.5t88.5 252.5v420q0 223 -172 223q-80 0 -174 -44l-25 86q113 63 224 63q131 0 199.5 -81.5t68.5 -237.5v-428q0 -203 -122 -327t-321 -124z" />
    <glyph glyph-name="uni05D9" unicode="&#x5d9;" horiz-adv-x="580" 
d="M287 523v543h-229v101h351v-644h-122z" />
    <glyph glyph-name="uni05DA" unicode="&#x5da;" horiz-adv-x="979" 
d="M678 -416v1482h-616v101h737v-1583h-121z" />
    <glyph glyph-name="uni05DB" unicode="&#x5db;" horiz-adv-x="1082" 
d="M415 -15q-142 0 -322 54l22 95q169 -48 301 -47q172 5 265.5 94t93.5 251v634h-651v101h773v-703q0 -235 -128 -358t-354 -121z" />
    <glyph glyph-name="uni05DC" unicode="&#x5dc;" horiz-adv-x="1032" 
d="M944 1167v-75l-448 -1092h-133l445 1066h-717v470h122v-369h731z" />
    <glyph glyph-name="uni05DD" unicode="&#x5dd;" horiz-adv-x="1265" 
d="M180 0v1167h899v-1167h-899zM302 102h656v964h-656v-964z" />
    <glyph glyph-name="uni05DE" unicode="&#x5de;" horiz-adv-x="1264" 
d="M174 0l97 786q11 84 50 156.5t93 109.5q7 5 27 14l-1 5q-100 -16 -267 -70l-32 96q114 40 253 64t252 24q221 0 338.5 -120t118.5 -352v-713h-466v101h344v623q0 175 -82 264.5t-240 89.5q-106 0 -178 -77.5t-88 -207.5l-98 -793h-121z" />
    <glyph glyph-name="uni05DF" unicode="&#x5df;" horiz-adv-x="553" 
d="M247 -416v1482h-154v101h275v-1583h-121z" />
    <glyph glyph-name="uni05E0" unicode="&#x5e0;" horiz-adv-x="698" 
d="M232 -20q-91 0 -172 19l7 99q58 -13 147 -13q177 0 177 209v772h-257v101h379v-882q0 -152 -71.5 -228.5t-209.5 -76.5z" />
    <glyph glyph-name="uni05E1" unicode="&#x5e1;" horiz-adv-x="1267" 
d="M654 -21q-214 0 -345.5 146t-132.5 384v142q-1 129 51 240.5t134 162.5q7 6 28 12l-1 4q-71 -7 -246 -58l-25 97q115 34 256.5 55t256.5 21q230 0 366 -141t136 -382v-153q0 -239 -131.5 -384.5t-346.5 -145.5zM654 86q161 0 259 116.5t98 306.5v152q0 190 -101.5 303.5
t-271.5 113.5q-150 0 -243 -114.5t-98 -307.5v-147q0 -190 98 -306.5t259 -116.5z" />
    <glyph glyph-name="uni05E2" unicode="&#x5e2;" horiz-adv-x="1136" 
d="M829 1167h122v-715q0 -226 -135.5 -350t-358.5 -124q-184 0 -391 79l34 94q180 -71 325 -76q-64 94 -90 211l-200 881h122l197 -881q29 -134 70 -205q141 21 223 116t82 252v718z" />
    <glyph glyph-name="uni05E3" unicode="&#x5e3;" horiz-adv-x="1159" 
d="M974 1167v-1583h-121v1482h-456q-40 -58 -65.5 -166.5t-25.5 -208.5v-126q59 -27 206 -27v-108q-123 0 -189.5 12.5t-135.5 49.5l-2 176q-1 105 28 219.5t75 178.5h-131v101h817z" />
    <glyph glyph-name="uni05E4" unicode="&#x5e4;" horiz-adv-x="1224" 
d="M548 -17q-166 0 -350 62l24 94q172 -52 325 -52q176 2 273 91.5t97 253.5v634h-525q-41 -60 -66.5 -155.5t-25.5 -192.5v-103q35 -16 79 -21.5t128 -5.5v-108q-123 0 -190 12.5t-136 49.5l-2 154q0 103 28.5 204t75.5 166h-132v101h887v-706q0 -233 -132 -356t-358 -122z
" />
    <glyph glyph-name="uni05E5" unicode="&#x5e5;" horiz-adv-x="1051" 
d="M631 550l28 -41q45 -65 45 -186v-739h-116v748q0 87 -30 131l-484 704h139l346 -512l302 512h138z" />
    <glyph glyph-name="uni05E6" unicode="&#x5e6;" horiz-adv-x="1076" 
d="M999 1167l-367 -615l333 -482v-70h-834v102h676l-733 1065h139l347 -511l301 511h138z" />
    <glyph glyph-name="uni05E7" unicode="&#x5e7;" horiz-adv-x="1219" 
d="M559 0v101q160 5 256.5 96t96.5 239v630h-737v101h859v-729q0 -200 -127.5 -316t-347.5 -122zM199 -416v869q0 83 10.5 134.5t31.5 107.5h104q-27 -86 -27 -242v-869h-119z" />
    <glyph glyph-name="uni05E8" unicode="&#x5e8;" horiz-adv-x="989" 
d="M701 0v836q0 105 -62 167.5t-166 62.5h-414v101h410q167 0 260.5 -90.5t93.5 -252.5v-824h-122z" />
    <glyph glyph-name="uni05E9" unicode="&#x5e9;" horiz-adv-x="1544" 
d="M304 1167v-997q211 -92 423 -92q145 0 259 40.5t184 127.5t70 211v710h119v-718q0 -117 -50 -208.5t-136.5 -148.5t-198.5 -86.5t-241 -29.5q-283 0 -547 125v1066h118zM617 292q92 79 92 269v606h120v-590q0 -102 -25.5 -171t-83.5 -124z" />
    <glyph glyph-name="uni05EA" unicode="&#x5ea;" horiz-adv-x="1255" 
d="M631 1167q233 0 345.5 -110t112.5 -339v-718h-121l-1 721q0 183 -78 264t-256 81h-174q-41 -53 -66 -147.5t-25 -198.5v-423q0 -303 -269 -303q-43 0 -97 8v101q42 -5 71 -5q95 0 135.5 48.5t40.5 155.5v412q0 103 27.5 200.5t73.5 151.5h-238v101h519z" />
    <glyph glyph-name="uni05F0" unicode="&#x5f0;" horiz-adv-x="1120" 
d="M253 0v1066h-153v101h275v-1167h-122zM813 0v1066h-153v101h275v-1167h-122z" />
    <glyph glyph-name="uni05F1" unicode="&#x5f1;" horiz-adv-x="1140" 
d="M253 0v1066h-153v101h275v-1167h-122zM847 523v543h-229v101h351v-644h-122z" />
    <glyph glyph-name="uni05F2" unicode="&#x5f2;" horiz-adv-x="1160" 
d="M287 523v543h-229v101h351v-644h-122zM867 523v543h-229v101h351v-644h-122z" />
    <glyph glyph-name="uni05F3" unicode="&#x5f3;" horiz-adv-x="282" 
d="M87 918l-75 42q89 117 89 263v189h114l-1 -181q0 -94 -34 -174.5t-93 -138.5z" />
    <glyph glyph-name="uni05F4" unicode="&#x5f4;" horiz-adv-x="541" 
d="M93 918l-74 42q89 119 89 263v189h113v-181q0 -93 -34.5 -174t-93.5 -139zM333 918l-74 42q89 117 89 263v189h113v-181q0 -93 -34.5 -174t-93.5 -139z" />
    <glyph glyph-name="uni1E9E" unicode="&#x1e9e;" horiz-adv-x="1324" 
d="M725 838q241 0 367.5 -114t126.5 -316t-127.5 -315t-346.5 -113q-143 0 -275 49l43 104q110 -52 232 -52q165 0 259.5 85t94.5 240q0 333 -376 333h-149v103l354 388q-128 144 -325 144q-170 0 -241.5 -99t-71.5 -297v-978h-118v980q0 245 101.5 370.5t329.5 125.5
q147 0 262 -61t214 -172l-365 -405h11z" />
    <glyph glyph-name="uni200C" unicode="&#x200c;" horiz-adv-x="0" 
d="M-616 1275h85v-1475h-85v1475z" />
    <glyph glyph-name="uni200D" unicode="&#x200d;" horiz-adv-x="0" 
d="M-317 1427l-194 -197l194 -196l-62 -63l-153 155v-1326h-85v1323l-150 -152l-62 63l194 196l-194 197l62 62l194 -196l195 196z" />
    <glyph glyph-name="uni200E" unicode="&#x200e;" horiz-adv-x="0" 
d="M-433 1464l228 -233l-232 -220h-121l194 179h-316v-1390h-85v1475h404l-192 189h120z" />
    <glyph glyph-name="uni200F" unicode="&#x200f;" horiz-adv-x="0" 
d="M-339 1275v-1475h-85v1390h-316l194 -179h-121l-232 220l228 233h120l-192 -189h404z" />
    <glyph glyph-name="endash" unicode="&#x2013;" horiz-adv-x="1334" 
d="M1161 687h-1002v102h1002v-102z" />
    <glyph glyph-name="emdash" unicode="&#x2014;" horiz-adv-x="1580" 
d="M1463 687h-1336v102h1336v-102z" />
    <glyph glyph-name="quoteleft" unicode="&#x2018;" horiz-adv-x="365" 
d="M99 1234q0 91 37.5 176.5t102.5 144.5l71 -52q-92 -125 -92 -267v-114h-119v112z" />
    <glyph glyph-name="quoteright" unicode="&#x2019;" horiz-adv-x="365" 
d="M274 1421q0 -91 -37.5 -176.5t-102.5 -144.5l-71 52q92 124 92 266v118h119v-115z" />
    <glyph glyph-name="quotesinglbase" unicode="&#x201a;" horiz-adv-x="354" 
d="M253 90q0 -91 -37.5 -177t-102.5 -145l-71 52q91 124 91 267v119h120v-116z" />
    <glyph glyph-name="quotedblleft" unicode="&#x201c;" horiz-adv-x="612" 
d="M100 1234q0 91 37.5 176.5t102.5 144.5l71 -52q-92 -125 -92 -267v-114h-119v112zM351 1234q0 91 37.5 176.5t102.5 144.5l71 -52q-92 -125 -92 -267v-114h-119v112z" />
    <glyph glyph-name="quotedblright" unicode="&#x201d;" horiz-adv-x="617" 
d="M280 1421q0 -91 -37.5 -176.5t-102.5 -144.5l-71 52q92 124 92 266v118h119v-115zM524 1421q0 -91 -37.5 -176.5t-102.5 -144.5l-71 52q92 124 92 266v118h119v-115z" />
    <glyph glyph-name="quotedblbase" unicode="&#x201e;" horiz-adv-x="594" 
d="M253 90q0 -94 -37.5 -182t-102.5 -149l-71 52q91 128 91 276v150h120v-147zM487 90q0 -94 -37.5 -182t-103.5 -149l-71 52q92 128 92 276v150h120v-147z" />
    <glyph glyph-name="bullet" unicode="&#x2022;" horiz-adv-x="663" 
d="M147 752q0 79 50 129t134 50q86 0 136.5 -50t50.5 -129v-35q0 -78 -50.5 -127t-135.5 -49q-84 0 -134.5 49t-50.5 127v35z" />
    <glyph glyph-name="ellipsis" unicode="&#x2026;" horiz-adv-x="1313" 
d="M251 156q39 0 62.5 -23.5t23.5 -59.5q0 -35 -23.5 -58.5t-62.5 -23.5t-61.5 23t-22.5 59t22.5 59.5t61.5 23.5zM661 156q39 0 62.5 -23.5t23.5 -59.5q0 -35 -23.5 -58.5t-62.5 -23.5t-61.5 23t-22.5 59t22.5 59.5t61.5 23.5zM1053 156q39 0 62.5 -23.5t23.5 -59.5
q0 -35 -23.5 -58.5t-62.5 -23.5t-61.5 23t-22.5 59t22.5 59.5t61.5 23.5z" />
    <glyph glyph-name="guilsinglleft" unicode="&#x2039;" horiz-adv-x="609" 
d="M509 945l-276 -388l276 -389h-106l-295 379v19l295 379h106z" />
    <glyph glyph-name="guilsinglright" unicode="&#x203a;" horiz-adv-x="609" 
d="M204 945l294 -385v-19l-294 -379h-106l276 389l-276 394h106z" />
    <glyph glyph-name="fraction" unicode="&#x2044;" horiz-adv-x="918" 
d="M137 121l-75 48l711 1138l75 -48z" />
    <glyph glyph-name="uni2070" unicode="&#x2070;" 
d="M651 991q0 -164 -74 -250.5t-207 -86.5q-132 0 -207.5 86.5t-75.5 250.5v137q0 164 74.5 250.5t207.5 86.5t207.5 -86.5t74.5 -250.5v-137zM546 1137q0 116 -45 178t-132 62t-132 -62t-45 -178v-155q0 -116 46 -178.5t132 -62.5q87 0 131.5 62.5t44.5 178.5v155z" />
    <glyph glyph-name="uni2074" unicode="&#x2074;" 
d="M694 941v-89h-127v-187h-105v187h-399l-3 67l397 535h110v-513h127zM174 941h288v383l-30 -50z" />
    <glyph glyph-name="uni2075" unicode="&#x2075;" 
d="M129 1063l48 391h463v-90h-376l-29 -228q71 38 160 38q123 0 196.5 -68t73.5 -186q0 -117 -70.5 -191.5t-209.5 -74.5q-109 0 -189 59t-88 164h105q7 -66 54 -101t118 -35q89 0 132 47.5t43 132.5q0 78 -49.5 124.5t-137.5 46.5q-58 0 -92 -13t-69 -38z" />
    <glyph glyph-name="uni2076" unicode="&#x2076;" 
d="M409 1186q121 0 187.5 -74t66.5 -188q0 -116 -75.5 -193t-197.5 -77q-133 0 -213 82t-80 217v68q0 212 113 327t316 115h17v-90h-11q-146 0 -232.5 -70.5t-97.5 -208.5q34 41 88 66.5t119 25.5zM388 741q77 0 124 52.5t47 129.5q0 78 -45.5 127t-130.5 49q-61 0 -112 -30
t-70 -76v-48q0 -95 52 -149.5t135 -54.5z" />
    <glyph glyph-name="uni2077" unicode="&#x2077;" 
d="M659 1394l-366 -729h-111l365 700h-485v89h597v-60z" />
    <glyph glyph-name="uni2078" unicode="&#x2078;" 
d="M504 1070q72 -25 113.5 -75.5t41.5 -117.5q0 -107 -80.5 -165t-208.5 -58t-209 58t-81 165q0 67 41.5 118t113.5 76q-62 24 -97.5 70.5t-35.5 106.5q0 102 74.5 159.5t192.5 57.5t193 -57.5t75 -159.5q0 -60 -35.5 -106.5t-97.5 -71.5zM369 1377q-72 0 -117 -36t-45 -97
q0 -59 45 -95t118 -36q72 0 117 36t45 95t-45.5 96t-117.5 37zM370 741q81 0 132.5 38t51.5 103t-52.5 103.5t-132.5 38.5q-82 0 -133 -38.5t-51 -103.5q0 -66 51 -103.5t134 -37.5z" />
    <glyph glyph-name="uni2079" unicode="&#x2079;" 
d="M356 1465q135 0 210 -84t75 -234v-63q0 -204 -103.5 -315.5t-315.5 -111.5h-16v87h16q298 0 312 264q-73 -88 -199 -88q-120 0 -189.5 75t-69.5 190q0 118 77.5 199t202.5 81zM355 1005q67 0 113.5 31.5t66.5 77.5v50q0 104 -47.5 158t-130.5 54q-79 0 -127 -56t-48 -134
q0 -76 46 -128.5t127 -52.5z" />
    <glyph glyph-name="uni2080" unicode="&#x2080;" 
d="M651 -45q0 -164 -74 -250.5t-207 -86.5q-132 0 -207.5 86.5t-75.5 250.5v137q0 164 74.5 250.5t207.5 86.5t207.5 -86.5t74.5 -250.5v-137zM546 101q0 116 -45 178t-132 62t-132 -62t-45 -178v-155q0 -116 46 -178.5t132 -62.5q87 0 131.5 62.5t44.5 178.5v155z" />
    <glyph glyph-name="uni2081" unicode="&#x2081;" 
d="M464 -364h-105v663l-232 -69v90l324 106h13v-790z" />
    <glyph glyph-name="uni2082" unicode="&#x2082;" 
d="M667 -364h-571v76l289 283q137 130 137 214q0 64 -41.5 101.5t-117.5 37.5q-88 0 -134.5 -44.5t-46.5 -116.5h-106q0 106 77.5 177.5t207.5 71.5q123 0 195 -60.5t72 -165.5q0 -70 -45.5 -134t-139.5 -154l-213 -198h437v-88z" />
    <glyph glyph-name="uni2083" unicode="&#x2083;" 
d="M492 40q160 -42 160 -188q0 -106 -80.5 -166.5t-207.5 -60.5q-76 0 -140.5 23.5t-108.5 77.5t-44 130h106q0 -63 53.5 -103.5t136.5 -40.5q85 0 132 38t47 105q0 142 -200 142h-78v81h78q88 0 136 38t48 97q0 60 -42 97.5t-126 37.5q-74 0 -122.5 -35.5t-48.5 -95.5h-106
q0 98 79 158.5t197 60.5q126 0 200.5 -58t74.5 -163q0 -56 -38 -103.5t-106 -71.5z" />
    <glyph glyph-name="uni2084" unicode="&#x2084;" 
d="M694 -88v-89h-127v-187h-105v187h-399l-3 67l397 535h110v-513h127zM174 -88h288v383l-30 -50z" />
    <glyph glyph-name="uni2085" unicode="&#x2085;" 
d="M129 34l48 391h463v-90h-376l-29 -228q71 38 160 38q123 0 196.5 -68t73.5 -186q0 -117 -70.5 -191.5t-209.5 -74.5q-109 0 -189 59t-88 164h105q7 -66 54 -101t118 -35q89 0 132 47.5t43 132.5q0 78 -49.5 124.5t-137.5 46.5q-58 0 -92 -13t-69 -38z" />
    <glyph glyph-name="uni2086" unicode="&#x2086;" 
d="M409 157q121 0 187.5 -74t66.5 -188q0 -116 -75.5 -193t-197.5 -77q-133 0 -213 82t-80 217v68q0 212 113 327t316 115h17v-90h-11q-146 0 -232.5 -70.5t-97.5 -208.5q34 41 88 66.5t119 25.5zM388 -288q77 0 124 52.5t47 129.5q0 78 -45.5 127t-130.5 49q-61 0 -112 -30
t-70 -76v-48q0 -95 52 -149.5t135 -54.5z" />
    <glyph glyph-name="uni2087" unicode="&#x2087;" 
d="M659 365l-366 -729h-111l365 700h-485v89h597v-60z" />
    <glyph glyph-name="uni2088" unicode="&#x2088;" 
d="M504 41q72 -25 113.5 -75.5t41.5 -117.5q0 -107 -80.5 -165t-208.5 -58t-209 58t-81 165q0 67 41.5 118t113.5 76q-62 24 -97.5 70.5t-35.5 106.5q0 102 74.5 159.5t192.5 57.5t193 -57.5t75 -159.5q0 -60 -35.5 -106.5t-97.5 -71.5zM369 348q-72 0 -117 -36t-45 -97
q0 -59 45 -95t118 -36q72 0 117 36t45 95t-45.5 96t-117.5 37zM370 -288q81 0 132.5 38t51.5 103t-52.5 103.5t-132.5 38.5q-82 0 -133 -38.5t-51 -103.5q0 -66 51 -103.5t134 -37.5z" />
    <glyph glyph-name="uni2089" unicode="&#x2089;" 
d="M356 436q135 0 210 -84t75 -234v-63q0 -204 -103.5 -315.5t-315.5 -111.5h-16v87h16q298 0 312 264q-73 -88 -199 -88q-120 0 -189.5 75t-69.5 190q0 118 77.5 199t202.5 81zM355 -24q67 0 113.5 31.5t66.5 77.5v50q0 104 -47.5 158t-130.5 54q-79 0 -127 -56t-48 -134
q0 -76 46 -128.5t127 -52.5z" />
    <glyph glyph-name="uni20AA" unicode="&#x20aa;" horiz-adv-x="1617" 
d="M161 0v1168h883v-648q0 -143 -39 -247l-101 -15l-6 5q31 103 31 257v545h-653v-1065h-115zM549 0v859h115v-755h307q154 -1 249.5 93t95.5 251v720h115v-718q1 -206 -125.5 -328t-341.5 -122h-415z" />
    <glyph glyph-name="Euro" unicode="&#x20ac;" horiz-adv-x="1136" 
d="M813 83q115 0 219 34l10 -107q-110 -31 -230 -31q-244 0 -390.5 146.5t-146.5 421.5v16h-191v89h191v165h-191v89h191v2q0 275 145.5 421.5t390.5 146.5q104 0 231 -31l-10 -108q-110 35 -220 35q-195 0 -304 -116.5t-109 -345.5v-4h419v-89h-419v-165h419v-89h-419v-16
q0 -226 110.5 -345t303.5 -119z" />
    <glyph glyph-name="minus" unicode="&#x2212;" horiz-adv-x="1169" 
d="M1001 687h-835v102h835v-102z" />
    <glyph glyph-name="fi" unicode="&#xfb01;" horiz-adv-x="1101" 
d="M348 1197v-115h254v-98h-254v-984h-120v984h-179v98h179v115q0 172 95.5 266t264.5 94q133 0 275 -59l-19 -103q-120 53 -249 53q-121 0 -184 -64t-63 -187zM809 1082h120v-1082h-120v1082z" />
    <glyph glyph-name="longst" unicode="&#xfb05;" horiz-adv-x="1215" 
d="M1131 96l5 -100q-46 -16 -128 -16q-112 0 -174 65t-62 219v720h-198v98h198v330q-33 18 -93.5 30.5t-110.5 12.5q-97 0 -151.5 -62.5t-54.5 -175.5v-1217h-119v984h-180v98h180v135q0 163 82 251.5t228 88.5q79 0 170.5 -23.5t168.5 -60.5v-113h1v-278h223v-98h-223v-720
q0 -104 37.5 -141.5t102.5 -37.5q36 0 98 11z" />
    <glyph glyph-name="st" unicode="&#xfb06;" horiz-adv-x="1660" 
d="M1581 95l6 -98q-51 -18 -129 -18q-109 0 -172 74.5t-63 234.5v696h-194v98h194v74q0 259 -223 259q-90 0 -141.5 -49t-51.5 -133q0 -61 17.5 -120.5t38.5 -101.5t38.5 -104.5t17.5 -127.5h-121q0 90 -75 155.5t-204 65.5q-130 0 -196 -56t-66 -132q0 -39 11 -66.5t42 -54
t88.5 -48.5t147.5 -42q200 -46 289.5 -119t89.5 -200q0 -134 -109.5 -218t-289.5 -84q-197 0 -310.5 95t-113.5 229h119q4 -61 32.5 -106t73.5 -69t94.5 -35.5t104.5 -11.5q130 0 204.5 57t74.5 137q0 37 -12 67t-42 60.5t-89.5 56.5t-146.5 44q-193 41 -285 109t-92 195
q0 124 104.5 209t276.5 85q124 0 215 -43q-42 106 -42 186q0 122 87 197.5t221 75.5q80 0 141 -21t98.5 -55.5t61.5 -82.5t33 -97t9 -105v-75h224v-98h-224v-696q0 -203 141 -203q30 0 97 10z" />
    <glyph glyph-name="uniFB1F" unicode="&#xfb1f;" horiz-adv-x="1160" 
d="M287 523v543h-229v101h351v-644h-122zM867 523v543h-229v101h351v-644h-122zM172 -276v75h367v-75h-367z" />
    <glyph glyph-name="uniFB20" unicode="&#xfb20;" horiz-adv-x="1170" 
d="M866 1167h118l-36 -728q-12 -229 -141.5 -353t-349.5 -124q-176 0 -391 82l34 94q187 -75 344 -77h3q-70 96 -100 225l-200 881h122l197 -881q30 -137 76 -216q130 25 204.5 118.5t82.5 246.5z" />
    <glyph glyph-name="uniFB21" unicode="&#xfb21;" horiz-adv-x="1763" 
d="M1658 1167l-464 -780l431 -387h-173l-1010 913q-98 -125 -98 -338v-575h-119v584q0 251 157 383l-221 200h166l777 -699l416 699h138z" />
    <glyph glyph-name="uniFB22" unicode="&#xfb22;" horiz-adv-x="1300" 
d="M60 1167h1179v-93l-228 -19v-1055h-122v1066h-829v101z" />
    <glyph glyph-name="uniFB23" unicode="&#xfb23;" horiz-adv-x="1628" 
d="M1340 0v836q0 105 -61.5 167.5t-165.5 62.5h-953v101h948q167 0 260.5 -90.5t93.5 -252.5v-824h-122zM161 0v394q0 131 36 239l109 16l6 -6q-31 -101 -31 -257v-386h-120z" />
    <glyph glyph-name="uniFB24" unicode="&#xfb24;" horiz-adv-x="1568" 
d="M699 -31q-264 0 -606 69l20 101q337 -66 582 -66q566 0 566 367v626h-1139v101h1261v-727q-1 -234 -175 -352.5t-509 -118.5z" />
    <glyph glyph-name="uniFB25" unicode="&#xfb25;" horiz-adv-x="1407" 
d="M1320 1167v-75l-635 -1092h-132l613 1066h-1075v453h122v-352h1107z" />
    <glyph glyph-name="uniFB26" unicode="&#xfb26;" horiz-adv-x="1787" 
d="M132 0v1167h1495v-1167h-1495zM254 102h1251v964h-1251v-964z" />
    <glyph glyph-name="uniFB27" unicode="&#xfb27;" horiz-adv-x="1450" 
d="M1162 0v836q0 105 -62 167.5t-166 62.5h-875v101h871q167 0 260 -90.5t93 -252.5v-824h-121z" />
    <glyph glyph-name="uniFB28" unicode="&#xfb28;" horiz-adv-x="1722" 
d="M1098 1167q233 0 345 -110t112 -339v-718h-121v721q0 183 -78 264t-256 81h-641q-41 -53 -66 -147.5t-25 -198.5v-423q0 -303 -269 -303q-43 0 -97 8v101q42 -5 71 -5q95 0 135.5 48.5t40.5 155.5v412q0 103 27.5 200.5t73.5 151.5h-238v101h986z" />
    <glyph glyph-name="uniFB29" unicode="&#xfb29;" horiz-adv-x="1140" 
d="M504 1206h111v-477h451v-104h-998v104h436v477z" />
    <glyph glyph-name="uniFB2A" unicode="&#xfb2a;" horiz-adv-x="1544" 
d="M1295 1320q-27 0 -46.5 19.5t-19.5 43.5q0 28 19 46.5t47 18.5q29 0 48.5 -18.5t19.5 -46.5q0 -27 -19.5 -45t-48.5 -18zM304 1167v-997q211 -92 423 -92q145 0 259 40.5t184 127.5t70 211v710h119v-718q0 -117 -50 -208.5t-136.5 -148.5t-198.5 -86.5t-241 -29.5
q-283 0 -547 125v1066h118zM617 292q92 79 92 269v606h120v-590q0 -102 -25.5 -171t-83.5 -124z" />
    <glyph glyph-name="uniFB2B" unicode="&#xfb2b;" horiz-adv-x="1544" 
d="M235 1320q-27 0 -46.5 19.5t-19.5 43.5q0 28 19 46.5t47 18.5q29 0 48.5 -18.5t19.5 -46.5q0 -27 -19.5 -45t-48.5 -18zM304 1167v-997q211 -92 423 -92q145 0 259 40.5t184 127.5t70 211v710h119v-718q0 -117 -50 -208.5t-136.5 -148.5t-198.5 -86.5t-241 -29.5
q-283 0 -547 125v1066h118zM617 292q92 79 92 269v606h120v-590q0 -102 -25.5 -171t-83.5 -124z" />
    <glyph glyph-name="uniFB2C" unicode="&#xfb2c;" horiz-adv-x="1544" 
d="M1295 1320q-27 0 -46.5 19.5t-19.5 43.5q0 28 19 46.5t47 18.5q29 0 48.5 -18.5t19.5 -46.5q0 -27 -19.5 -45t-48.5 -18zM304 1167v-997q211 -92 423 -92q145 0 259 40.5t184 127.5t70 211v710h119v-718q0 -117 -50 -208.5t-136.5 -148.5t-198.5 -86.5t-241 -29.5
q-283 0 -547 125v1066h118zM617 292q92 79 92 269v606h120v-590q0 -102 -25.5 -171t-83.5 -124zM1034 539q-28 0 -47.5 20t-19.5 44q0 28 19 46.5t48 18.5q28 0 47.5 -18.5t19.5 -46.5q0 -27 -19.5 -45.5t-47.5 -18.5z" />
    <glyph glyph-name="uniFB2D" unicode="&#xfb2d;" horiz-adv-x="1544" 
d="M235 1320q-27 0 -46.5 19.5t-19.5 43.5q0 28 19 46.5t47 18.5q29 0 48.5 -18.5t19.5 -46.5q0 -27 -19.5 -45t-48.5 -18zM304 1167v-997q211 -92 423 -92q145 0 259 40.5t184 127.5t70 211v710h119v-718q0 -117 -50 -208.5t-136.5 -148.5t-198.5 -86.5t-241 -29.5
q-283 0 -547 125v1066h118zM617 292q92 79 92 269v606h120v-590q0 -102 -25.5 -171t-83.5 -124zM1034 539q-28 0 -47.5 20t-19.5 44q0 28 19 46.5t48 18.5q28 0 47.5 -18.5t19.5 -46.5q0 -27 -19.5 -45.5t-47.5 -18.5z" />
    <glyph glyph-name="uniFB2E" unicode="&#xfb2e;" horiz-adv-x="1271" 
d="M1164 1167l-387 -647l386 -520h-137l-563 760q-144 -77 -144 -285v-475h-119v442q0 290 212 386l-251 339h137l403 -543l324 543h139zM475 -276v75h367v-75h-367z" />
    <glyph glyph-name="uniFB2F" unicode="&#xfb2f;" horiz-adv-x="1271" 
d="M1164 1167l-387 -647l386 -520h-137l-563 760q-144 -77 -144 -285v-475h-119v442q0 290 212 386l-251 339h137l403 -543l324 543h139zM482 -276v75h354v-75h-147q3 -46 12.5 -74.5t18 -44.5t8.5 -33q0 -28 -19 -46t-47 -18t-47.5 19.5t-19.5 44.5q0 16 18 54t21 98h-152z
" />
    <glyph glyph-name="uniFB30" unicode="&#xfb30;" horiz-adv-x="1271" 
d="M1164 1167l-387 -647l386 -520h-137l-563 760q-144 -77 -144 -285v-475h-119v442q0 290 212 386l-251 339h137l403 -543l324 543h139zM549 316q28 0 47.5 -18.5t19.5 -46.5q0 -27 -19.5 -45.5t-47.5 -18.5t-47.5 20t-19.5 44q0 28 19 46.5t48 18.5z" />
    <glyph glyph-name="uniFB31" unicode="&#xfb31;" horiz-adv-x="1052" 
d="M858 109l144 -14v-95h-936v102h670v620q0 183 -79.5 263.5t-261.5 80.5h-266v101h270q231 0 345 -110t114 -335v-613zM465 603q0 -27 -19.5 -45.5t-47.5 -18.5t-47.5 20t-19.5 44q0 28 19 46.5t48 18.5q28 0 47.5 -18.5t19.5 -46.5z" />
    <glyph glyph-name="uniFB32" unicode="&#xfb32;" horiz-adv-x="760" 
d="M50 -6q-16 0 -33 3v115q15 -3 41 -3q107 4 189 53.5t127.5 126.5t57.5 173v604h-269v101h389v-609q0 -87 18 -172l84 -386h-119l-67 343h-8q-16 -138 -134 -243.5t-276 -105.5zM211 539q-28 0 -47.5 20t-19.5 44q0 28 19 46.5t48 18.5q28 0 47.5 -18.5t19.5 -46.5
q0 -27 -19.5 -45.5t-47.5 -18.5z" />
    <glyph glyph-name="uniFB33" unicode="&#xfb33;" horiz-adv-x="1020" 
d="M60 1167h899v-101h-191v-1066h-122v1066h-586v101zM338 539q-28 0 -47.5 20t-19.5 44q0 28 19 46.5t48 18.5q28 0 47.5 -18.5t19.5 -46.5q0 -27 -19.5 -45.5t-47.5 -18.5z" />
    <glyph glyph-name="uniFB34" unicode="&#xfb34;" horiz-adv-x="1181" 
d="M893 0v722q0 183 -80 263.5t-261 80.5h-393v101h396q232 0 345.5 -110t113.5 -335v-722h-121zM588 539q-28 0 -47.5 20t-19.5 44q0 28 19 46.5t48 18.5q28 0 47.5 -18.5t19.5 -46.5q0 -27 -19.5 -45.5t-47.5 -18.5zM163 0v398q0 84 10.5 136t31.5 108h104
q-27 -91 -27 -244v-398h-119z" />
    <glyph glyph-name="uniFB35" unicode="&#xfb35;" horiz-adv-x="560" 
d="M253 0v1066h-153v101h275v-1167h-122zM86 539q-28 0 -47.5 20t-19.5 44q0 28 19 46.5t48 18.5q28 0 47.5 -18.5t19.5 -46.5q0 -27 -19.5 -45.5t-47.5 -18.5z" />
    <glyph glyph-name="uniFB36" unicode="&#xfb36;" horiz-adv-x="688" 
d="M343 0l-172 1059l-91 12v96h525l-1 -101h-310l175 -1066h-126zM525 539q-28 0 -47.5 20t-19.5 44q0 28 19 46.5t48 18.5q28 0 47.5 -18.5t19.5 -46.5q0 -27 -19.5 -45.5t-47.5 -18.5z" />
    <glyph glyph-name="uniFB38" unicode="&#xfb38;" horiz-adv-x="1230" 
d="M630 -21q-199 0 -321.5 124t-122.5 327v737h121v-738q0 -157 89 -252.5t234 -95.5t233.5 95.5t88.5 252.5v420q0 223 -172 223q-80 0 -174 -44l-25 86q113 63 224 63q131 0 199.5 -81.5t68.5 -237.5v-428q0 -203 -122 -327t-321 -124zM636 539q-28 0 -47.5 20t-19.5 44
q0 28 19 46.5t48 18.5q28 0 47.5 -18.5t19.5 -46.5q0 -27 -19.5 -45.5t-47.5 -18.5z" />
    <glyph glyph-name="uniFB39" unicode="&#xfb39;" horiz-adv-x="580" 
d="M287 523v543h-229v101h351v-644h-122zM109 758q-28 0 -47.5 20t-19.5 44q0 28 19 46.5t48 18.5q28 0 47.5 -18.5t19.5 -46.5q0 -27 -19.5 -45.5t-47.5 -18.5z" />
    <glyph glyph-name="uniFB3A" unicode="&#xfb3a;" horiz-adv-x="979" 
d="M678 -416v1482h-616v101h737v-1583h-121zM339 539q-28 0 -47.5 20t-19.5 44q0 28 19 46.5t48 18.5q28 0 47.5 -18.5t19.5 -46.5q0 -27 -19.5 -45.5t-47.5 -18.5z" />
    <glyph glyph-name="uniFB3B" unicode="&#xfb3b;" horiz-adv-x="1082" 
d="M415 -15q-142 0 -322 54l22 95q169 -48 301 -47q172 5 265.5 94t93.5 251v634h-651v101h773v-703q0 -235 -128 -358t-354 -121zM424 539q-28 0 -47.5 20t-19.5 44q0 28 19 46.5t48 18.5q28 0 47.5 -18.5t19.5 -46.5q0 -27 -19.5 -45.5t-47.5 -18.5z" />
    <glyph glyph-name="uniFB3C" unicode="&#xfb3c;" horiz-adv-x="1032" 
d="M944 1167v-75l-448 -1092h-133l445 1066h-717v470h122v-369h731zM398 699q0 -27 -19.5 -45.5t-47.5 -18.5t-47.5 20t-19.5 44q0 28 19 46.5t48 18.5q28 0 47.5 -18.5t19.5 -46.5z" />
    <glyph glyph-name="uniFB3E" unicode="&#xfb3e;" horiz-adv-x="1264" 
d="M174 0l97 786q11 84 50 156.5t93 109.5q7 5 27 14l-1 5q-100 -16 -267 -70l-32 96q114 40 253 64t252 24q221 0 338.5 -120t118.5 -352v-713h-466v101h344v623q0 175 -82 264.5t-240 89.5q-106 0 -178 -77.5t-88 -207.5l-98 -793h-121zM669 539q-28 0 -47.5 20t-19.5 44
q0 28 19 46.5t48 18.5q28 0 47.5 -18.5t19.5 -46.5q0 -27 -19.5 -45.5t-47.5 -18.5z" />
    <glyph glyph-name="uniFB40" unicode="&#xfb40;" horiz-adv-x="698" 
d="M232 -20q-91 0 -172 19l7 99q58 -13 147 -13q177 0 177 209v772h-257v101h379v-882q0 -152 -71.5 -228.5t-209.5 -76.5zM180 539q-28 0 -47.5 20t-19.5 44q0 28 19 46.5t48 18.5q28 0 47.5 -18.5t19.5 -46.5q0 -27 -19.5 -45.5t-47.5 -18.5z" />
    <glyph glyph-name="uniFB41" unicode="&#xfb41;" horiz-adv-x="1267" 
d="M654 -21q-214 0 -345.5 146t-132.5 384v142q-1 129 51 240.5t134 162.5q7 6 28 12l-1 4q-71 -7 -246 -58l-25 97q115 34 256.5 55t256.5 21q230 0 366 -141t136 -382v-153q0 -239 -131.5 -384.5t-346.5 -145.5zM654 86q161 0 259 116.5t98 306.5v152q0 190 -101.5 303.5
t-271.5 113.5q-150 0 -243 -114.5t-98 -307.5v-147q0 -190 98 -306.5t259 -116.5zM654 539q-28 0 -47.5 20t-19.5 44q0 28 19 46.5t48 18.5q28 0 47.5 -18.5t19.5 -46.5q0 -27 -19.5 -45.5t-47.5 -18.5z" />
    <glyph glyph-name="uniFB43" unicode="&#xfb43;" horiz-adv-x="1159" 
d="M974 1167v-1583h-121v1482h-456q-40 -58 -65.5 -166.5t-25.5 -208.5v-126q59 -27 206 -27v-108q-123 0 -189.5 12.5t-135.5 49.5l-2 176q-1 105 28 219.5t75 178.5h-131v101h817zM590 713q-28 0 -47.5 20t-19.5 44q0 28 19 46.5t48 18.5q28 0 47.5 -18.5t19.5 -46.5
q0 -27 -19.5 -45.5t-47.5 -18.5z" />
    <glyph glyph-name="uniFB44" unicode="&#xfb44;" horiz-adv-x="1224" 
d="M548 -17q-166 0 -350 62l24 94q172 -52 325 -52q176 2 273 91.5t97 253.5v634h-525q-41 -60 -66.5 -155.5t-25.5 -192.5v-103q35 -16 79 -21.5t128 -5.5v-108q-123 0 -190 12.5t-136 49.5l-2 154q0 103 28.5 204t75.5 166h-132v101h887v-706q0 -233 -132 -356t-358 -122z
M614 733q-28 0 -47.5 20t-19.5 44q0 28 19 46.5t48 18.5q28 0 47.5 -18.5t19.5 -46.5q0 -27 -19.5 -45.5t-47.5 -18.5z" />
    <glyph glyph-name="uniFB46" unicode="&#xfb46;" horiz-adv-x="1076" 
d="M999 1167l-367 -615l333 -482v-70h-834v102h676l-733 1065h139l347 -511l301 511h138zM409 330q0 -27 -19.5 -45.5t-47.5 -18.5t-47.5 20t-19.5 44q0 28 19 46.5t48 18.5q28 0 47.5 -18.5t19.5 -46.5z" />
    <glyph glyph-name="uniFB47" unicode="&#xfb47;" horiz-adv-x="1219" 
d="M559 0v101q160 5 256.5 96t96.5 239v630h-737v101h859v-729q0 -200 -127.5 -316t-347.5 -122zM199 -416v869q0 83 10.5 134.5t31.5 107.5h104q-27 -86 -27 -242v-869h-119zM612 539q-28 0 -47.5 20t-19.5 44q0 28 19 46.5t48 18.5q28 0 47.5 -18.5t19.5 -46.5
q0 -27 -19.5 -45.5t-47.5 -18.5z" />
    <glyph glyph-name="uniFB48" unicode="&#xfb48;" horiz-adv-x="989" 
d="M701 0v836q0 105 -62 167.5t-166 62.5h-414v101h410q167 0 260.5 -90.5t93.5 -252.5v-824h-122zM357 539q-28 0 -47.5 20t-19.5 44q0 28 19 46.5t48 18.5q28 0 47.5 -18.5t19.5 -46.5q0 -27 -19.5 -45.5t-47.5 -18.5z" />
    <glyph glyph-name="uniFB49" unicode="&#xfb49;" horiz-adv-x="1544" 
d="M304 1167v-997q211 -92 423 -92q145 0 259 40.5t184 127.5t70 211v710h119v-718q0 -117 -50 -208.5t-136.5 -148.5t-198.5 -86.5t-241 -29.5q-283 0 -547 125v1066h118zM617 292q92 79 92 269v606h120v-590q0 -102 -25.5 -171t-83.5 -124zM1034 539q-28 0 -47.5 20
t-19.5 44q0 28 19 46.5t48 18.5q28 0 47.5 -18.5t19.5 -46.5q0 -27 -19.5 -45.5t-47.5 -18.5z" />
    <glyph glyph-name="uniFB4A" unicode="&#xfb4a;" horiz-adv-x="1255" 
d="M631 1167q233 0 345.5 -110t112.5 -339v-718h-121l-1 721q0 183 -78 264t-256 81h-174q-41 -53 -66 -147.5t-25 -198.5v-423q0 -303 -269 -303q-43 0 -97 8v101q42 -5 71 -5q95 0 135.5 48.5t40.5 155.5v412q0 103 27.5 200.5t73.5 151.5h-238v101h519zM668 539
q-28 0 -47.5 20t-19.5 44q0 28 19 46.5t48 18.5q28 0 47.5 -18.5t19.5 -46.5q0 -27 -19.5 -45.5t-47.5 -18.5z" />
    <glyph glyph-name="uniFB4B" unicode="&#xfb4b;" horiz-adv-x="560" 
d="M238 1320q-28 0 -47.5 19.5t-19.5 43.5q0 28 19 46.5t48 18.5q28 0 47.5 -18.5t19.5 -46.5q0 -27 -19.5 -45t-47.5 -18zM253 0v1066h-153v101h275v-1167h-122z" />
    <glyph glyph-name="uniFB4C" unicode="&#xfb4c;" horiz-adv-x="1052" 
d="M689 1433v-81h-438v81h438zM858 109l144 -14v-95h-936v102h670v620q0 183 -79.5 263.5t-261.5 80.5h-266v101h270q231 0 345 -110t114 -335v-613z" />
    <glyph glyph-name="uniFB4D" unicode="&#xfb4d;" horiz-adv-x="1082" 
d="M255 1352v81h438v-81h-438zM415 -15q-142 0 -322 54l22 95q169 -48 301 -47q172 5 265.5 94t93.5 251v634h-651v101h773v-703q0 -235 -128 -358t-354 -121z" />
    <glyph glyph-name="uniFB4E" unicode="&#xfb4e;" horiz-adv-x="1224" 
d="M394 1352v81h438v-81h-438zM548 -17q-166 0 -350 62l24 94q172 -52 325 -52q176 2 273 91.5t97 253.5v634h-525q-41 -60 -66.5 -155.5t-25.5 -192.5v-103q35 -16 79 -21.5t128 -5.5v-108q-123 0 -190 12.5t-136 49.5l-2 154q0 103 28.5 204t75.5 166h-132v101h887v-706
q0 -233 -132 -356t-358 -122z" />
    <glyph glyph-name="uniFB4F" unicode="&#xfb4f;" horiz-adv-x="1158" 
d="M1052 1167l-393 -658l368 -509h-133l-803 1104v415h122v-394l370 -512l331 554h138z" />
    <glyph glyph-name="K.alt" horiz-adv-x="1308" 
d="M1115 0l-603 684h-199v-684h-124v1456h124v-667h193l564 667h155l-599 -715l642 -741h-153z" />
    <glyph glyph-name="R.alt" horiz-adv-x="1348" 
d="M1158 235q0 -147 69 -211v-25h-126q-67 70 -67 238v131q0 134 -84.5 211t-239.5 77h-400v-657h-124v1456h495q235 0 360 -102t125 -300q0 -116 -68.5 -207.5t-192.5 -133.5q253 -61 253 -342v-135zM666 761q196 0 286.5 79.5t90.5 212.5q0 144 -90 221t-273 77h-370v-590
h356z" />
    <glyph glyph-name="K.alt2" horiz-adv-x="1321" 
d="M1211 0h-159l-739 710v-710h-124v1456h124v-678h11l683 678h161l-716 -716z" />
    <glyph glyph-name="C.ss06" horiz-adv-x="1373" 
d="M1272 454q-26 -221 -165 -348t-372 -127q-176 0 -314.5 92.5t-215.5 256.5t-77 370v59q0 207 75 371t213 256.5t315 92.5q231 0 373 -127t169 -349h-124q-27 177 -131.5 274t-286.5 97q-142 0 -252 -79.5t-168.5 -218.5t-58.5 -315v-61q0 -176 61 -316t171.5 -219.5
t250.5 -79.5q185 0 285.5 94t128.5 277h123z" />
    <glyph glyph-name="D.ss06" horiz-adv-x="1401" 
d="M597 1456q143 0 267 -50.5t214 -141.5t141.5 -223t51.5 -288v-50q0 -156 -51.5 -288t-142 -223t-216.5 -141.5t-272 -50.5h-400v1456h408zM1146 703v53q0 268 -153 431.5t-396 163.5h-284v-1247h275q249 0 403.5 166.5t154.5 432.5z" />
    <glyph glyph-name="G.ss06" horiz-adv-x="1442" 
d="M1280 173q-21 -30 -60 -61t-99 -62.5t-150 -51t-194 -19.5q-186 0 -334 93t-231.5 261.5t-83.5 383.5v33q0 321 169 523.5t433 202.5q245 0 383.5 -118t164.5 -312h-123q-12 69 -40.5 125t-77 102.5t-127 72.5t-180.5 26q-141 0 -250 -80.5t-168.5 -221.5t-59.5 -318v-35
q0 -183 66 -327.5t186 -225.5t273 -81q143 0 243 40.5t137 87.5v376h-391v104h514v-518z" />
    <glyph glyph-name="O.ss06" horiz-adv-x="1461" 
d="M1332 703q0 -208 -77.5 -373.5t-215 -258t-308.5 -92.5q-126 0 -237.5 54.5t-192 149t-127 230t-46.5 290.5v50q0 207 79 373t216.5 258.5t305.5 92.5q171 0 309 -92.5t216 -258.5t78 -373v-50zM1209 755q0 268 -134.5 441t-345.5 173q-136 0 -245 -78.5t-171 -219.5
t-62 -316v-52q0 -268 136.5 -442t343.5 -174q212 0 345 173t133 443v52z" />
    <glyph glyph-name="Q.ss06" horiz-adv-x="1463" 
d="M1332 703q0 -218 -85.5 -388.5t-233.5 -258.5l276 -227l-85 -77l-307 252q-78 -25 -166 -25q-126 0 -237.5 54.5t-192 149t-127 230t-46.5 290.5v44q0 156 46.5 292t126.5 232t191 151t237 55q171 0 309 -94t216 -261t78 -375v-44zM731 87q212 0 345 172.5t133 443.5v46
q0 177 -60.5 318.5t-170.5 221.5t-249 80q-206 0 -342 -176t-136 -444v-46q0 -269 136.5 -442.5t343.5 -173.5z" />
    <glyph glyph-name="g.alt" horiz-adv-x="1079" 
d="M619 187q182 0 286.5 -73.5t104.5 -216.5q0 -58 -35 -117t-98.5 -108t-163.5 -79.5t-219 -30.5q-205 0 -319.5 80.5t-114.5 200.5q0 96 58 168.5t148 113.5q-66 46 -66 132q0 108 103 189q-85 45 -134 120.5t-49 164.5v22q0 152 114.5 250.5t291.5 98.5q77 0 145 -20h338
l2 -99h-171q92 -94 92 -230v-22q0 -141 -114.5 -240t-289.5 -99q-76 0 -144 20q-73 -54 -73 -128q0 -97 127 -97h181zM240 753v-22q0 -93 81 -165t207 -72q124 0 204 72t80 165v22q0 102 -80 174.5t-206 72.5t-206 -73t-80 -174zM494 -337q92 0 169 22t125.5 56.5t75 75
t26.5 80.5q0 188 -271 188h-199q-26 0 -51 3q-79 -21 -134 -85.5t-55 -141.5q0 -86 80 -142t234 -56z" />
    <glyph glyph-name="k.alt" horiz-adv-x="1006" 
d="M854 0l-436 528h-139v-528h-120v1536h120v-906h127l403 452h145l-437 -493l482 -589h-145z" />
    <glyph glyph-name="k.alt2" horiz-adv-x="982" 
d="M791 0l-494 517h-18v-517h-120v1560h120v-941h11l460 463h157l-507 -508l541 -574h-150z" />
    <glyph glyph-name="b.ss06" horiz-adv-x="1134" 
d="M613 1102q198 0 316.5 -149.5t118.5 -400.5v-21q0 -161 -53.5 -286.5t-152 -195.5t-227.5 -70q-229 0 -345 174l-12 -153h-103v1536h120v-610q115 176 338 176zM927 531v21q0 198 -88.5 322t-248.5 124q-228 0 -315 -221v-489q40 -93 119.5 -148.5t197.5 -55.5
q106 0 183 59.5t114.5 159.5t37.5 228z" />
    <glyph glyph-name="c.ss06" horiz-adv-x="1068" 
d="M870 335h115q-7 -153 -128 -254.5t-288 -101.5q-147 0 -256 72.5t-163 193.5t-54 275v42q0 154 54 275t162.5 193t255.5 72q176 0 293 -105t124 -279h-115q-7 129 -92 205.5t-210 76.5q-89 0 -158 -36t-110.5 -97.5t-62.5 -139t-21 -165.5v-42q0 -71 12.5 -134.5
t40.5 -119.5t68.5 -97t100 -64.5t131.5 -23.5q119 0 206 67.5t95 186.5z" />
    <glyph glyph-name="d.ss06" horiz-adv-x="1145" 
d="M867 1536h120v-1536h-107l-9 147q-115 -168 -340 -168q-191 0 -313 154.5t-122 396.5v21q0 250 121.5 400.5t315.5 150.5q221 0 334 -171v605zM554 84q221 0 313 195v511q-90 208 -311 208q-161 0 -250.5 -124.5t-89.5 -322.5v-21q0 -127 38.5 -227t116 -159.5
t183.5 -59.5z" />
    <glyph glyph-name="g.ss06" horiz-adv-x="1143" 
d="M885 1082h102v-1036q0 -225 -116 -351.5t-324 -126.5q-81 0 -174 23t-162 64l36 92q138 -77 298 -77t241 96.5t81 275.5v99q-117 -162 -336 -162q-193 0 -314 154t-121 397v21q0 251 120.5 401t316.5 150q226 0 340 -181zM553 84q225 0 314 200v500q-87 214 -312 214
q-160 0 -249.5 -124.5t-89.5 -322.5v-21q0 -128 38 -227.5t115.5 -159t183.5 -59.5z" />
    <glyph glyph-name="o.ss06" horiz-adv-x="1155" 
d="M90 557q0 237 137 391t350 154q215 0 351.5 -154t136.5 -391v-32q0 -238 -136 -392t-350 -154q-141 0 -253 70.5t-174 195t-62 280.5v32zM210 525q0 -120 43.5 -220.5t129 -162t196.5 -61.5q164 0 265 129.5t101 314.5v32q0 118 -43.5 218t-129 162.5t-195.5 62.5
t-195 -62.5t-128.5 -162.5t-43.5 -218v-32z" />
    <glyph glyph-name="p.ss06" horiz-adv-x="1142" 
d="M612 1102q198 0 316.5 -149.5t118.5 -401.5v-21q0 -244 -119 -397.5t-314 -153.5q-221 0 -339 157v-552h-120v1498h101l14 -157q116 177 342 177zM927 530v21q0 198 -90.5 322.5t-251.5 124.5q-220 0 -310 -206v-522q92 -189 312 -189q106 0 184 60t117 161t39 228z" />
    <glyph glyph-name="q.ss06" horiz-adv-x="1150" 
d="M882 1082h104v-1498h-119v550q-118 -155 -334 -155q-196 0 -316.5 151t-120.5 395v21q0 251 120.5 403.5t318.5 152.5q220 0 336 -170zM556 81q217 0 311 189v528q-94 202 -309 202q-160 0 -251 -128t-91 -326v-21q0 -196 90.5 -320t249.5 -124z" />
    <glyph glyph-name="e.ss07" horiz-adv-x="1059" 
d="M982 534h-772v-24q0 -181 108.5 -305t279.5 -124q175 0 301 111l43 -83q-132 -130 -349 -130q-220 0 -361.5 150t-141.5 381v54q0 120 38 222t101.5 170.5t148 107t176.5 38.5q203 0 315.5 -127t112.5 -339v-102zM554 1000q-138 0 -230.5 -99.5t-109.5 -264.5h648v29
q0 144 -81 239.5t-227 95.5z" />
    <glyph glyph-name="g.ss07" horiz-adv-x="1137" 
d="M879 1082h101v-1045q0 -221 -115.5 -345t-323.5 -124q-78 0 -165.5 19.5t-152.5 54.5l35 96q130 -68 281 -68q160 0 240.5 94t80.5 269v108q-115 -162 -336 -162q-191 0 -303 150t-112 396v21q0 253 112 404.5t305 151.5q227 0 340 -181zM547 84q224 0 313 200v500
q-87 214 -311 214q-80 0 -142.5 -34.5t-100.5 -96t-57.5 -143t-19.5 -178.5v-21q0 -199 80.5 -320t237.5 -121z" />
    <glyph glyph-name="f_f" horiz-adv-x="1356" 
d="M243 1217q0 163 84.5 251.5t234.5 88.5q68 0 128 -17l-9 -100q-50 12 -110 12q-98 0 -153.5 -61.5t-55.5 -173.5v-135h259v-98h-259v-984h-119v984h-180v98h180v135zM1249 1452q-98 0 -153.5 -61.5t-55.5 -173.5v-135h259v-98h-259v-984h-119v984h-180v98h180v135
q0 163 84.5 251.5t234.5 88.5q68 0 128 -17l-9 -100q-49 12 -110 12z" />
    <glyph glyph-name="f_f_i" horiz-adv-x="1696" 
d="M943 1197v-115h254v-98h-254v-984h-120v984h-461v-984h-119v984h-180v98h180v135q0 163 84.5 251.5t234.5 88.5q68 0 128 -17l-9 -100q-50 12 -110 12q-98 0 -153.5 -61.5t-55.5 -173.5v-135h461v115q0 172 95.5 266t264.5 94q133 0 275 -59l-19 -103q-120 53 -249 53
q-121 0 -184 -64t-63 -187zM1404 1082h119v-1082h-119v1082z" />
    <glyph glyph-name="f_f_l" horiz-adv-x="1696" 
d="M1150 1557q117 0 373 -61v-1496h-119v1422q-153 30 -246 30q-102 0 -158.5 -61.5t-56.5 -173.5v-135h258v-98h-258v-984h-120v984h-461v-984h-119v984h-180v98h180v135q0 163 84.5 251.5t234.5 88.5q68 0 128 -17l-9 -100q-50 12 -110 12q-98 0 -153.5 -61.5
t-55.5 -173.5v-135h461v135q0 163 86 251.5t241 88.5z" />
    <glyph glyph-name="f_l" horiz-adv-x="1115" 
d="M569 1557q116 0 374 -61v-1496h-120v1422q-153 30 -246 30q-102 0 -158.5 -61.5t-56.5 -173.5v-135h259v-98h-259v-984h-119v984h-180v98h180v135q0 163 85.5 251.5t240.5 88.5z" />
    <glyph glyph-name="A.smcp" horiz-adv-x="1108" 
d="M960 0l-123 311h-565l-124 -311h-124l474 1165h114l471 -1165h-123zM313 413h483l-241 609z" />
    <glyph glyph-name="Aacute.smcp" horiz-adv-x="1108" 
d="M823 1564l-231 -279h-105l191 279h145zM960 0l-123 311h-565l-124 -311h-124l474 1165h114l471 -1165h-123zM313 413h483l-241 609z" />
    <glyph glyph-name="Acircumflex.smcp" horiz-adv-x="1108" 
d="M555 1470l-167 -183h-108v12l238 255h76l240 -257v-10h-110zM960 0l-123 311h-565l-124 -311h-124l474 1165h114l471 -1165h-123zM313 413h483l-241 609z" />
    <glyph glyph-name="Adieresis.smcp" horiz-adv-x="1108" 
d="M339 1345q-38 0 -60 22.5t-22 57.5t22 57.5t60 22.5q37 0 60 -22.5t23 -57.5t-23 -57.5t-60 -22.5zM776 1345q-38 0 -60 22.5t-22 56.5q0 35 22.5 58t59.5 23q38 0 60.5 -23t22.5 -58t-22.5 -57t-60.5 -22zM960 0l-123 311h-565l-124 -311h-124l474 1165h114l471 -1165
h-123zM313 413h483l-241 609z" />
    <glyph glyph-name="Agrave.smcp" horiz-adv-x="1108" 
d="M628 1285h-109l-227 279h145zM960 0l-123 311h-565l-124 -311h-124l474 1165h114l471 -1165h-123zM313 413h483l-241 609z" />
    <glyph glyph-name="Aring.smcp" horiz-adv-x="1108" 
d="M557 1242q-82 0 -137.5 53.5t-55.5 133.5t55.5 135.5t137.5 55.5q81 0 137 -55.5t56 -135.5t-56 -133.5t-137 -53.5zM557 1548q-51 0 -84 -34t-33 -85q0 -49 33 -82t84 -33t83.5 33t32.5 82q0 51 -32.5 85t-83.5 34zM960 0l-123 311h-565l-124 -311h-124l474 1165h114
l471 -1165h-123zM313 413h483l-241 609z" />
    <glyph glyph-name="Atilde.smcp" horiz-adv-x="1108" 
d="M425 1421q-48 0 -79.5 -32.5t-31.5 -86.5l-89 4q0 94 55.5 153t139.5 59q42 0 81 -17t64.5 -38t61 -38t71.5 -17q47 0 78.5 34t31.5 88l90 -6q0 -95 -56.5 -154t-139.5 -59q-39 0 -71 11.5t-54.5 27.5t-44 32t-49 27.5t-58.5 11.5zM960 0l-123 311h-565l-124 -311h-124
l474 1165h114l471 -1165h-123zM313 413h483l-241 609z" />
    <glyph glyph-name="AE.smcp" horiz-adv-x="1573" 
d="M889 101h614v-101h-731l-6 324h-433l-186 -324h-132l687 1165h781v-101h-610l7 -408h527v-101h-526zM392 426h373l-11 631z" />
    <glyph glyph-name="B.smcp" horiz-adv-x="1084" 
d="M751 606q108 -22 172.5 -100t64.5 -178q0 -158 -109 -243t-296 -85h-429v1165h370q200 0 310 -77t110 -232q0 -89 -50.5 -155t-142.5 -95zM524 1062h-250v-414h265q138 0 211.5 52t73.5 154q0 208 -300 208zM583 102q135 0 210.5 59.5t75.5 165.5q0 100 -70.5 162
t-207.5 62h-317v-449h309z" />
    <glyph glyph-name="C.smcp" horiz-adv-x="1145" 
d="M1049 367q-19 -181 -138.5 -282t-325.5 -101q-216 0 -346 145t-130 385v136q0 240 131 385.5t351 145.5q202 0 320.5 -102t137.5 -284h-119q-38 284 -339 284q-169 0 -265.5 -115t-96.5 -313v-137q0 -195 94 -312t262 -117q159 0 242.5 69.5t102.5 212.5h119z" />
    <glyph glyph-name="Ccedilla.smcp" horiz-adv-x="1145" 
d="M585 85q159 0 242.5 69.5t102.5 212.5h119q-18 -170 -125 -270t-291 -112l-10 -56q165 -22 165 -171q0 -91 -78 -145t-216 -54l-7 77q82 0 141.5 30.5t59.5 90.5q0 55 -40.5 77.5t-134.5 31.5l26 120q-197 16 -313.5 159t-116.5 369v136q0 240 131 385.5t351 145.5
q202 0 320.5 -102t137.5 -284h-119q-38 284 -339 284q-169 0 -265.5 -115t-96.5 -313v-137q0 -195 94 -312t262 -117z" />
    <glyph glyph-name="D.smcp" horiz-adv-x="1152" 
d="M508 1165q238 0 388 -147.5t150 -386.5v-98q0 -240 -150.5 -386.5t-393.5 -146.5h-348v1165h354zM927 533v100q0 197 -113.5 313t-305.5 116h-234v-960h228q196 0 310.5 117.5t114.5 313.5z" />
    <glyph glyph-name="Eth.smcp" horiz-adv-x="1152" 
d="M508 1165q238 0 388 -147.5t150 -386.5v-98q0 -240 -150.5 -386.5t-393.5 -146.5h-348v540h-199v102h199v523h354zM927 533v100q0 197 -113.5 313t-305.5 116h-234v-420h292v-102h-292v-438h228q196 0 310.5 117.5t114.5 313.5z" />
    <glyph glyph-name="E.smcp" horiz-adv-x="1000" 
d="M274 102h665v-102h-785v1165h781v-103h-661v-407h577v-102h-577v-451z" />
    <glyph glyph-name="Eacute.smcp" horiz-adv-x="1000" 
d="M801 1564l-231 -279h-105l191 279h145zM274 102h665v-102h-785v1165h781v-103h-661v-407h577v-102h-577v-451z" />
    <glyph glyph-name="Ecircumflex.smcp" horiz-adv-x="1000" 
d="M533 1470l-167 -183h-108v12l238 255h76l240 -257v-10h-110zM274 102h665v-102h-785v1165h781v-103h-661v-407h577v-102h-577v-451z" />
    <glyph glyph-name="Edieresis.smcp" horiz-adv-x="1000" 
d="M317 1345q-38 0 -60 22.5t-22 57.5t22 57.5t60 22.5q37 0 60 -22.5t23 -57.5t-23 -57.5t-60 -22.5zM754 1345q-38 0 -60 22.5t-22 56.5q0 35 22.5 58t59.5 23q38 0 60.5 -23t22.5 -58t-22.5 -57t-60.5 -22zM274 102h665v-102h-785v1165h781v-103h-661v-407h577v-102h-577
v-451z" />
    <glyph glyph-name="Egrave.smcp" horiz-adv-x="1000" 
d="M606 1285h-109l-227 279h145zM274 102h665v-102h-785v1165h781v-103h-661v-407h577v-102h-577v-451z" />
    <glyph glyph-name="F.smcp" horiz-adv-x="988" 
d="M934 1062h-660v-426h576v-103h-576v-533h-120v1165h780v-103z" />
    <glyph glyph-name="G.smcp" horiz-adv-x="1202" 
d="M1066 139q-45 -59 -154.5 -107t-284.5 -48q-226 0 -366 145.5t-140 391.5v131q0 244 132 386.5t357 142.5q204 0 319 -96t136 -255h-119q-19 112 -100 180.5t-235 68.5q-175 0 -273 -115t-98 -310v-133q0 -200 106 -318t283 -118q124 0 204.5 29.5t113.5 65.5v284h-329
v98h448v-423z" />
    <glyph glyph-name="H.smcp" horiz-adv-x="1245" 
d="M970 1165h120v-1165h-120v525h-696v-525h-120v1165h120v-538h696v538z" />
    <glyph glyph-name="I.smcp" horiz-adv-x="474" 
d="M297 0h-120v1165h120v-1165z" />
    <glyph glyph-name="Iacute.smcp" horiz-adv-x="474" 
d="M359 1564h145l-231 -279h-105zM297 0h-120v1165h120v-1165z" />
    <glyph glyph-name="Icircumflex.smcp" horiz-adv-x="474" 
d="M515 1297v-10h-110l-169 183l-167 -183h-108v12l238 255h76zM297 0h-120v1165h120v-1165z" />
    <glyph glyph-name="Idieresis.smcp" horiz-adv-x="474" 
d="M20 1505q38 0 60.5 -22.5t22.5 -57.5t-22.5 -57.5t-60.5 -22.5t-60 22.5t-22 57.5t22 57.5t60 22.5zM457 1505q38 0 60.5 -23t22.5 -58t-22.5 -57t-60.5 -22q-37 0 -59.5 22.5t-22.5 56.5q0 35 22.5 58t59.5 23zM297 0h-120v1165h120v-1165z" />
    <glyph glyph-name="Igrave.smcp" horiz-adv-x="474" 
d="M309 1285h-109l-227 279h145zM297 0h-120v1165h120v-1165z" />
    <glyph glyph-name="J.smcp" horiz-adv-x="971" 
d="M703 1165h121v-828q0 -162 -103.5 -257.5t-267.5 -95.5q-180 0 -287 87t-107 255h120q0 -119 71.5 -180t202.5 -61q110 0 180 68t70 184v828z" />
    <glyph glyph-name="K.smcp" horiz-adv-x="1112" 
d="M937 0l-491 565l-172 -159v-406h-120v1165h120v-613l165 167l453 446h152l-513 -519l555 -646h-149z" />
    <glyph glyph-name="L.smcp" horiz-adv-x="930" 
d="M274 102h612v-102h-732v1165h120v-1063z" />
    <glyph glyph-name="M.smcp" horiz-adv-x="1525" 
d="M1370 1165v-1165h-119v477l11 541l-456 -1018h-89l-455 1015l12 -538v-477h-120v1165h158l450 -999l449 999h159z" />
    <glyph glyph-name="N.smcp" horiz-adv-x="1249" 
d="M1094 0h-119l-701 978v-978h-120v1165h120l701 -976v976h119v-1165z" />
    <glyph glyph-name="Ntilde.smcp" horiz-adv-x="1249" 
d="M966 1524q0 -95 -56.5 -154t-139.5 -59q-39 0 -71 11.5t-54.5 27.5t-44 32t-49 27.5t-58.5 11.5q-48 0 -79.5 -32.5t-31.5 -86.5l-89 4q0 94 55.5 153t139.5 59q42 0 81 -17t64.5 -38t61 -38t71.5 -17q47 0 78.5 34t31.5 88zM1094 0h-119l-701 978v-978h-120v1165h120
l701 -976v976h119v-1165z" />
    <glyph glyph-name="O.smcp" horiz-adv-x="1194" 
d="M1088 525q0 -248 -133.5 -394.5t-357.5 -146.5q-222 0 -357 147t-135 394v114q0 247 134.5 394.5t356.5 147.5q224 0 358 -147t134 -395v-114zM970 641q0 203 -99 319.5t-275 116.5q-174 0 -273 -117t-99 -319v-116q0 -203 100 -320.5t273 -117.5q176 0 274.5 117
t98.5 321v116z" />
    <glyph glyph-name="Oacute.smcp" horiz-adv-x="1194" 
d="M717 1564h145l-231 -279h-105zM1088 525q0 -248 -133.5 -394.5t-357.5 -146.5q-222 0 -357 147t-135 394v114q0 247 134.5 394.5t356.5 147.5q224 0 358 -147t134 -395v-114zM970 641q0 203 -99 319.5t-275 116.5q-174 0 -273 -117t-99 -319v-116q0 -203 100 -320.5
t273 -117.5q176 0 274.5 117t98.5 321v116z" />
    <glyph glyph-name="Ocircumflex.smcp" horiz-adv-x="1194" 
d="M873 1297v-10h-110l-169 183l-167 -183h-108v12l238 255h76zM1088 525q0 -248 -133.5 -394.5t-357.5 -146.5q-222 0 -357 147t-135 394v114q0 247 134.5 394.5t356.5 147.5q224 0 358 -147t134 -395v-114zM970 641q0 203 -99 319.5t-275 116.5q-174 0 -273 -117t-99 -319
v-116q0 -203 100 -320.5t273 -117.5q176 0 274.5 117t98.5 321v116z" />
    <glyph glyph-name="Odieresis.smcp" horiz-adv-x="1194" 
d="M378 1505q38 0 60.5 -22.5t22.5 -57.5t-22.5 -57.5t-60.5 -22.5t-60 22.5t-22 57.5t22 57.5t60 22.5zM815 1505q38 0 60.5 -23t22.5 -58t-22.5 -57t-60.5 -22q-37 0 -59.5 22.5t-22.5 56.5q0 35 22.5 58t59.5 23zM1088 525q0 -248 -133.5 -394.5t-357.5 -146.5
q-222 0 -357 147t-135 394v114q0 247 134.5 394.5t356.5 147.5q224 0 358 -147t134 -395v-114zM970 641q0 203 -99 319.5t-275 116.5q-174 0 -273 -117t-99 -319v-116q0 -203 100 -320.5t273 -117.5q176 0 274.5 117t98.5 321v116z" />
    <glyph glyph-name="Ograve.smcp" horiz-adv-x="1194" 
d="M667 1285h-109l-227 279h145zM1088 525q0 -248 -133.5 -394.5t-357.5 -146.5q-222 0 -357 147t-135 394v114q0 247 134.5 394.5t356.5 147.5q224 0 358 -147t134 -395v-114zM970 641q0 203 -99 319.5t-275 116.5q-174 0 -273 -117t-99 -319v-116q0 -203 100 -320.5
t273 -117.5q176 0 274.5 117t98.5 321v116z" />
    <glyph glyph-name="Oslash.smcp" horiz-adv-x="1194" 
d="M960 1028q128 -147 128 -389v-114q0 -248 -133.5 -394.5t-357.5 -146.5q-162 0 -280 81l-87 -131h-103l124 186q-146 148 -146 405v114q0 247 134.5 394.5t356.5 147.5q177 0 300 -94l83 124h103zM224 525q0 -193 91 -309l521 780q-97 81 -240 81q-174 0 -273 -117
t-99 -319v-116zM970 525v116q0 178 -76 289l-517 -775q91 -68 220 -68q176 0 274.5 117t98.5 321z" />
    <glyph glyph-name="Otilde.smcp" horiz-adv-x="1194" 
d="M937 1524q0 -95 -56.5 -154t-139.5 -59q-39 0 -71 11.5t-54.5 27.5t-44 32t-49 27.5t-58.5 11.5q-48 0 -79.5 -32.5t-31.5 -86.5l-89 4q0 94 55.5 153t139.5 59q42 0 81 -17t64.5 -38t61 -38t71.5 -17q47 0 78.5 34t31.5 88zM1088 525q0 -248 -133.5 -394.5
t-357.5 -146.5q-222 0 -357 147t-135 394v114q0 247 134.5 394.5t356.5 147.5q224 0 358 -147t134 -395v-114zM970 641q0 203 -99 319.5t-275 116.5q-174 0 -273 -117t-99 -319v-116q0 -203 100 -320.5t273 -117.5q176 0 274.5 117t98.5 321v116z" />
    <glyph glyph-name="P.smcp" horiz-adv-x="1089" 
d="M586 1165q203 0 314.5 -97t111.5 -258q0 -164 -110 -255.5t-316 -91.5h-312v-463h-120v1165h432zM586 566q155 0 230.5 66.5t75.5 176.5t-76.5 181.5t-229.5 71.5h-312v-496h312z" />
    <glyph glyph-name="Thorn.smcp" horiz-adv-x="989" 
d="M486 950q203 0 314.5 -97t111.5 -258q0 -164 -110 -255.5t-316 -91.5h-212v-248h-120v1165h120v-215h212zM486 351q155 0 230.5 66.5t75.5 176.5q0 111 -76.5 182t-229.5 71h-212v-496h212z" />
    <glyph glyph-name="Q.smcp" horiz-adv-x="1194" 
d="M1085 525q0 -166 -61.5 -289.5t-174.5 -188.5l221 -179l-81 -73l-253 207q-66 -18 -142 -18q-222 0 -357.5 147t-135.5 394v114q0 247 134.5 394.5t356.5 147.5q225 0 359 -147t134 -395v-114zM594 87q176 0 274.5 117t98.5 321v116q0 203 -99 319.5t-276 116.5
q-173 0 -272 -117t-99 -319v-116q0 -203 100 -320.5t273 -117.5z" />
    <glyph glyph-name="R.smcp" horiz-adv-x="1123" 
d="M738 496l308 -486v-10h-127l-293 469h-354v-469h-120v1165h413q198 0 313.5 -92.5t115.5 -258.5q0 -116 -69.5 -200t-186.5 -118zM272 570h315q136 0 211.5 69t75.5 171q0 116 -80.5 184t-228.5 68h-293v-492z" />
    <glyph glyph-name="S.smcp" horiz-adv-x="1049" 
d="M533 536q-208 51 -313 128.5t-105 211.5q0 136 118.5 220.5t305.5 84.5q194 0 313 -99.5t119 -250.5h-119q0 110 -83.5 179t-230.5 69q-144 0 -224 -57t-80 -144q0 -82 74.5 -136.5t259.5 -99.5q204 -51 307.5 -132t103.5 -219q0 -142 -120.5 -224.5t-312.5 -82.5
q-70 0 -136 12.5t-127.5 40t-107 68t-73 101t-27.5 133.5h119q0 -68 30.5 -119t82.5 -79.5t112 -42.5t127 -14q143 0 228 57t85 149q0 91 -71.5 146.5t-254.5 99.5z" />
    <glyph glyph-name="uni1E9E.smcp" horiz-adv-x="1084" 
d="M617 664q187 -8 286.5 -91t99.5 -226q0 -174 -106.5 -270.5t-289.5 -96.5q-125 0 -229 54l40 99q90 -52 189 -52q128 0 202.5 69t74.5 195q0 226 -322 226h-74v94l279 313q-91 104 -233 104q-138 0 -199.5 -83.5t-61.5 -247.5v-751h-119v753q1 210 91.5 319t288.5 109
q117 0 208 -48t172 -139z" />
    <glyph glyph-name="T.smcp" horiz-adv-x="1057" 
d="M1013 1165v-103h-425v-1062h-120v1062h-425v103h970z" />
    <glyph glyph-name="U.smcp" horiz-adv-x="1160" 
d="M1025 1165v-785q0 -96 -34.5 -172.5t-95 -124.5t-140.5 -73.5t-174 -25.5q-198 0 -321 102.5t-123 293.5v785h118v-785q0 -143 89.5 -219t236.5 -76t235.5 76t88.5 219v785h120z" />
    <glyph glyph-name="Uacute.smcp" horiz-adv-x="1160" 
d="M709 1564h145l-231 -279h-105zM1025 1165v-785q0 -96 -34.5 -172.5t-95 -124.5t-140.5 -73.5t-174 -25.5q-198 0 -321 102.5t-123 293.5v785h118v-785q0 -143 89.5 -219t236.5 -76t235.5 76t88.5 219v785h120z" />
    <glyph glyph-name="Ucircumflex.smcp" horiz-adv-x="1160" 
d="M865 1297v-10h-110l-169 183l-167 -183h-108v12l238 255h76zM1025 1165v-785q0 -96 -34.5 -172.5t-95 -124.5t-140.5 -73.5t-174 -25.5q-198 0 -321 102.5t-123 293.5v785h118v-785q0 -143 89.5 -219t236.5 -76t235.5 76t88.5 219v785h120z" />
    <glyph glyph-name="Udieresis.smcp" horiz-adv-x="1160" 
d="M370 1505q38 0 60.5 -22.5t22.5 -57.5t-22.5 -57.5t-60.5 -22.5t-60 22.5t-22 57.5t22 57.5t60 22.5zM807 1505q38 0 60.5 -23t22.5 -58t-22.5 -57t-60.5 -22q-37 0 -59.5 22.5t-22.5 56.5q0 35 22.5 58t59.5 23zM1025 1165v-785q0 -96 -34.5 -172.5t-95 -124.5
t-140.5 -73.5t-174 -25.5q-198 0 -321 102.5t-123 293.5v785h118v-785q0 -143 89.5 -219t236.5 -76t235.5 76t88.5 219v785h120z" />
    <glyph glyph-name="Ugrave.smcp" horiz-adv-x="1160" 
d="M659 1285h-109l-227 279h145zM1025 1165v-785q0 -96 -34.5 -172.5t-95 -124.5t-140.5 -73.5t-174 -25.5q-198 0 -321 102.5t-123 293.5v785h118v-785q0 -143 89.5 -219t236.5 -76t235.5 76t88.5 219v785h120z" />
    <glyph glyph-name="V.smcp" horiz-adv-x="1092" 
d="M939 1165h129l-463 -1165h-118l-462 1165h129l367 -952l25 -89l26 88z" />
    <glyph glyph-name="W.smcp" horiz-adv-x="1575" 
d="M1410 1165h121l-316 -1165h-117l-283 935l-22 86l-21 -86l-289 -935h-116l-316 1165h121l227 -877l32 -152l36 142l271 887h111l267 -888l36 -141l32 153z" />
    <glyph glyph-name="X.smcp" horiz-adv-x="1082" 
d="M539 683l343 482h144l-413 -575l428 -590h-143l-358 496l-355 -496h-143l427 590l-414 575h143z" />
    <glyph glyph-name="Y.smcp" horiz-adv-x="1060" 
d="M1036 1165l-449 -743v-422h-120v429l-445 736h136l371 -635l371 635h136z" />
    <glyph glyph-name="Yacute.smcp" horiz-adv-x="1060" 
d="M795 1564l-231 -279h-105l191 279h145zM1036 1165l-449 -743v-422h-120v429l-445 736h136l371 -635l371 635h136z" />
    <glyph glyph-name="Z.smcp" horiz-adv-x="1056" 
d="M229 102h753v-102h-906v84l726 979h-705v102h859v-80z" />
    <glyph glyph-name="alpha.alt" horiz-adv-x="1195" 
d="M1077 0h-118l-49 311q-45 -153 -143 -242.5t-243 -89.5q-193 0 -303 145t-110 387v21q0 260 110 415t305 155q142 0 238 -88.5t143 -243.5l45 312h118l-97 -542zM868 495v79q-11 77 -34 147t-59.5 135.5t-95 104.5t-130.5 39q-106 0 -179 -63.5t-105.5 -166.5t-32.5 -238
v-21q0 -195 79 -312.5t236 -117.5q86 0 154 57t108 148t59 209z" />
    <glyph glyph-name="uni05D2.001" horiz-adv-x="760" 
d="M50 -6q-16 0 -33 3v115q15 -3 41 -3q107 4 189 53.5t127.5 126.5t57.5 173v604h-269v101h389v-609q0 -87 18 -172l84 -386h-119l-67 343h-8q-16 -138 -134 -243.5t-276 -105.5z" />
    <glyph glyph-name="uni05E8.001" horiz-adv-x="988" 
d="M708 0v836q0 105 -62 167.5t-166 62.5h-414v101h410q167 0 260.5 -90.5t93.5 -252.5v-824h-122z" />
    <glyph glyph-name="uni05E8.002" horiz-adv-x="988" 
d="M708 0v836q0 105 -62 167.5t-166 62.5h-414v101h410q167 0 260.5 -90.5t93.5 -252.5v-824h-122z" />
    <glyph glyph-name="uni05E8.003" horiz-adv-x="988" 
d="M708 0v836q0 105 -62 167.5t-166 62.5h-414v101h410q167 0 260.5 -90.5t93.5 -252.5v-824h-122z" />
    <glyph glyph-name="uni05E8.004" horiz-adv-x="988" 
d="M708 0v836q0 105 -62 167.5t-166 62.5h-414v101h410q167 0 260.5 -90.5t93.5 -252.5v-824h-122z" />
    <glyph glyph-name="zero.frac" 
d="M651 990q0 -164 -74 -250.5t-207 -86.5q-132 0 -207.5 86.5t-75.5 250.5v137q0 164 74.5 250.5t207.5 86.5t207.5 -86.5t74.5 -250.5v-137zM546 1136q0 116 -45 178t-132 62t-132 -62t-45 -178v-155q0 -116 46 -178.5t132 -62.5q87 0 131.5 62.5t44.5 178.5v155z" />
    <glyph glyph-name="four.frac" 
d="M694 940v-89h-127v-187h-105v187h-399l-3 67l397 535h110v-513h127zM174 940h288v383l-30 -50z" />
    <glyph glyph-name="five.frac" 
d="M129 1062l48 391h463v-90h-376l-29 -228q71 38 160 38q123 0 196.5 -68t73.5 -186q0 -117 -70.5 -191.5t-209.5 -74.5q-109 0 -189 59t-88 164h105q7 -66 54 -101t118 -35q89 0 132 47.5t43 132.5q0 78 -49.5 124.5t-137.5 46.5q-58 0 -92 -13t-69 -38z" />
    <glyph glyph-name="six.frac" 
d="M409 1185q121 0 187.5 -74t66.5 -188q0 -116 -75.5 -193t-197.5 -77q-133 0 -213 82t-80 217v68q0 212 113 327t316 115h17v-90h-11q-146 0 -232.5 -70.5t-97.5 -208.5q34 41 88 66.5t119 25.5zM388 740q77 0 124 52.5t47 129.5q0 78 -45.5 127t-130.5 49q-61 0 -112 -30
t-70 -76v-48q0 -95 52 -149.5t135 -54.5z" />
    <glyph glyph-name="seven.frac" 
d="M659 1393l-366 -729h-111l365 700h-485v89h597v-60z" />
    <glyph glyph-name="eight.frac" 
d="M504 1069q72 -25 113.5 -75.5t41.5 -117.5q0 -107 -80.5 -165t-208.5 -58t-209 58t-81 165q0 67 41.5 118t113.5 76q-62 24 -97.5 70.5t-35.5 106.5q0 102 74.5 159.5t192.5 57.5t193 -57.5t75 -159.5q0 -60 -35.5 -106.5t-97.5 -71.5zM369 1376q-72 0 -117 -36t-45 -97
q0 -59 45 -95t118 -36q72 0 117 36t45 95t-45.5 96t-117.5 37zM370 740q81 0 132.5 38t51.5 103t-52.5 103.5t-132.5 38.5q-82 0 -133 -38.5t-51 -103.5q0 -66 51 -103.5t134 -37.5z" />
    <glyph glyph-name="nine.frac" 
d="M356 1464q135 0 210 -84t75 -234v-63q0 -204 -103.5 -315.5t-315.5 -111.5h-16v87h16q298 0 312 264q-73 -88 -199 -88q-120 0 -189.5 75t-69.5 190q0 118 77.5 199t202.5 81zM355 1004q67 0 113.5 31.5t66.5 77.5v50q0 104 -47.5 158t-130.5 54q-79 0 -127 -56t-48 -134
q0 -76 46 -128.5t127 -52.5z" />
    <glyph glyph-name="zero.sup" 
d="M651 326q0 -164 -74 -250.5t-207 -86.5q-132 0 -207.5 86.5t-75.5 250.5v137q0 164 74.5 250.5t207.5 86.5t207.5 -86.5t74.5 -250.5v-137zM546 472q0 116 -45 178t-132 62t-132 -62t-45 -178v-155q0 -116 46 -178.5t132 -62.5q87 0 131.5 62.5t44.5 178.5v155z" />
    <glyph glyph-name="one.sup" 
d="M464 0h-105v663l-232 -69v90l324 106h13v-790z" />
    <glyph glyph-name="two.sup" 
d="M667 0h-571v76l289 283q137 130 137 214q0 64 -41.5 101.5t-117.5 37.5q-88 0 -134.5 -44.5t-46.5 -116.5h-106q0 106 77.5 177.5t207.5 71.5q123 0 195 -60.5t72 -165.5q0 -70 -45.5 -134t-139.5 -154l-213 -198h437v-88z" />
    <glyph glyph-name="three.sup" 
d="M492 404q160 -42 160 -188q0 -106 -80.5 -166.5t-207.5 -60.5q-76 0 -140.5 23.5t-108.5 77.5t-44 130h106q0 -63 53.5 -103.5t136.5 -40.5q85 0 132 38t47 105q0 142 -200 142h-78v81h78q88 0 136 38t48 97q0 60 -42 97.5t-126 37.5q-74 0 -122.5 -35.5t-48.5 -95.5
h-106q0 98 79 158.5t197 60.5q126 0 200.5 -58t74.5 -163q0 -56 -38 -103.5t-106 -71.5z" />
    <glyph glyph-name="four.sup" 
d="M694 276v-89h-127v-187h-105v187h-399l-3 67l397 535h110v-513h127zM174 276h288v383l-30 -50z" />
    <glyph glyph-name="five.sup" 
d="M129 398l48 391h463v-90h-376l-29 -228q71 38 160 38q123 0 196.5 -68t73.5 -186q0 -117 -70.5 -191.5t-209.5 -74.5q-109 0 -189 59t-88 164h105q7 -66 54 -101t118 -35q89 0 132 47.5t43 132.5q0 78 -49.5 124.5t-137.5 46.5q-58 0 -92 -13t-69 -38z" />
    <glyph glyph-name="six.sup" 
d="M409 521q121 0 187.5 -74t66.5 -188q0 -116 -75.5 -193t-197.5 -77q-133 0 -213 82t-80 217v68q0 212 113 327t316 115h17v-90h-11q-146 0 -232.5 -70.5t-97.5 -208.5q34 41 88 66.5t119 25.5zM388 76q77 0 124 52.5t47 129.5q0 78 -45.5 127t-130.5 49q-61 0 -112 -30
t-70 -76v-48q0 -95 52 -149.5t135 -54.5z" />
    <glyph glyph-name="seven.sup" 
d="M659 729l-366 -729h-111l365 700h-485v89h597v-60z" />
    <glyph glyph-name="eight.sup" 
d="M504 405q72 -25 113.5 -75.5t41.5 -117.5q0 -107 -80.5 -165t-208.5 -58t-209 58t-81 165q0 67 41.5 118t113.5 76q-62 24 -97.5 70.5t-35.5 106.5q0 102 74.5 159.5t192.5 57.5t193 -57.5t75 -159.5q0 -60 -35.5 -106.5t-97.5 -71.5zM369 712q-72 0 -117 -36t-45 -97
q0 -59 45 -95t118 -36q72 0 117 36t45 95t-45.5 96t-117.5 37zM370 76q81 0 132.5 38t51.5 103t-52.5 103.5t-132.5 38.5q-82 0 -133 -38.5t-51 -103.5q0 -66 51 -103.5t134 -37.5z" />
    <glyph glyph-name="nine.sup" 
d="M356 800q135 0 210 -84t75 -234v-63q0 -204 -103.5 -315.5t-315.5 -111.5h-16v87h16q298 0 312 264q-73 -88 -199 -88q-120 0 -189.5 75t-69.5 190q0 118 77.5 199t202.5 81zM355 340q67 0 113.5 31.5t66.5 77.5v50q0 104 -47.5 158t-130.5 54q-79 0 -127 -56t-48 -134
q0 -76 46 -128.5t127 -52.5z" />
    <glyph glyph-name="zero.tnum" horiz-adv-x="1273" 
 />
    <glyph glyph-name="one.tnum" horiz-adv-x="981" 
 />
    <glyph glyph-name="two.tnum" horiz-adv-x="1154" 
 />
    <glyph glyph-name="three.tnum" horiz-adv-x="1118" 
 />
    <glyph glyph-name="four.tnum" horiz-adv-x="1228" 
 />
    <glyph glyph-name="five.tnum" horiz-adv-x="1131" 
 />
    <glyph glyph-name="six.tnum" horiz-adv-x="1136" 
d="M607 956q102 0 183 -38.5t132 -104.5t77.5 -151.5t26.5 -183.5q0 -141 -51 -253t-150 -178.5t-230 -66.5q-142 0 -251 73t-165 194t-56 268v128q0 253 75 435.5t233 285.5t388 103h18v-104h-18q-258 0 -407.5 -154t-166.5 -428q59 83 153.5 129t208.5 46zM595 82
q142 0 227 112t85 279q0 106 -34 190.5t-107.5 137.5t-177.5 53q-118 0 -216 -69.5t-129 -172.5v-99q0 -197 100.5 -314t251.5 -117z" />
    <glyph glyph-name="seven.tnum" horiz-adv-x="1070" 
 />
    <glyph glyph-name="eight.tnum" horiz-adv-x="1136" 
d="M755 748q126 -44 201 -140t75 -222q0 -192 -130 -299t-333 -107q-133 0 -236.5 45.5t-165.5 138.5t-62 222q0 127 73.5 223t198.5 139q-108 43 -171 131.5t-63 202.5q0 185 118 289.5t306 104.5q187 0 307 -104.5t120 -289.5q0 -114 -64.5 -202t-173.5 -132zM261 1082
q0 -129 85.5 -206.5t220.5 -77.5q134 0 220.5 77.5t86.5 206.5q0 127 -88 209.5t-220 82.5q-135 0 -220 -79t-85 -213zM568 82q154 0 248.5 80.5t94.5 223.5q0 138 -97.5 224t-247.5 86q-151 0 -246.5 -85.5t-95.5 -224.5q0 -143 94.5 -223.5t249.5 -80.5z" />
    <glyph glyph-name="nine.tnum" horiz-adv-x="1181" 
 />
    <glyph glyph-name="zero.smcp" horiz-adv-x="1025" 
d="M918 489q0 -246 -106 -375.5t-299 -129.5q-192 0 -299.5 130t-107.5 375v189q0 245 106.5 374t298.5 129q193 0 300 -129t107 -374v-189zM798 694q0 184 -73 284.5t-214 100.5q-140 0 -213 -100.5t-73 -284.5v-220q0 -183 74 -286t214 -103q141 0 213 102.5t72 286.5v220
z" />
    <glyph glyph-name="one.smcp" horiz-adv-x="1025" 
d="M633 0h-120v1020l-353 -111v107l454 152h19v-1168z" />
    <glyph glyph-name="two.smcp" horiz-adv-x="1025" 
d="M947 0h-826v90l428 427q116 113 165 190.5t49 146.5q0 103 -67.5 164t-190.5 61q-143 0 -218.5 -70t-75.5 -187h-120q0 153 112 256t302 103q173 0 276 -87.5t103 -236.5q0 -52 -19.5 -104.5t-62 -110t-79 -99t-100.5 -107.5l-354 -334h678v-102z" />
    <glyph glyph-name="three.smcp" horiz-adv-x="1025" 
d="M677 597q120 -31 180 -104t60 -176q0 -155 -114.5 -244t-294.5 -89q-81 0 -155.5 21t-135 61t-96.5 105t-36 147h120q0 -103 85 -168t219 -65q136 0 212 61t76 170q0 116 -86 171.5t-237 55.5h-111v101h111q142 0 220 60.5t78 153.5q0 101 -67.5 161t-200.5 60
q-122 0 -200.5 -60t-78.5 -159h-120q0 142 113.5 231.5t285.5 89.5q178 0 283 -85.5t105 -238.5q0 -82 -56 -153t-159 -107z" />
    <glyph glyph-name="four.smcp" horiz-adv-x="1025" 
d="M991 389v-102h-200v-287h-120v287h-609l-2 73l601 805h130v-776h200zM200 389h471v629l-50 -84z" />
    <glyph glyph-name="five.smcp" horiz-adv-x="1025" 
d="M177 593l70 572h666v-108h-566l-47 -369q103 61 246 61q178 0 288 -102t110 -275q0 -174 -101 -281t-302 -107q-154 0 -268 85t-128 240h117q13 -107 89.5 -165.5t189.5 -58.5q143 0 213 75t70 214q0 124 -79 198.5t-220 74.5q-91 0 -144.5 -19.5t-109.5 -60.5z" />
    <glyph glyph-name="six.smcp" horiz-adv-x="1024" 
d="M557 768q180 0 278.5 -109.5t98.5 -275.5q0 -173 -107 -286t-285 -113q-190 0 -304.5 122.5t-114.5 311.5v105q0 307 159 479.5t462 172.5h18v-104h-16q-227 0 -357.5 -116.5t-144.5 -329.5q51 64 132.5 103.5t180.5 39.5zM541 86q124 0 199.5 84.5t75.5 209.5t-73 205.5
t-209 80.5q-98 0 -180 -50t-111 -127v-71q0 -153 84 -242.5t214 -89.5z" />
    <glyph glyph-name="seven.smcp" horiz-adv-x="1025" 
d="M934 1096l-555 -1096h-126l553 1062h-738v103h866v-69z" />
    <glyph glyph-name="eight.smcp" horiz-adv-x="1025" 
d="M694 598q109 -36 173.5 -111.5t64.5 -175.5q0 -104 -56.5 -179.5t-150 -111.5t-212.5 -36q-186 0 -303 85.5t-117 241.5q0 100 64 175.5t173 112.5q-95 36 -149.5 105.5t-54.5 158.5q0 150 107.5 234t277.5 84q171 0 279.5 -84.5t108.5 -233.5q0 -90 -55 -159.5
t-150 -105.5zM246 861q0 -97 74.5 -155t192.5 -58q116 0 191 58.5t75 154.5q0 95 -76 156.5t-192 61.5q-118 0 -191.5 -59t-73.5 -159zM513 85q132 0 215.5 61t83.5 168q0 104 -85 168t-216 64q-132 0 -215.5 -64t-83.5 -168q0 -107 83 -168t218 -61z" />
    <glyph glyph-name="nine.smcp" horiz-adv-x="1025" 
d="M489 1181q200 0 305.5 -125.5t105.5 -341.5v-95q0 -111 -20 -204t-65 -173t-114.5 -135t-172 -86t-233.5 -31h-24l1 102h23q243 0 360.5 115.5t124.5 319.5q-49 -67 -130.5 -107.5t-182.5 -40.5q-118 0 -206.5 55t-132 143t-43.5 194q0 173 111 291.5t293 118.5zM485 479
q109 0 187 56t108 136v59q0 168 -78.5 258t-210.5 90q-127 0 -205 -89.5t-78 -215.5q0 -121 74 -207.5t203 -86.5z" />
    <glyph glyph-name="ampersand.smcp" horiz-adv-x="1243" 
d="M1161 0h-142l-121 123q-160 -141 -399 -141q-174 0 -276 81t-102 212q0 94 46.5 161t143.5 137l84 61q-92 94 -133 156.5t-41 138.5q0 112 79 182t209 70t207 -70.5t77 -173.5q0 -69 -43 -133t-104 -108l-97 -71l345 -352q88 124 88 292h112q0 -205 -127 -367zM339 923
q0 -51 34 -102t107 -125l92 67q103 75 103 168q0 62 -45.5 104.5t-124.5 42.5q-77 0 -121.5 -45.5t-44.5 -109.5zM507 85q188 0 318 113l-360 366l-92 -67q-80 -59 -106.5 -108t-26.5 -102q0 -88 68.5 -145t198.5 -57z" />
    <glyph glyph-name="dollar.smcp" horiz-adv-x="1049" 
d="M979 291q0 -132 -105.5 -213t-277.5 -92v-223h-102v223q-82 6 -154.5 29.5t-133 65t-96 108t-35.5 150.5h119q0 -68 30.5 -119t82.5 -79.5t112 -42.5t127 -14q143 0 228 57t85 149q0 91 -71.5 146.5t-254.5 99.5q-208 51 -313 128.5t-105 211.5q0 128 104.5 210.5
t274.5 93.5v215h102v-216q171 -16 273 -112.5t102 -235.5h-119q0 110 -83.5 179t-230.5 69q-144 0 -224 -57t-80 -144q0 -82 74.5 -136.5t259.5 -99.5q204 -51 307.5 -132t103.5 -219z" />
    <glyph glyph-name="Euro.smcp" horiz-adv-x="959" 
d="M673 83q101 0 206 31l14 -102q-110 -31 -220 -31q-199 0 -315 115t-134 328h-170v87h167v133h-167v87h170q16 215 131.5 332.5t315.5 117.5q93 0 222 -31l-11 -102q-99 31 -211 31q-300 0 -327 -348h430v-87h-433v-133h433v-87h-430q15 -165 97 -253t232 -88z" />
    <glyph glyph-name="sterling.smcp" horiz-adv-x="1031" 
d="M273 102h696v-102h-872v102h10q37 11 64 51t41 94.5t19.5 110t3.5 108.5l-2 69h-191v86h187l-4 123q-7 205 87.5 321t266.5 116q181 0 266.5 -102.5t85.5 -284.5h-119q0 150 -60.5 217t-172.5 67q-118 0 -179 -85.5t-56 -248.5l4 -123h415v-86h-411l2 -69
q9 -244 -81 -364z" />
    <glyph glyph-name="yen.smcp" horiz-adv-x="931" 
d="M907 1165l-339 -654h257v-87h-302v-83h302v-86h-302v-255h-120v255h-302v86h302v83h-302v87h260l-339 654h129l315 -635l315 635h126z" />
    <glyph glyph-name="crossbar" horiz-adv-x="865" 
d="M737 687h-611v102h611v-102z" />
    </font>
</defs>
</svg>
